<!DOCTYPE svg PUBLIC "-//W3C//DTD SVG 1.1//EN" "http://www.w3.org/Graphics/SVG/1.1/DTD/svg11.dtd">
<svg xmlns="http://www.w3.org/2000/svg" xmlns:xlink="http://www.w3.org/1999/xlink" version="1.1" width="592px" height="476px" viewBox="-0.5 -0.5 592 476"><defs/><g><path d="M 530 292.5 L 326.18 241.54" fill="none" stroke="#000000" stroke-miterlimit="10" pointer-events="stroke"/><path d="M 321.08 240.27 L 328.72 238.57 L 326.18 241.54 L 327.03 245.36 Z" fill="#000000" stroke="#000000" stroke-miterlimit="10" pointer-events="all"/><path d="M 452.06 80 L 324.8 190.94" fill="none" stroke="#000000" stroke-miterlimit="10" pointer-events="stroke"/><path d="M 320.84 194.39 L 323.82 187.16 L 324.8 190.94 L 328.42 192.43 Z" fill="#000000" stroke="#000000" stroke-miterlimit="10" pointer-events="all"/><path d="M 203.73 46.77 L 260.9 184.12" fill="none" stroke="#000000" stroke-miterlimit="10" pointer-events="stroke"/><path d="M 262.92 188.97 L 257 183.85 L 260.9 184.12 L 263.46 181.16 Z" fill="#000000" stroke="#000000" stroke-miterlimit="10" pointer-events="all"/><path d="M 40.5 213.2 L 233.65 229.47" fill="none" stroke="#000000" stroke-miterlimit="10" pointer-events="stroke"/><path d="M 238.89 229.91 L 231.62 232.81 L 233.65 229.47 L 232.2 225.83 Z" fill="#000000" stroke="#000000" stroke-miterlimit="10" pointer-events="all"/><path d="M 3.48 243 C 1.63 243 0 241.42 0 239.5 L 0 183.48 C 0 181.48 1.61 180 3.36 180 L 37.01 180 C 38.78 180 40.5 181.43 40.5 183.56 L 40.5 239.56 C 40.5 241.51 38.9 243 37.16 243 Z" fill="#d2d3d3" stroke="none" pointer-events="all"/><path d="M 37.14 240.19 C 38.52 240.19 40.5 238.92 40.5 236.72 L 40.5 239.56 C 40.5 241.49 38.9 243 37.16 243 L 3.48 243 C 1.63 243 0 241.42 0 239.5 L 0 236.66 C 0 238.83 1.72 240.19 3.3 240.19 Z" fill-opacity="0.3" fill="#000000" stroke="none" pointer-events="all"/><rect x="0" y="180" width="0" height="0" fill="none" stroke="#000000" pointer-events="all"/><path d="M 10 188.29 C 8.82 188.29 7.81 187.28 7.81 185.99 C 7.81 184.47 9.14 183.81 10.03 183.81 L 30.26 183.81 C 31.64 183.81 32.47 185.04 32.47 186.02 C 32.47 187.31 31.46 188.29 30.26 188.29 Z M 6.05 228.09 C 5.06 228.09 3.83 227.34 3.83 225.96 L 3.83 194.32 C 3.83 192.81 5.13 192.1 6.11 192.1 L 34.34 192.1 C 35.48 192.1 36.58 192.93 36.58 194.26 L 36.58 225.99 C 36.58 227.06 35.53 228.09 34.33 228.09 Z M 20.12 238.62 C 18.5 238.62 16.16 237.4 16.16 234.54 C 16.16 232.5 17.96 230.78 20.11 230.78 C 22.54 230.78 24.15 232.76 24.15 234.63 C 24.15 236.43 22.52 238.62 20.12 238.62 Z" fill="#ffffff" stroke="none" pointer-events="all"/><path d="M 353.85 440 L 296.18 276.01" fill="none" stroke="#000000" stroke-miterlimit="10" pointer-events="stroke"/><path d="M 294.44 271.05 L 300.06 276.5 L 296.18 276.01 L 293.46 278.82 Z" fill="#000000" stroke="#000000" stroke-miterlimit="10" pointer-events="all"/><rect x="335" y="440" width="50" height="35" fill="none" stroke="none" pointer-events="all"/><path d="M 342.49 465.73 L 342.96 465.73 L 377.06 465.73 L 377.57 465.73 C 377.78 465.73 378.3 466.01 378.71 466.33 L 384.32 471.75 L 384.32 473.04 C 384.32 473.66 383.68 474.3 382.88 474.3 L 337.16 474.3 C 336.8 474.3 336.41 474.17 336.14 473.93 C 335.86 473.7 335.68 473.38 335.68 472.93 L 335.68 471.81 L 341.65 466.08 C 341.85 465.91 342.19 465.73 342.49 465.73 Z M 342.96 440.7 L 377.06 440.7 C 377.87 440.7 378.5 441.34 378.5 442.17 L 378.5 463.55 C 378.5 464.38 377.87 465.03 377.06 465.03 L 342.96 465.03 C 342.15 465.03 341.52 464.38 341.52 463.55 L 341.52 442.17 C 341.52 441.34 342.15 440.7 342.96 440.7 Z M 342.96 440 C 341.79 440 340.84 440.97 340.84 442.17 L 340.84 463.55 C 340.84 464.24 341.15 464.85 341.64 465.25 C 341.47 465.34 341.33 465.45 341.2 465.56 L 341.2 465.57 L 335 471.5 L 335 472.93 C 335 473.58 335.29 474.11 335.7 474.47 C 336.11 474.82 336.64 475 337.16 475 L 382.88 475 C 384.03 475 385 474.11 385 473.04 L 385 471.46 L 379.15 465.8 L 379.14 465.79 C 378.9 465.6 378.65 465.41 378.38 465.26 C 378.87 464.86 379.18 464.24 379.18 463.56 L 379.18 442.17 C 379.18 440.97 378.23 440 377.06 440 Z M 343.42 442.67 L 376.51 442.67 L 376.51 463.07 L 343.42 463.07 Z M 351.55 471.7 L 353.28 468.67 L 366.78 468.67 L 368.52 471.7 L 364.02 471.7 L 364.02 472.24 C 364.02 472.79 363.51 473.4 362.95 473.4 L 356.97 473.4 C 356.39 473.4 355.95 472.8 355.95 472.26 L 355.95 471.7 Z" fill="#005073" stroke="none" pointer-events="all"/><path d="M 127.5 376.93 L 235.41 272.96" fill="none" stroke="#000000" stroke-miterlimit="10" pointer-events="stroke"/><path d="M 239.19 269.32 L 236.58 276.69 L 235.41 272.96 L 231.73 271.65 Z" fill="#000000" stroke="#000000" stroke-miterlimit="10" pointer-events="all"/><rect x="90" y="370" width="37.5" height="50" fill="none" stroke="none" pointer-events="all"/><path d="M 110.48 414.75 C 110.48 415.75 109.7 416.55 108.73 416.55 C 107.77 416.55 106.99 415.75 106.98 414.75 C 106.98 414.28 107.17 413.82 107.5 413.48 C 107.82 413.14 108.27 412.95 108.73 412.95 C 109.7 412.95 110.48 413.76 110.48 414.75 Z M 109.65 374.03 C 109.65 374.56 109.23 374.99 108.71 374.99 C 108.2 374.99 107.78 374.56 107.78 374.03 C 107.78 373.77 107.88 373.53 108.06 373.35 C 108.23 373.17 108.47 373.07 108.71 373.07 C 108.96 373.07 109.2 373.17 109.37 373.35 C 109.55 373.53 109.65 373.77 109.65 374.03 Z M 93.59 376.49 L 123.95 376.49 L 123.95 411.2 L 93.59 411.2 Z M 92.86 370 C 91.29 370 90 371.33 90 372.95 L 90 417.05 C 90 418.67 91.29 420 92.86 420 L 124.64 420 C 126.21 420 127.5 418.67 127.5 417.05 L 127.5 372.95 C 127.5 371.33 126.21 370 124.64 370 Z M 92.86 371.66 L 124.64 371.66 C 125.35 371.66 125.89 372.22 125.89 372.95 L 125.89 417.05 C 125.89 417.78 125.35 418.34 124.64 418.34 L 92.86 418.34 C 92.15 418.34 91.61 417.78 91.61 417.05 L 91.61 372.95 C 91.61 372.22 92.15 371.66 92.86 371.66 Z" fill="#005073" stroke="none" pointer-events="all"/><rect x="170" y="0" width="48" height="46.77" fill="none" stroke="none" pointer-events="all"/><path d="M 201.94 39.15 C 201.24 39.15 200.67 39.6 200.67 40.15 L 200.67 42.05 C 200.67 42.6 201.24 43.04 201.94 43.04 L 212.86 43.04 C 213.56 43.04 214.13 42.6 214.13 42.05 L 214.13 40.15 C 214.13 39.6 213.56 39.15 212.86 39.15 Z M 173.6 37.16 L 214.41 37.16 C 215.36 37.16 216.06 37.85 216.06 38.69 L 216.06 43.46 C 216.06 44.3 215.36 44.99 214.41 44.99 L 173.6 44.99 C 172.65 44.99 171.95 44.3 171.95 43.46 L 171.95 38.69 C 171.95 37.85 172.65 37.16 173.6 37.16 Z M 173.6 35.38 C 171.74 35.38 170.17 36.84 170.17 38.69 L 170.17 43.46 C 170.17 45.3 171.74 46.77 173.6 46.77 L 214.41 46.77 C 216.27 46.77 217.84 45.3 217.84 43.46 L 217.84 38.69 C 217.84 36.84 216.27 35.38 214.41 35.38 Z M 175.73 5.61 L 212.25 5.61 L 212.25 27.8 L 175.73 27.8 Z M 174.86 3.83 C 174.86 3.83 174.37 3.98 174.37 3.98 C 174.37 3.98 174.26 4.06 174.23 4.09 C 174.19 4.13 174.17 4.16 174.14 4.19 C 174.05 4.31 174.03 4.38 174.01 4.43 C 173.98 4.53 173.97 4.58 173.97 4.62 C 173.95 4.71 173.95 4.77 173.95 4.84 L 173.95 28.57 C 173.95 28.64 173.95 28.7 173.97 28.79 C 173.97 28.83 173.98 28.88 174.01 28.98 C 174.03 29.03 174.05 29.1 174.14 29.22 C 174.17 29.25 174.19 29.28 174.23 29.32 C 174.26 29.35 174.37 29.43 174.37 29.43 C 174.37 29.43 174.86 29.58 174.86 29.58 L 213.12 29.58 C 213.12 29.58 213.61 29.43 213.62 29.43 C 213.62 29.43 213.72 29.35 213.75 29.32 C 213.79 29.28 213.82 29.25 213.84 29.22 C 213.93 29.1 213.95 29.03 213.97 28.98 C 214 28.88 214.01 28.83 214.02 28.79 C 214.03 28.7 214.03 28.64 214.03 28.57 L 214.03 4.84 C 214.03 4.77 214.03 4.71 214.02 4.62 C 214.01 4.58 214 4.53 213.97 4.43 C 213.95 4.38 213.93 4.31 213.84 4.19 C 213.82 4.16 213.79 4.13 213.75 4.09 C 213.72 4.06 213.62 3.98 213.62 3.98 C 213.61 3.98 213.12 3.83 213.12 3.83 Z M 172.75 1.78 L 215.25 1.78 C 215.7 1.78 216.1 2.17 216.1 2.77 L 216.1 30.59 C 216.1 31.19 215.7 31.58 215.25 31.58 L 172.75 31.58 C 172.3 31.58 171.9 31.19 171.9 30.59 L 171.9 2.77 C 171.9 2.17 172.3 1.78 172.75 1.78 Z M 172.75 0 C 171.27 0 170.12 1.29 170.12 2.77 L 170.12 30.59 C 170.12 32.07 171.27 33.36 172.75 33.36 L 215.25 33.36 C 216.73 33.36 217.88 32.07 217.88 30.59 L 217.88 2.77 C 217.88 1.29 216.73 0 215.25 0 Z" fill="#232f3e" stroke="none" pointer-events="all"/><path d="M 530 270 L 590 270 L 590 330 L 530 330 Z" fill="#ffffff" stroke="none" pointer-events="all"/><path d="M 567.98 315.84 C 567.27 315.84 566.7 316.29 566.7 316.84 L 566.7 318.75 C 566.7 319.31 567.27 319.75 567.98 319.75 L 578.95 319.75 C 579.65 319.75 580.23 319.31 580.23 318.75 L 580.23 316.84 C 580.23 316.29 579.65 315.84 578.95 315.84 Z M 539.5 313.84 L 580.5 313.84 C 581.47 313.84 582.17 314.54 582.17 315.38 L 582.17 320.17 C 582.17 321.01 581.47 321.71 580.5 321.71 L 539.5 321.71 C 538.54 321.71 537.84 321.01 537.84 320.17 L 537.84 315.38 C 537.84 314.54 538.54 313.84 539.5 313.84 Z M 539.5 312.05 C 537.63 312.05 536.05 313.52 536.05 315.38 L 536.05 320.17 C 536.05 322.02 537.63 323.5 539.5 323.5 L 580.5 323.5 C 582.38 323.5 583.96 322.02 583.96 320.17 L 583.96 315.38 C 583.96 313.52 582.38 312.05 580.5 312.05 Z M 541.64 282.14 L 578.34 282.14 L 578.34 304.43 L 541.64 304.43 Z M 540.77 280.35 C 540.77 280.35 540.27 280.5 540.27 280.5 C 540.27 280.5 540.17 280.58 540.13 280.61 C 540.1 280.65 540.07 280.68 540.05 280.71 C 539.96 280.83 539.94 280.9 539.92 280.95 C 539.88 281.06 539.88 281.1 539.87 281.15 C 539.86 281.24 539.85 281.3 539.85 281.37 L 539.85 305.21 C 539.85 305.28 539.86 305.34 539.87 305.43 C 539.88 305.47 539.88 305.52 539.92 305.62 C 539.94 305.68 539.96 305.74 540.05 305.86 C 540.07 305.89 540.1 305.92 540.13 305.96 C 540.17 306 540.27 306.07 540.27 306.07 C 540.27 306.08 540.77 306.22 540.77 306.22 L 579.21 306.22 C 579.21 306.22 579.71 306.08 579.71 306.07 C 579.71 306.07 579.81 306 579.85 305.96 C 579.89 305.92 579.91 305.89 579.93 305.86 C 580.02 305.74 580.04 305.68 580.06 305.62 C 580.1 305.52 580.11 305.47 580.11 305.43 C 580.13 305.34 580.13 305.28 580.13 305.21 L 580.13 281.37 C 580.13 281.3 580.13 281.24 580.11 281.15 C 580.11 281.1 580.1 281.06 580.06 280.95 C 580.04 280.9 580.02 280.83 579.93 280.71 C 579.91 280.68 579.89 280.65 579.85 280.61 C 579.81 280.58 579.71 280.5 579.71 280.5 C 579.71 280.5 579.21 280.35 579.21 280.35 Z M 538.65 278.29 L 581.35 278.29 C 581.81 278.29 582.21 278.69 582.21 279.29 L 582.21 307.23 C 582.21 307.84 581.81 308.23 581.35 308.23 L 538.65 308.23 C 538.2 308.23 537.79 307.84 537.79 307.23 L 537.79 279.29 C 537.79 278.69 538.2 278.29 538.65 278.29 Z M 538.65 276.5 C 537.16 276.5 536 277.8 536 279.29 L 536 307.23 C 536 308.73 537.16 310.02 538.65 310.02 L 581.35 310.02 C 582.84 310.02 584 308.73 584 307.23 L 584 279.29 C 584 277.8 582.84 276.5 581.35 276.5 Z" fill="#232f3e" stroke="none" pointer-events="all"/><rect x="450" y="40" width="50" height="40" fill="none" stroke="none" pointer-events="all"/><path d="M 455.85 44.65 L 493.84 44.65 L 493.84 66.24 L 455.85 66.24 Z M 454.96 42 L 495.04 42 C 496.61 42 497.85 43.15 497.85 44.61 L 497.85 66.52 C 497.85 67.98 496.61 69.13 495.04 69.13 L 454.96 69.13 C 453.38 69.13 452.15 67.98 452.15 66.52 L 452.15 44.61 C 452.15 43.15 453.38 42 454.96 42 Z M 454.96 40 C 452.23 40 450 42.08 450 44.61 L 450 66.52 C 450 69.06 452.23 71.14 454.96 71.14 L 470.55 71.14 L 470.55 75.7 L 463.1 75.7 C 461.83 75.7 460.79 76.66 460.79 77.84 C 460.79 79.03 461.83 79.99 463.1 79.99 L 486.67 79.99 C 487.94 79.99 488.97 79.03 488.97 77.84 C 488.97 76.66 487.94 75.7 486.67 75.7 L 480.24 75.7 L 480.24 71.14 L 495.04 71.14 C 497.77 71.14 500 69.06 500 66.52 L 500 44.61 C 500 42.08 497.77 40 495.04 40 Z" fill="#005073" stroke="none" pointer-events="all"/><path d="M 246.04 270 C 242.03 270 240 267.67 240 265.81 L 240 194.19 C 240 191.94 242.37 190 245.62 190 L 314.3 190 C 316.59 190 320 191.35 320 194.31 L 320 265.63 C 320 268.14 317.4 270 314.2 270 Z" fill="#7d7c7c" stroke="none" pointer-events="all"/><path d="M 320 262.18 L 320 265.63 C 320 268.14 317.4 270 314.2 270 L 246.04 270 C 242.03 270 240 267.67 240 265.81 L 240 262.33 C 240 264.4 242.29 266.43 245.75 266.43 L 314.02 266.43 C 317.03 266.43 320 264.74 320 262.18 Z" fill-opacity="0.3" fill="#000000" stroke="none" pointer-events="all"/><rect x="240" y="190" width="0" height="0" fill="none" stroke="#000000" pointer-events="all"/><path d="M 307.41 205.92 L 252.38 205.92 L 252.38 201.24 L 307.41 201.24 Z M 307.41 214.12 L 252.38 214.12 L 252.38 209.42 L 307.41 209.42 Z M 307.41 222.3 L 252.38 222.3 L 252.38 217.62 L 307.41 217.62 Z" fill="#ffffff" stroke="none" pointer-events="all"/></g></svg>