<?xml version="1.0" encoding="UTF-8"?>
<!DOCTYPE svg PUBLIC "-//W3C//DTD SVG 1.1//EN" "http://www.w3.org/Graphics/SVG/1.1/DTD/svg11.dtd">
<svg xmlns="http://www.w3.org/2000/svg" xmlns:xlink="http://www.w3.org/1999/xlink" version="1.1" width="592px" height="477px" viewBox="-0.5 -0.5 592 477"><defs/><g><path d="M 530 292.5 L 326.18 241.54" fill="none" stroke="rgb(0, 0, 0)" stroke-miterlimit="10" pointer-events="stroke"/><path d="M 321.08 240.27 L 328.72 238.57 L 326.18 241.54 L 327.03 245.36 Z" fill="rgb(0, 0, 0)" stroke="rgb(0, 0, 0)" stroke-miterlimit="10" pointer-events="all"/><path d="M 452.06 80 L 324.8 190.94" fill="none" stroke="rgb(0, 0, 0)" stroke-miterlimit="10" pointer-events="stroke"/><path d="M 320.84 194.39 L 323.82 187.16 L 324.8 190.94 L 328.42 192.43 Z" fill="rgb(0, 0, 0)" stroke="rgb(0, 0, 0)" stroke-miterlimit="10" pointer-events="all"/><path d="M 203.73 46.77 L 260.9 184.12" fill="none" stroke="rgb(0, 0, 0)" stroke-miterlimit="10" pointer-events="stroke"/><path d="M 262.92 188.97 L 257 183.85 L 260.9 184.12 L 263.46 181.16 Z" fill="rgb(0, 0, 0)" stroke="rgb(0, 0, 0)" stroke-miterlimit="10" pointer-events="all"/><path d="M 40.5 213.2 L 233.65 229.47" fill="none" stroke="rgb(0, 0, 0)" stroke-miterlimit="10" pointer-events="stroke"/><path d="M 238.89 229.91 L 231.62 232.81 L 233.65 229.47 L 232.2 225.83 Z" fill="rgb(0, 0, 0)" stroke="rgb(0, 0, 0)" stroke-miterlimit="10" pointer-events="all"/><path d="M 3.48 243 C 1.63 243 0 241.42 0 239.5 L 0 183.48 C 0 181.48 1.61 180 3.36 180 L 37.01 180 C 38.78 180 40.5 181.43 40.5 183.56 L 40.5 239.56 C 40.5 241.51 38.9 243 37.16 243 Z" fill="#d2d3d3" stroke="none" pointer-events="all"/><path d="M 37.14 240.19 C 38.52 240.19 40.5 238.92 40.5 236.72 L 40.5 239.56 C 40.5 241.49 38.9 243 37.16 243 L 3.48 243 C 1.63 243 0 241.42 0 239.5 L 0 236.66 C 0 238.83 1.72 240.19 3.3 240.19 Z" fill-opacity="0.3" fill="#000000" stroke="none" pointer-events="all"/><rect x="0" y="180" width="0" height="0" fill="none" stroke="rgb(0, 0, 0)" pointer-events="all"/><path d="M 10 188.29 C 8.82 188.29 7.81 187.28 7.81 185.99 C 7.81 184.47 9.14 183.81 10.03 183.81 L 30.26 183.81 C 31.64 183.81 32.47 185.04 32.47 186.02 C 32.47 187.31 31.46 188.29 30.26 188.29 Z M 6.05 228.09 C 5.06 228.09 3.83 227.34 3.83 225.96 L 3.83 194.32 C 3.83 192.81 5.13 192.1 6.11 192.1 L 34.34 192.1 C 35.48 192.1 36.58 192.93 36.58 194.26 L 36.58 225.99 C 36.58 227.06 35.53 228.09 34.33 228.09 Z M 20.12 238.62 C 18.5 238.62 16.16 237.4 16.16 234.54 C 16.16 232.5 17.96 230.78 20.11 230.78 C 22.54 230.78 24.15 232.76 24.15 234.63 C 24.15 236.43 22.52 238.62 20.12 238.62 Z" fill="#ffffff" stroke="none" pointer-events="all"/><path d="M 353.85 440 L 296.18 276.01" fill="none" stroke="rgb(0, 0, 0)" stroke-miterlimit="10" pointer-events="stroke"/><path d="M 294.44 271.05 L 300.06 276.5 L 296.18 276.01 L 293.46 278.82 Z" fill="rgb(0, 0, 0)" stroke="rgb(0, 0, 0)" stroke-miterlimit="10" pointer-events="all"/><rect x="335" y="440" width="50" height="35" fill="none" stroke="none" pointer-events="all"/><path d="M 342.49 465.73 L 342.96 465.73 L 377.06 465.73 L 377.57 465.73 C 377.78 465.73 378.3 466.01 378.71 466.33 L 384.32 471.75 L 384.32 473.04 C 384.32 473.66 383.68 474.3 382.88 474.3 L 337.16 474.3 C 336.8 474.3 336.41 474.17 336.14 473.93 C 335.86 473.7 335.68 473.38 335.68 472.93 L 335.68 471.81 L 341.65 466.08 C 341.85 465.91 342.19 465.73 342.49 465.73 Z M 342.96 440.7 L 377.06 440.7 C 377.87 440.7 378.5 441.34 378.5 442.17 L 378.5 463.55 C 378.5 464.38 377.87 465.03 377.06 465.03 L 342.96 465.03 C 342.15 465.03 341.52 464.38 341.52 463.55 L 341.52 442.17 C 341.52 441.34 342.15 440.7 342.96 440.7 Z M 342.96 440 C 341.79 440 340.84 440.97 340.84 442.17 L 340.84 463.55 C 340.84 464.24 341.15 464.85 341.64 465.25 C 341.47 465.34 341.33 465.45 341.2 465.56 L 341.2 465.57 L 335 471.5 L 335 472.93 C 335 473.58 335.29 474.11 335.7 474.47 C 336.11 474.82 336.64 475 337.16 475 L 382.88 475 C 384.03 475 385 474.11 385 473.04 L 385 471.46 L 379.15 465.8 L 379.14 465.79 C 378.9 465.6 378.65 465.41 378.38 465.26 C 378.87 464.86 379.18 464.24 379.18 463.56 L 379.18 442.17 C 379.18 440.97 378.23 440 377.06 440 Z M 343.42 442.67 L 376.51 442.67 L 376.51 463.07 L 343.42 463.07 Z M 351.55 471.7 L 353.28 468.67 L 366.78 468.67 L 368.52 471.7 L 364.02 471.7 L 364.02 472.24 C 364.02 472.79 363.51 473.4 362.95 473.4 L 356.97 473.4 C 356.39 473.4 355.95 472.8 355.95 472.26 L 355.95 471.7 Z" fill="#005073" stroke="none" pointer-events="all"/><path d="M 127.5 376.93 L 235.41 272.96" fill="none" stroke="rgb(0, 0, 0)" stroke-miterlimit="10" pointer-events="stroke"/><path d="M 239.19 269.32 L 236.58 276.69 L 235.41 272.96 L 231.73 271.65 Z" fill="rgb(0, 0, 0)" stroke="rgb(0, 0, 0)" stroke-miterlimit="10" pointer-events="all"/><rect x="90" y="370" width="37.5" height="50" fill="none" stroke="none" pointer-events="all"/><path d="M 110.48 414.75 C 110.48 415.75 109.7 416.55 108.73 416.55 C 107.77 416.55 106.99 415.75 106.98 414.75 C 106.98 414.28 107.17 413.82 107.5 413.48 C 107.82 413.14 108.27 412.95 108.73 412.95 C 109.7 412.95 110.48 413.76 110.48 414.75 Z M 109.65 374.03 C 109.65 374.56 109.23 374.99 108.71 374.99 C 108.2 374.99 107.78 374.56 107.78 374.03 C 107.78 373.77 107.88 373.53 108.06 373.35 C 108.23 373.17 108.47 373.07 108.71 373.07 C 108.96 373.07 109.2 373.17 109.37 373.35 C 109.55 373.53 109.65 373.77 109.65 374.03 Z M 93.59 376.49 L 123.95 376.49 L 123.95 411.2 L 93.59 411.2 Z M 92.86 370 C 91.29 370 90 371.33 90 372.95 L 90 417.05 C 90 418.67 91.29 420 92.86 420 L 124.64 420 C 126.21 420 127.5 418.67 127.5 417.05 L 127.5 372.95 C 127.5 371.33 126.21 370 124.64 370 Z M 92.86 371.66 L 124.64 371.66 C 125.35 371.66 125.89 372.22 125.89 372.95 L 125.89 417.05 C 125.89 417.78 125.35 418.34 124.64 418.34 L 92.86 418.34 C 92.15 418.34 91.61 417.78 91.61 417.05 L 91.61 372.95 C 91.61 372.22 92.15 371.66 92.86 371.66 Z" fill="#005073" stroke="none" pointer-events="all"/><rect x="170" y="0" width="48" height="46.77" fill="none" stroke="none" pointer-events="all"/><path d="M 214.92 0 L 173.08 0 C 171.5 0 170.21 1.29 170.21 2.87 L 170.21 30.5 C 170.21 32.08 171.5 33.37 173.08 33.37 L 214.92 33.37 C 216.51 33.37 217.79 32.08 217.79 30.5 L 217.79 2.87 C 217.79 1.29 216.51 0 214.92 0 Z M 215.62 30.5 C 215.62 30.88 215.31 31.2 214.92 31.2 L 173.08 31.2 C 172.69 31.2 172.38 30.88 172.38 30.5 L 172.38 2.87 C 172.38 2.49 172.69 2.17 173.08 2.17 L 214.92 2.17 C 215.31 2.17 215.62 2.49 215.62 2.87 Z M 212.41 3.81 L 175.56 3.81 C 174.7 3.81 174.01 4.5 174.01 5.35 L 174.01 28.02 C 174.01 28.87 174.7 29.57 175.56 29.57 L 212.41 29.57 C 213.26 29.57 213.96 28.87 213.96 28.02 L 213.96 5.35 C 213.96 4.5 213.26 3.81 212.41 3.81 Z M 176.18 27.39 L 176.18 5.98 L 211.78 5.98 L 211.78 27.39 Z M 214.92 35.17 L 173.08 35.17 C 171.5 35.17 170.21 36.46 170.21 38.04 L 170.21 43.9 C 170.21 45.48 171.5 46.77 173.08 46.77 L 214.92 46.77 C 216.51 46.77 217.79 45.48 217.79 43.9 L 217.79 38.04 C 217.79 36.46 216.51 35.17 214.92 35.17 Z M 215.62 43.9 C 215.62 44.28 215.31 44.6 214.92 44.6 L 173.08 44.6 C 172.69 44.6 172.38 44.28 172.38 43.9 L 172.38 38.04 C 172.38 37.66 172.69 37.34 173.08 37.34 L 214.92 37.34 C 215.31 37.34 215.62 37.66 215.62 38.04 Z M 213.99 39.96 L 213.99 42.05 C 213.99 42.52 213.61 42.91 213.13 42.91 L 201.46 42.91 C 200.98 42.91 200.59 42.52 200.59 42.05 L 200.59 39.96 C 200.59 39.48 200.98 39.09 201.46 39.09 L 213.13 39.09 C 213.61 39.09 213.99 39.48 213.99 39.96 Z" fill="#232f3e" stroke="none" pointer-events="all"/><path d="M 530 270 L 590 270 L 590 330 L 530 330 Z" fill="#ffffff" stroke="none" pointer-events="all"/><path d="M 581.1 276.41 L 538.9 276.41 C 537.3 276.41 536 277.71 536 279.31 L 536 307.17 C 536 308.77 537.3 310.07 538.9 310.07 L 581.1 310.07 C 582.7 310.07 584 308.77 584 307.17 L 584 279.31 C 584 277.71 582.7 276.41 581.1 276.41 Z M 581.81 307.17 C 581.81 307.56 581.49 307.88 581.1 307.88 L 538.9 307.88 C 538.51 307.88 538.19 307.56 538.19 307.17 L 538.19 279.31 C 538.19 278.92 538.51 278.6 538.9 278.6 L 581.1 278.6 C 581.49 278.6 581.81 278.92 581.81 279.31 Z M 578.57 280.25 L 541.4 280.25 C 540.54 280.25 539.84 280.95 539.84 281.81 L 539.84 304.68 C 539.84 305.53 540.54 306.23 541.4 306.23 L 578.57 306.23 C 579.43 306.23 580.13 305.53 580.13 304.68 L 580.13 281.81 C 580.13 280.95 579.43 280.25 578.57 280.25 Z M 542.03 304.04 L 542.03 282.44 L 577.94 282.44 L 577.94 304.04 Z M 581.1 311.89 L 538.9 311.89 C 537.3 311.89 536 313.19 536 314.78 L 536 320.69 C 536 322.29 537.3 323.59 538.9 323.59 L 581.1 323.59 C 582.7 323.59 584 322.29 584 320.69 L 584 314.78 C 584 313.19 582.7 311.89 581.1 311.89 Z M 581.81 320.69 C 581.81 321.08 581.49 321.4 581.1 321.4 L 538.9 321.4 C 538.51 321.4 538.19 321.08 538.19 320.69 L 538.19 314.78 C 538.19 314.39 538.51 314.08 538.9 314.08 L 581.1 314.08 C 581.49 314.08 581.81 314.39 581.81 314.78 Z M 580.17 316.71 L 580.17 318.82 C 580.17 319.3 579.78 319.69 579.3 319.69 L 567.52 319.69 C 567.04 319.69 566.65 319.3 566.65 318.82 L 566.65 316.71 C 566.65 316.23 567.04 315.85 567.52 315.85 L 579.3 315.85 C 579.78 315.85 580.17 316.23 580.17 316.71 Z" fill="#232f3e" stroke="none" pointer-events="all"/><rect x="450" y="40" width="50" height="40" fill="none" stroke="none" pointer-events="all"/><path d="M 455.85 44.65 L 493.84 44.65 L 493.84 66.24 L 455.85 66.24 Z M 454.96 42 L 495.04 42 C 496.61 42 497.85 43.15 497.85 44.61 L 497.85 66.52 C 497.85 67.98 496.61 69.13 495.04 69.13 L 454.96 69.13 C 453.38 69.13 452.15 67.98 452.15 66.52 L 452.15 44.61 C 452.15 43.15 453.38 42 454.96 42 Z M 454.96 40 C 452.23 40 450 42.08 450 44.61 L 450 66.52 C 450 69.06 452.23 71.14 454.96 71.14 L 470.55 71.14 L 470.55 75.7 L 463.1 75.7 C 461.83 75.7 460.79 76.66 460.79 77.84 C 460.79 79.03 461.83 79.99 463.1 79.99 L 486.67 79.99 C 487.94 79.99 488.97 79.03 488.97 77.84 C 488.97 76.66 487.94 75.7 486.67 75.7 L 480.24 75.7 L 480.24 71.14 L 495.04 71.14 C 497.77 71.14 500 69.06 500 66.52 L 500 44.61 C 500 42.08 497.77 40 495.04 40 Z" fill="#005073" stroke="none" pointer-events="all"/><path d="M 246.04 270 C 242.03 270 240 267.67 240 265.81 L 240 194.19 C 240 191.94 242.37 190 245.62 190 L 314.3 190 C 316.59 190 320 191.35 320 194.31 L 320 265.63 C 320 268.14 317.4 270 314.2 270 Z" fill="#7d7c7c" stroke="none" pointer-events="all"/><path d="M 320 262.18 L 320 265.63 C 320 268.14 317.4 270 314.2 270 L 246.04 270 C 242.03 270 240 267.67 240 265.81 L 240 262.33 C 240 264.4 242.29 266.43 245.75 266.43 L 314.02 266.43 C 317.03 266.43 320 264.74 320 262.18 Z" fill-opacity="0.3" fill="#000000" stroke="none" pointer-events="all"/><rect x="240" y="190" width="0" height="0" fill="none" stroke="rgb(0, 0, 0)" pointer-events="all"/><path d="M 307.41 205.92 L 252.38 205.92 L 252.38 201.24 L 307.41 201.24 Z M 307.41 214.12 L 252.38 214.12 L 252.38 209.42 L 307.41 209.42 Z M 307.41 222.3 L 252.38 222.3 L 252.38 217.62 L 307.41 217.62 Z" fill="#ffffff" stroke="none" pointer-events="all"/></g></svg>