<?xml version="1.0" encoding="UTF-8"?>
<!DOCTYPE svg PUBLIC "-//W3C//DTD SVG 1.1//EN" "http://www.w3.org/Graphics/SVG/1.1/DTD/svg11.dtd">
<svg xmlns="http://www.w3.org/2000/svg" xmlns:xlink="http://www.w3.org/1999/xlink" version="1.1" width="311px" height="342px" viewBox="-0.5 -0.5 311 342"><defs/><g><path d="M 0 274.5 C 0 263.83 60 263.83 60 274.5 L 60 318.5 C 60 329.17 0 329.17 0 318.5 Z" fill="rgb(255, 255, 255)" stroke="rgb(0, 0, 0)" stroke-miterlimit="10" pointer-events="all"/><path d="M 0 274.5 C 0 282.5 60 282.5 60 274.5 M 0 278.5 C 0 286.5 60 286.5 60 278.5 M 0 282.5 C 0 290.5 60 290.5 60 282.5" fill="none" stroke="rgb(0, 0, 0)" stroke-miterlimit="10" pointer-events="all"/><path d="M 270.19 80 L 274.3 254.54" fill="none" stroke="#b85450" stroke-width="4" stroke-miterlimit="10" pointer-events="stroke"/><path d="M 274.48 262.04 L 269.25 252.16 L 274.3 254.54 L 279.24 251.93 Z" fill="#b85450" stroke="#b85450" stroke-width="4" stroke-miterlimit="10" pointer-events="all"/><path d="M 252.37 80 L 180.33 250.69" fill="none" stroke="#9673a6" stroke-width="3" stroke-miterlimit="10" pointer-events="stroke"/><path d="M 177.71 256.91 L 177.06 246.87 L 180.33 250.69 L 185.35 250.37 Z" fill="#9673a6" stroke="#9673a6" stroke-width="3" stroke-miterlimit="10" pointer-events="all"/><path d="M 231.21 80 L 57.96 262.18" fill="none" stroke="rgb(0, 0, 0)" stroke-width="3" stroke-miterlimit="10" pointer-events="stroke"/><path d="M 53.31 267.07 L 56.25 257.45 L 57.96 262.18 L 62.77 263.65 Z" fill="rgb(0, 0, 0)" stroke="rgb(0, 0, 0)" stroke-width="3" stroke-miterlimit="10" pointer-events="all"/><image x="229.5" y="-0.5" width="78.5" height="80" xlink:href="file:///Applications/draw.io.app/Contents/Resources/app.asar/img/lib/allied_telesis/computer_and_terminals/Personal_Computer_Wireless.svg"/><path d="M 139.47 80 L 48.59 257.03" fill="none" stroke="rgb(0, 0, 0)" stroke-width="3" stroke-miterlimit="10" pointer-events="stroke"/><path d="M 45.51 263.04 L 45.62 252.97 L 48.59 257.03 L 53.63 257.08 Z" fill="rgb(0, 0, 0)" stroke="rgb(0, 0, 0)" stroke-width="3" stroke-miterlimit="10" pointer-events="all"/><path d="M 160.16 80 L 160.82 249.9" fill="none" stroke="#9673a6" stroke-width="3" stroke-miterlimit="10" pointer-events="stroke"/><path d="M 160.84 256.65 L 156.31 247.66 L 160.82 249.9 L 165.31 247.63 Z" fill="#9673a6" stroke="#9673a6" stroke-width="3" stroke-miterlimit="10" pointer-events="all"/><path d="M 177.55 80 L 256.16 259.23" fill="none" stroke="#b85450" stroke-width="4" stroke-miterlimit="10" pointer-events="stroke"/><path d="M 259.17 266.1 L 250.58 258.95 L 256.16 259.23 L 259.74 254.93 Z" fill="#b85450" stroke="#b85450" stroke-width="4" stroke-miterlimit="10" pointer-events="all"/><image x="119.5" y="-0.5" width="80" height="80" xlink:href="file:///Applications/draw.io.app/Contents/Resources/app.asar/img/lib/allied_telesis/computer_and_terminals/Personal_Computer_with_Server.svg"/><path d="M 42.73 80 L 30.69 256.42" fill="none" stroke="rgb(0, 0, 0)" stroke-width="3" stroke-miterlimit="10" pointer-events="stroke"/><path d="M 30.23 263.15 L 26.35 253.87 L 30.69 256.42 L 35.33 254.48 Z" fill="rgb(0, 0, 0)" stroke="rgb(0, 0, 0)" stroke-width="3" stroke-miterlimit="10" pointer-events="all"/><path d="M 63.47 80 L 140.41 250.79" fill="none" stroke="#9673a6" stroke-width="3" stroke-miterlimit="10" pointer-events="stroke"/><path d="M 143.18 256.94 L 135.38 250.58 L 140.41 250.79 L 143.59 246.89 Z" fill="#9673a6" stroke="#9673a6" stroke-width="3" stroke-miterlimit="10" pointer-events="all"/><path d="M 80.41 80 L 244.55 267.82" fill="none" stroke="#b85450" stroke-width="4" stroke-miterlimit="10" pointer-events="stroke"/><path d="M 249.48 273.47 L 239.14 269.23 L 244.55 267.82 L 246.67 262.65 Z" fill="#b85450" stroke="#b85450" stroke-width="4" stroke-miterlimit="10" pointer-events="all"/><path d="M 43.84 45.05 C 43.41 43.83 43.4 42.69 44.44 41.32 C 45.31 40.31 46.28 39.83 48.47 39.82 C 48.11 38.55 47.87 37.48 48.99 36.4 C 50.45 35.24 51.8 36.24 52.55 37.1 C 53.88 34.85 55.72 33.32 58.62 34.07 C 60.77 34.71 61.48 36.36 61.62 38.22 C 63.28 37.45 65.08 37.3 66.44 38.63 C 68.3 40.34 67.59 42.28 66.77 43.33 C 67.95 43.64 68.97 44.22 68.97 45.05 Z M 21.78 40.59 C 20.14 38.42 19.9 34.62 21.69 32.17 C 23.09 29.97 25.25 28.47 27.81 28.53 C 27.61 26.43 28.04 24.74 30.41 22.88 C 32.06 21.64 34.61 22.03 36.02 23.15 C 38.07 20.34 40.87 18.55 45.5 19.21 C 49.42 19.74 51.82 22.88 52.08 25.25 C 54.64 24.43 57.07 25.05 59.26 26.8 C 61.62 28.64 61.98 30.89 61.92 32.97 C 60.66 31.86 59.13 30.99 56.18 31.33 C 54.29 31.61 52.79 32.54 51.92 33.62 C 50.59 33.01 48.89 33.14 47.54 34.33 C 46 35.59 45.73 36.61 45.68 37.63 C 43.9 37.84 42.6 39.16 41.86 40.59 Z M 11.11 57.27 L 79.5 57.27 L 79.5 11.27 L 11.11 11.27 Z M 16.94 80 L 16.94 74.43 L 28.34 74.43 L 28.34 68.66 L 0 68.66 L 0 0 L 90.91 0 L 90.91 68.66 L 62.41 68.66 L 62.41 74.43 L 73.88 74.43 L 73.88 80 Z" fill="#3b8df1" stroke="none" pointer-events="all"/><rect x="122" y="260" width="78" height="73" fill="none" stroke="none" pointer-events="all"/><path d="M 194.77 289.02 L 188 289.02 L 188 287 C 188 284.78 186.2 282.97 183.98 282.97 L 176.47 282.97 C 174.26 282.97 172.47 284.78 172.47 287 L 172.47 289.02 L 139.71 289.02 C 136.83 289.02 134.5 291.38 134.5 294.28 L 134.5 295.37 L 128.52 295.37 C 127.99 295.37 127.48 295.62 127.14 296.04 C 126.81 296.46 126.68 297.01 126.8 297.54 L 127.72 301.57 L 123.88 301.57 C 123.28 301.57 122.72 301.87 122.39 302.37 C 122.07 302.88 122.02 303.51 122.26 304.06 L 134.63 331.89 C 134.89 332.54 135.52 333 136.27 333 L 198.21 333 C 199.19 333 199.98 332.21 199.98 331.23 L 199.98 294.28 C 199.98 291.38 197.65 289.02 194.77 289.02 Z M 138.04 294.28 C 138.04 293.34 138.78 292.57 139.71 292.57 L 174.24 292.57 C 175.22 292.57 176.01 291.77 176.01 290.8 L 176.01 287 C 176.01 286.72 176.21 286.51 176.47 286.51 L 183.98 286.51 C 184.25 286.51 184.45 286.72 184.45 287 L 184.45 290.8 C 184.45 291.77 185.25 292.57 186.23 292.57 L 194.77 292.57 C 195.69 292.57 196.44 293.34 196.44 294.28 L 196.44 315.44 L 192.2 296.75 C 192.01 295.95 191.29 295.37 190.47 295.37 L 138.04 295.37 Z M 130.74 298.92 L 189.06 298.92 L 192.47 313.94 L 187.44 302.62 C 187.16 301.98 186.52 301.57 185.82 301.57 L 131.35 301.57 Z M 184.67 305.11 L 195.49 329.46 L 137.43 329.46 L 126.6 305.11 Z M 129.85 278.76 L 129.85 281.68 L 133.39 281.68 L 133.39 278.81 L 134.5 278.81 L 134.5 281.68 L 138.04 281.68 L 138.04 278.81 L 139.14 278.81 L 139.14 281.68 L 142.68 281.68 L 142.68 278.76 C 143.48 278.66 144.08 278.05 144.19 277.26 L 147.11 277.26 L 147.11 273.71 L 144.23 273.71 L 144.23 272.61 L 147.11 272.61 L 147.11 269.07 L 144.23 269.07 L 144.23 267.97 L 147.11 267.97 L 147.11 264.42 L 144.19 264.42 C 144.08 263.63 143.48 263.02 142.68 262.92 L 142.68 260 L 139.14 260 L 139.14 262.88 L 138.04 262.88 L 138.04 260 L 134.5 260 L 134.5 262.88 L 133.39 262.88 L 133.39 260 L 129.85 260 L 129.85 262.92 C 129.06 263.02 128.45 263.63 128.35 264.42 L 125.43 264.42 L 125.43 267.97 L 128.3 267.97 L 128.3 269.07 L 125.43 269.07 L 125.43 272.61 L 128.3 272.61 L 128.3 273.71 L 125.43 273.71 L 125.43 277.26 L 128.35 277.26 C 128.45 278.05 129.06 278.66 129.85 278.76 Z M 131.84 275.26 L 131.84 266.42 L 140.69 266.42 L 140.69 275.26 Z M 156.18 278.76 L 156.18 281.68 L 159.72 281.68 L 159.72 278.81 L 160.82 278.81 L 160.82 281.68 L 164.37 281.68 L 164.37 278.81 L 165.47 278.81 L 165.47 281.68 L 169.01 281.68 L 169.01 278.76 C 169.8 278.66 170.41 278.05 170.51 277.26 L 173.43 277.26 L 173.43 273.71 L 170.56 273.71 L 170.56 272.61 L 173.43 272.61 L 173.43 269.07 L 170.56 269.07 L 170.56 267.97 L 173.43 267.97 L 173.43 264.42 L 170.51 264.42 C 170.41 263.63 169.8 263.02 169.01 262.92 L 169.01 260 L 165.47 260 L 165.47 262.88 L 164.37 262.88 L 164.37 260 L 160.82 260 L 160.82 262.88 L 159.72 262.88 L 159.72 260 L 156.18 260 L 156.18 262.92 C 155.38 263.02 154.78 263.63 154.67 264.42 L 151.75 264.42 L 151.75 267.97 L 154.63 267.97 L 154.63 269.07 L 151.75 269.07 L 151.75 272.61 L 154.63 272.61 L 154.63 273.71 L 151.75 273.71 L 151.75 277.26 L 154.67 277.26 C 154.78 278.05 155.38 278.66 156.18 278.76 Z M 158.17 275.26 L 158.17 266.42 L 167.02 266.42 L 167.02 275.26 Z M 182.51 278.76 L 182.51 281.68 L 186.05 281.68 L 186.05 278.81 L 187.15 278.81 L 187.15 281.68 L 190.69 281.68 L 190.69 278.81 L 191.8 278.81 L 191.8 281.68 L 195.34 281.68 L 195.34 278.76 C 196.13 278.66 196.74 278.05 196.84 277.26 L 199.76 277.26 L 199.76 273.71 L 196.89 273.71 L 196.89 272.61 L 199.76 272.61 L 199.76 269.07 L 196.89 269.07 L 196.89 267.97 L 199.76 267.97 L 199.76 264.42 L 196.84 264.42 C 196.74 263.63 196.13 263.02 195.34 262.92 L 195.34 260 L 191.8 260 L 191.8 262.88 L 190.69 262.88 L 190.69 260 L 187.15 260 L 187.15 262.88 L 186.05 262.88 L 186.05 260 L 182.51 260 L 182.51 262.92 C 181.71 263.02 181.1 263.63 181 264.42 L 178.08 264.42 L 178.08 267.97 L 180.96 267.97 L 180.96 269.07 L 178.08 269.07 L 178.08 272.61 L 180.96 272.61 L 180.96 273.71 L 178.08 273.71 L 178.08 277.26 L 181 277.26 C 181.1 278.05 181.71 278.66 182.51 278.76 Z M 184.5 275.26 L 184.5 266.42 L 193.34 266.42 L 193.34 275.26 Z" fill="#6cae3e" stroke="none" pointer-events="all"/><image x="241.85" y="266" width="66.15" height="73.5" xlink:href="file:///Applications/draw.io.app/Contents/Resources/app.asar/img/lib/active_directory/database_cube.svg"/></g></svg>