<!DOCTYPE svg PUBLIC "-//W3C//DTD SVG 1.1//EN" "http://www.w3.org/Graphics/SVG/1.1/DTD/svg11.dtd">
<svg xmlns="http://www.w3.org/2000/svg" xmlns:xlink="http://www.w3.org/1999/xlink" version="1.1" width="672px" height="208px" viewBox="-0.5 -0.5 672 208"><defs><clipPath id="mx-clip-4-131-132-26-0"><rect x="4" y="131" width="132" height="26"/></clipPath><clipPath id="mx-clip-4-157-132-26-0"><rect x="4" y="157" width="132" height="26"/></clipPath><clipPath id="mx-clip-4-183-132-26-0"><rect x="4" y="183" width="132" height="26"/></clipPath><clipPath id="mx-clip-534-131-132-26-0"><rect x="534" y="131" width="132" height="26"/></clipPath><clipPath id="mx-clip-534-157-132-26-0"><rect x="534" y="157" width="132" height="26"/></clipPath><clipPath id="mx-clip-224-5-132-26-0"><rect x="224" y="5" width="132" height="26"/></clipPath><clipPath id="mx-clip-224-25-132-26-0"><rect x="224" y="25" width="132" height="26"/></clipPath><clipPath id="mx-clip-324-85-132-26-0"><rect x="324" y="85" width="132" height="26"/></clipPath></defs><g><ellipse cx="70" cy="60" rx="40" ry="40" fill="#ffffff" stroke="#000000" pointer-events="all"/><path d="M 0 126 L 0 100 L 140 100 L 140 126" fill="#ffffff" stroke="#000000" stroke-miterlimit="10" pointer-events="all"/><path d="M 0 126 L 0 204 L 140 204 L 140 126" fill="none" stroke="#000000" stroke-miterlimit="10" pointer-events="none"/><path d="M 0 126 L 140 126" fill="none" stroke="#000000" stroke-miterlimit="10" pointer-events="none"/><g fill="#000000" font-family="Helvetica" pointer-events="none" text-anchor="middle" font-size="12px"><text x="69.5" y="117.5">BD</text></g><g fill="#000000" font-family="Helvetica" pointer-events="none" clip-path="url(#mx-clip-4-131-132-26-0)" font-size="12px"><text x="5.5" y="143.5">ABC123_CPU%=90</text></g><g fill="#000000" font-family="Helvetica" pointer-events="none" clip-path="url(#mx-clip-4-157-132-26-0)" font-size="12px"><text x="5.5" y="169.5">DEF123_CPU%=37</text></g><g fill="#000000" font-family="Helvetica" pointer-events="none" clip-path="url(#mx-clip-4-183-132-26-0)" font-size="12px"><text x="5.5" y="195.5">ABC456_CPU%=66</text></g><ellipse cx="590" cy="60" rx="40" ry="40" fill="#ffffff" stroke="#000000" pointer-events="none"/><path d="M 530 126 L 530 100 L 670 100 L 670 126" fill="#ffffff" stroke="#000000" stroke-miterlimit="10" pointer-events="none"/><path d="M 530 126 L 530 178 L 670 178 L 670 126" fill="none" stroke="#000000" stroke-miterlimit="10" pointer-events="none"/><path d="M 530 126 L 670 126" fill="none" stroke="#000000" stroke-miterlimit="10" pointer-events="none"/><g fill="#000000" font-family="Helvetica" pointer-events="none" text-anchor="middle" font-size="12px"><text x="599.5" y="117.5">BD</text></g><g fill="#000000" font-family="Helvetica" pointer-events="none" clip-path="url(#mx-clip-534-131-132-26-0)" font-size="12px"><text x="535.5" y="143.5">ABC123_CPU%=90</text></g><g fill="#000000" font-family="Helvetica" pointer-events="none" clip-path="url(#mx-clip-534-157-132-26-0)" font-size="12px"><text x="535.5" y="169.5">HIJ456_CPU%=37</text></g><path d="M 129.5 65 L 129.5 75.5 L 110.5 60 L 129.5 44.5 L 129.5 55 L 530.5 55 L 530.5 44.5 L 549.5 60 L 530.5 75.5 L 530.5 65 Z" fill="none" stroke="#000000" stroke-linejoin="round" stroke-miterlimit="10" pointer-events="none"/><g fill="#000000" font-family="Helvetica" pointer-events="none" clip-path="url(#mx-clip-224-5-132-26-0)" font-size="12px"><text x="225.5" y="17.5">DEF123_CPU%=37</text></g><g fill="#000000" font-family="Helvetica" pointer-events="none" clip-path="url(#mx-clip-224-25-132-26-0)" font-size="12px"><text x="225.5" y="37.5">ABC456_CPU%=66</text></g><path d="M 340.5 25 L 340.5 15 L 380.5 15 L 380.5 4.5 L 399.5 20 L 380.5 35.5 L 380.5 25 Z" fill="none" stroke="#000000" stroke-linejoin="round" stroke-miterlimit="10" pointer-events="none"/><g fill="#000000" font-family="Helvetica" pointer-events="none" clip-path="url(#mx-clip-324-85-132-26-0)" font-size="12px"><text x="325.5" y="97.5">HIJ456_CPU%=37</text></g><path d="M 319.5 87.5 L 319.5 97.5 L 274.5 97.5 L 274.5 108 L 255.5 92.5 L 274.5 77 L 274.5 87.5 Z" fill="none" stroke="#000000" stroke-linejoin="round" stroke-miterlimit="10" pointer-events="none"/></g></svg>