<!DOCTYPE svg PUBLIC "-//W3C//DTD SVG 1.1//EN" "http://www.w3.org/Graphics/SVG/1.1/DTD/svg11.dtd">
<svg xmlns="http://www.w3.org/2000/svg" xmlns:xlink="http://www.w3.org/1999/xlink" version="1.1" width="506px" height="151px" viewBox="-0.5 -0.5 506 151"><defs/><g><ellipse cx="70" cy="80" rx="60" ry="60" fill="#ffffff" stroke="#000000" pointer-events="all"/><path d="M 70 10 Q 70 0 52.5 0 Q 35 0 35 13.63" fill="none" stroke="#82b366" stroke-miterlimit="10" pointer-events="stroke"/><path d="M 35 18.88 L 31.5 11.88 L 35 13.63 L 38.5 11.88 Z" fill="#82b366" stroke="#82b366" stroke-miterlimit="10" pointer-events="all"/><path d="M 70 10 Q 70 0 87.5 0 Q 105 0 105 13.63" fill="none" stroke="#82b366" stroke-miterlimit="10" pointer-events="stroke"/><path d="M 105 18.88 L 101.5 11.88 L 105 13.63 L 108.5 11.88 Z" fill="#82b366" stroke="#82b366" stroke-miterlimit="10" pointer-events="all"/><ellipse cx="70" cy="15" rx="5" ry="5" fill="#ffffff" stroke="#000000" pointer-events="all"/><path d="M 105 30 Q 105 40 87.5 40 Q 70 40 70 26.37" fill="none" stroke="#b85450" stroke-miterlimit="10" pointer-events="stroke"/><path d="M 70 21.12 L 73.5 28.12 L 70 26.37 L 66.5 28.12 Z" fill="#b85450" stroke="#b85450" stroke-miterlimit="10" pointer-events="all"/><ellipse cx="105" cy="25" rx="5" ry="5" fill="#ffffff" stroke="#000000" pointer-events="all"/><path d="M 35 30 Q 35 40 52.5 40 Q 70 40 70 26.37" fill="none" stroke="#b85450" stroke-miterlimit="10" pointer-events="stroke"/><path d="M 70 21.12 L 73.5 28.12 L 70 26.37 L 66.5 28.12 Z" fill="#b85450" stroke="#b85450" stroke-miterlimit="10" pointer-events="all"/><ellipse cx="35" cy="25" rx="5" ry="5" fill="#ffffff" stroke="#000000" pointer-events="all"/><ellipse cx="125" cy="45" rx="5" ry="5" fill="#ffffff" stroke="#000000" pointer-events="all"/><ellipse cx="15" cy="45" rx="5" ry="5" fill="#ffffff" stroke="#000000" pointer-events="all"/><rect x="0" y="70" width="140" height="80" fill="#ffffff" stroke="none" pointer-events="all"/><ellipse cx="250" cy="80" rx="60" ry="60" fill="#ffffff" stroke="#000000" pointer-events="all"/><path d="M 250 10 Q 250 0 232.5 0 Q 215 0 215 13.63" fill="none" stroke="#82b366" stroke-miterlimit="10" pointer-events="stroke"/><path d="M 215 18.88 L 211.5 11.88 L 215 13.63 L 218.5 11.88 Z" fill="#82b366" stroke="#82b366" stroke-miterlimit="10" pointer-events="all"/><path d="M 250 10 Q 250 0 267.5 0 Q 285 0 285 13.63" fill="none" stroke="#82b366" stroke-miterlimit="10" pointer-events="stroke"/><path d="M 285 18.88 L 281.5 11.88 L 285 13.63 L 288.5 11.88 Z" fill="#82b366" stroke="#82b366" stroke-miterlimit="10" pointer-events="all"/><ellipse cx="250" cy="15" rx="5" ry="5" fill="#ffffff" stroke="#000000" pointer-events="all"/><path d="M 285 30 Q 285 40 267.5 40 Q 250 40 250 26.37" fill="none" stroke="#b85450" stroke-miterlimit="10" pointer-events="stroke"/><path d="M 250 21.12 L 253.5 28.12 L 250 26.37 L 246.5 28.12 Z" fill="#b85450" stroke="#b85450" stroke-miterlimit="10" pointer-events="all"/><path d="M 288.54 21.46 Q 305 21.5 305 33.63" fill="none" stroke="#82b366" stroke-miterlimit="10" pointer-events="stroke"/><path d="M 305 38.88 L 301.5 31.88 L 305 33.63 L 308.5 31.88 Z" fill="#82b366" stroke="#82b366" stroke-miterlimit="10" pointer-events="all"/><ellipse cx="285" cy="25" rx="5" ry="5" fill="#ffe6cc" stroke="#d79b00" pointer-events="all"/><path d="M 215 30 Q 215 40 232.5 40 Q 250 40 250 26.37" fill="none" stroke="#b85450" stroke-miterlimit="10" pointer-events="stroke"/><path d="M 250 21.12 L 253.5 28.12 L 250 26.37 L 246.5 28.12 Z" fill="#b85450" stroke="#b85450" stroke-miterlimit="10" pointer-events="all"/><path d="M 211.46 21.46 Q 195 21.5 195 33.63" fill="none" stroke="#82b366" stroke-miterlimit="10" pointer-events="stroke"/><path d="M 195 38.88 L 191.5 31.88 L 195 33.63 L 198.5 31.88 Z" fill="#82b366" stroke="#82b366" stroke-miterlimit="10" pointer-events="all"/><ellipse cx="215" cy="25" rx="5" ry="5" fill="#ffe6cc" stroke="#d79b00" pointer-events="all"/><path d="M 301.46 48.54 Q 285 48.5 285 36.37" fill="none" stroke="#b85450" stroke-miterlimit="10" pointer-events="stroke"/><path d="M 285 31.12 L 288.5 38.12 L 285 36.37 L 281.5 38.12 Z" fill="#b85450" stroke="#b85450" stroke-miterlimit="10" pointer-events="all"/><ellipse cx="305" cy="45" rx="5" ry="5" fill="#ffffff" stroke="#000000" pointer-events="all"/><path d="M 198.54 48.54 Q 215 48.5 215 36.37" fill="none" stroke="#b85450" stroke-miterlimit="10" pointer-events="stroke"/><path d="M 215 31.12 L 218.5 38.12 L 215 36.37 L 211.5 38.12 Z" fill="#b85450" stroke="#b85450" stroke-miterlimit="10" pointer-events="all"/><ellipse cx="195" cy="45" rx="5" ry="5" fill="#ffffff" stroke="#000000" pointer-events="all"/><rect x="180" y="70" width="140" height="80" fill="#ffffff" stroke="none" pointer-events="all"/><ellipse cx="430" cy="80" rx="60" ry="60" fill="#ffffff" stroke="#000000" pointer-events="all"/><path d="M 430 10 Q 430 0 412.5 0 Q 395 0 395 13.63" fill="none" stroke="#82b366" stroke-miterlimit="10" pointer-events="stroke"/><path d="M 395 18.88 L 391.5 11.88 L 395 13.63 L 398.5 11.88 Z" fill="#82b366" stroke="#82b366" stroke-miterlimit="10" pointer-events="all"/><path d="M 430 10 Q 430 0 447.5 0 Q 465 0 465 13.63" fill="none" stroke="#82b366" stroke-miterlimit="10" pointer-events="stroke"/><path d="M 465 18.88 L 461.5 11.88 L 465 13.63 L 468.5 11.88 Z" fill="#82b366" stroke="#82b366" stroke-miterlimit="10" pointer-events="all"/><ellipse cx="430" cy="15" rx="5" ry="5" fill="#ffffff" stroke="#000000" pointer-events="all"/><path d="M 465 30 Q 465 40 447.5 40 Q 430 40 430 26.37" fill="none" stroke="#b85450" stroke-miterlimit="10" pointer-events="stroke"/><path d="M 430 21.12 L 433.5 28.12 L 430 26.37 L 426.5 28.12 Z" fill="#b85450" stroke="#b85450" stroke-miterlimit="10" pointer-events="all"/><path d="M 468.54 21.46 Q 485 21.5 485 33.63" fill="none" stroke="#82b366" stroke-miterlimit="10" pointer-events="stroke"/><path d="M 485 38.88 L 481.5 31.88 L 485 33.63 L 488.5 31.88 Z" fill="#82b366" stroke="#82b366" stroke-miterlimit="10" pointer-events="all"/><ellipse cx="465" cy="25" rx="5" ry="5" fill="#ffe6cc" stroke="#d79b00" pointer-events="all"/><path d="M 395 30 Q 395 40 412.5 40 Q 430 40 430 26.37" fill="none" stroke="#b85450" stroke-miterlimit="10" pointer-events="stroke"/><path d="M 430 21.12 L 433.5 28.12 L 430 26.37 L 426.5 28.12 Z" fill="#b85450" stroke="#b85450" stroke-miterlimit="10" pointer-events="all"/><path d="M 391.46 21.46 Q 375 21.5 375 33.63" fill="none" stroke="#82b366" stroke-miterlimit="10" pointer-events="stroke"/><path d="M 375 38.88 L 371.5 31.88 L 375 33.63 L 378.5 31.88 Z" fill="#82b366" stroke="#82b366" stroke-miterlimit="10" pointer-events="all"/><ellipse cx="395" cy="25" rx="5" ry="5" fill="#ffe6cc" stroke="#d79b00" pointer-events="all"/><path d="M 481.46 48.54 Q 465 48.5 465 36.37" fill="none" stroke="#b85450" stroke-miterlimit="10" pointer-events="stroke"/><path d="M 465 31.12 L 468.5 38.12 L 465 36.37 L 461.5 38.12 Z" fill="#b85450" stroke="#b85450" stroke-miterlimit="10" pointer-events="all"/><path d="M 490 45 Q 500 45 500 53.63" fill="none" stroke="#82b366" stroke-miterlimit="10" pointer-events="stroke"/><path d="M 500 58.88 L 496.5 51.88 L 500 53.63 L 503.5 51.88 Z" fill="#82b366" stroke="#82b366" stroke-miterlimit="10" pointer-events="all"/><path d="M 485 56.37 Q 485 70 500 70" fill="none" stroke="#b85450" stroke-miterlimit="10" pointer-events="stroke"/><path d="M 485 51.12 L 488.5 58.12 L 485 56.37 L 481.5 58.12 Z" fill="#b85450" stroke="#b85450" stroke-miterlimit="10" pointer-events="all"/><ellipse cx="485" cy="45" rx="5" ry="5" fill="#ffe6cc" stroke="#d79b00" pointer-events="all"/><path d="M 378.54 48.54 Q 395 48.5 395 36.37" fill="none" stroke="#b85450" stroke-miterlimit="10" pointer-events="stroke"/><path d="M 395 31.12 L 398.5 38.12 L 395 36.37 L 391.5 38.12 Z" fill="#b85450" stroke="#b85450" stroke-miterlimit="10" pointer-events="all"/><path d="M 371.46 48.54 Q 360 48.5 360 53.63" fill="none" stroke="#82b366" stroke-miterlimit="10" pointer-events="stroke"/><path d="M 360 58.88 L 356.5 51.88 L 360 53.63 L 363.5 51.88 Z" fill="#82b366" stroke="#82b366" stroke-miterlimit="10" pointer-events="all"/><path d="M 375 56.37 Q 375 67.1 364.62 67.12" fill="none" stroke="#b85450" stroke-miterlimit="10" pointer-events="stroke"/><path d="M 375 51.12 L 378.5 58.12 L 375 56.37 L 371.5 58.12 Z" fill="#b85450" stroke="#b85450" stroke-miterlimit="10" pointer-events="all"/><ellipse cx="375" cy="45" rx="5" ry="5" fill="#ffe6cc" stroke="#d79b00" pointer-events="all"/><rect x="360" y="70" width="140" height="80" fill="#ffffff" stroke="none" pointer-events="all"/></g></svg>