<!DOCTYPE svg PUBLIC "-//W3C//DTD SVG 1.1//EN" "http://www.w3.org/Graphics/SVG/1.1/DTD/svg11.dtd">
<svg xmlns="http://www.w3.org/2000/svg" xmlns:xlink="http://www.w3.org/1999/xlink" version="1.1" width="951px" height="672px" viewBox="-0.5 -0.5 951 672"><defs/><g><path d="M 729 87.5 L 873.89 39.2" fill="none" stroke="#000000" stroke-width="3" stroke-miterlimit="10" pointer-events="stroke"/><path d="M 880.3 37.06 L 873.18 44.18 L 873.89 39.2 L 870.34 35.64 Z" fill="#000000" stroke="#000000" stroke-width="3" stroke-miterlimit="10" pointer-events="all"/><path d="M 729 99.64 L 861.35 140.85" fill="none" stroke="#000000" stroke-width="3" stroke-miterlimit="10" pointer-events="stroke"/><path d="M 867.8 142.86 L 857.87 144.48 L 861.35 140.85 L 860.54 135.89 Z" fill="#000000" stroke="#000000" stroke-width="3" stroke-miterlimit="10" pointer-events="all"/><rect x="651" y="61" width="78" height="53" fill="none" stroke="none" pointer-events="all"/><path d="M 729 75.98 C 729 84.54 711.49 91.52 689.75 91.52 C 668.51 91.52 651 84.54 651 75.98 C 651 98.47 651 98.47 651 98.47 C 651 107.03 668.51 114 689.75 114 C 711.49 114 729 107.03 729 98.47 Z M 689.75 91.52 C 711.49 91.52 729 84.54 729 75.98 C 729 67.42 711.49 61 689.75 61 C 668.51 61 651 67.42 651 75.98 C 651 84.54 668.51 91.52 689.75 91.52 Z" fill="#036897" stroke="#ffffff" stroke-width="2" stroke-linejoin="round" stroke-miterlimit="10" pointer-events="all"/><path d="M 681.24 70.09 L 684.43 74.91 L 672.24 77.59 L 674.88 75.45 L 655.78 72.24 L 660.55 68.48 L 678.6 71.7 Z M 698.23 81.88 L 696.11 77.06 L 706.71 74.91 L 705.12 76.51 L 723.17 79.73 L 718.92 82.94 L 700.89 79.73 Z M 691.86 67.42 L 704.6 64.21 L 704.6 69.56 L 701.41 68.48 L 695.57 73.85 L 689.75 72.77 L 696.11 67.95 Z M 687.09 86.7 L 674.88 88.83 L 674.88 83.48 L 678.06 84.01 L 684.43 78.67 L 690.27 79.2 L 683.38 85.62 Z M 688.15 102.76 L 699.3 102.76 L 699.3 104.36 L 703.53 101.68 L 699.3 99 L 699.3 100.61 L 688.15 100.61 Z M 687.61 99.55 L 698.23 95.26 L 699.3 97.39 L 701.94 93.12 L 697.16 92.05 L 697.7 93.65 L 687.09 97.94 Z M 687.61 103.82 L 698.23 107.58 L 699.3 105.97 L 701.94 110.24 L 697.16 111.32 L 697.7 109.71 L 687.09 105.42 Z M 670.1 102.76 L 681.24 102.76 L 681.24 104.36 L 685.5 101.68 L 681.24 99 L 681.24 100.61 L 670.1 100.61 Z" fill="#ffffff" stroke="none" pointer-events="all"/><path d="M 51 285 L 191.9 285" fill="none" stroke="#000000" stroke-width="3" stroke-miterlimit="10" pointer-events="stroke"/><path d="M 198.65 285 L 189.65 289.5 L 191.9 285 L 189.65 280.5 Z" fill="#000000" stroke="#000000" stroke-width="3" stroke-miterlimit="10" pointer-events="all"/><rect x="1" y="250" width="50" height="70" fill="none" stroke="none" pointer-events="all"/><path d="M 39.83 261.49 L 21.21 261.49 L 21.21 317.4 L 39.83 317.4 Z M 51 250 L 39.83 261.49 L 39.83 317.4 L 51 304.33 Z M 20.69 261.49 C 20.69 261.49 15.36 264.62 8.98 264.11 C 1 263.57 1 263.57 1 263.57 C 1 318.97 1 318.97 1 318.97 C 8.98 319.48 8.98 319.48 8.98 319.48 C 16.95 320 21.21 317.4 21.21 317.4 Z" fill="#036897" stroke="#ffffff" stroke-width="2" stroke-linejoin="round" stroke-miterlimit="10" pointer-events="all"/><rect x="1" y="250" width="0" height="0" fill="none" stroke="#ffffff" stroke-width="2" pointer-events="all"/><path d="M 23.88 269.33 L 37.17 269.33 L 37.17 281.87 L 23.88 281.87 Z" fill="none" stroke="#ffffff" stroke-width="2" stroke-miterlimit="10" pointer-events="all"/><path d="M 4.73 260.97 L 20.14 260.97 M 23.34 259.4 L 30.26 251.57" fill="none" stroke="#ffffff" stroke-width="2" stroke-linejoin="round" stroke-miterlimit="10" pointer-events="all"/><path d="M 20.14 262.01 C 20.14 262.01 20.14 265.67 13.24 265.67 C 1.54 264.11 1.54 264.11 1.54 264.11 C 1.54 263.06 1.54 263.06 1.54 263.06 C 18.55 250 18.55 250 18.55 250 C 51 250 51 250 51 250 C 39.83 261.49 39.83 261.49 39.83 261.49 C 21.21 261.49 21.21 261.49 21.21 261.49" fill="#036897" stroke="#ffffff" stroke-width="2" stroke-linejoin="round" stroke-miterlimit="10" pointer-events="all"/><path d="M 4.73 260.97 L 20.14 260.97 M 24.93 258.87 L 33.45 251.03" fill="none" stroke="#ffffff" stroke-width="2" stroke-linejoin="round" stroke-miterlimit="10" pointer-events="all"/><rect x="871" y="1" width="78" height="70" fill="none" stroke="none" pointer-events="all"/><rect x="871" y="1" width="0" height="0" fill="none" stroke="#ffffff" stroke-width="2" pointer-events="all"/><path d="M 937.86 60.93 L 937.86 48.2 L 871 48.2 L 871 60.93 Z" fill="#036897" stroke="#ffffff" stroke-width="2" stroke-linejoin="round" stroke-miterlimit="10" pointer-events="all"/><path d="M 917.16 55.09 L 934.13 55.09" fill="none" stroke="#ffffff" stroke-width="2" stroke-linejoin="round" stroke-miterlimit="10" pointer-events="all"/><path d="M 949 37.59 L 882.14 37.59 L 871 48.2 L 937.86 48.2 Z" fill="#036897" stroke="#ffffff" stroke-width="2" stroke-linejoin="round" stroke-miterlimit="10" pointer-events="all"/><path d="M 949 48.73 L 949 37.59 L 937.86 48.2 L 937.86 60.93 Z M 926.17 71 L 926.17 68.34 L 932.02 59.86 L 932.02 65.16 Z M 926.17 68.34 L 926.17 71 L 872.59 71 L 872.59 68.34 Z M 926.17 68.34 L 872.59 68.34 L 878.42 59.86 L 932.02 59.86 Z M 928.83 41.84 L 928.83 8.43 L 883.19 8.43 L 883.19 41.84 Z" fill="#036897" stroke="#ffffff" stroke-width="2" stroke-linejoin="round" stroke-miterlimit="10" pointer-events="all"/><path d="M 886.92 15.84 C 886.92 12.14 890.1 11.61 890.1 11.61 C 890.1 11.61 917.69 11.61 920.87 11.61 C 925.12 11.61 925.12 15.84 925.12 15.84 C 925.12 15.84 925.12 32.29 925.12 34.93 C 925.12 37.07 921.4 38.12 921.4 38.12 C 921.4 38.12 893.81 38.12 890.63 38.12 C 887.97 38.12 886.92 34.93 886.92 34.93 Z" fill="none" stroke="#ffffff" stroke-width="2" stroke-linejoin="round" stroke-miterlimit="10" pointer-events="all"/><path d="M 936.79 1 L 890.63 1 L 883.19 8.43 L 928.83 8.43 Z" fill="#036897" stroke="#ffffff" stroke-width="2" stroke-linejoin="round" stroke-miterlimit="10" pointer-events="all"/><path d="M 936.79 34.93 L 936.79 1 L 928.83 8.43 L 928.83 41.84 Z" fill="#036897" stroke="#ffffff" stroke-width="2" stroke-linejoin="round" stroke-miterlimit="10" pointer-events="all"/><rect x="871" y="121" width="78" height="70" fill="none" stroke="none" pointer-events="all"/><rect x="871" y="121" width="0" height="0" fill="none" stroke="#ffffff" stroke-width="2" pointer-events="all"/><path d="M 937.86 180.93 L 937.86 168.2 L 871 168.2 L 871 180.93 Z" fill="#036897" stroke="#ffffff" stroke-width="2" stroke-linejoin="round" stroke-miterlimit="10" pointer-events="all"/><path d="M 917.16 175.09 L 934.13 175.09" fill="none" stroke="#ffffff" stroke-width="2" stroke-linejoin="round" stroke-miterlimit="10" pointer-events="all"/><path d="M 949 157.59 L 882.14 157.59 L 871 168.2 L 937.86 168.2 Z" fill="#036897" stroke="#ffffff" stroke-width="2" stroke-linejoin="round" stroke-miterlimit="10" pointer-events="all"/><path d="M 949 168.73 L 949 157.59 L 937.86 168.2 L 937.86 180.93 Z M 926.17 191 L 926.17 188.34 L 932.02 179.86 L 932.02 185.16 Z M 926.17 188.34 L 926.17 191 L 872.59 191 L 872.59 188.34 Z M 926.17 188.34 L 872.59 188.34 L 878.42 179.86 L 932.02 179.86 Z M 928.83 161.84 L 928.83 128.43 L 883.19 128.43 L 883.19 161.84 Z" fill="#036897" stroke="#ffffff" stroke-width="2" stroke-linejoin="round" stroke-miterlimit="10" pointer-events="all"/><path d="M 886.92 135.84 C 886.92 132.14 890.1 131.61 890.1 131.61 C 890.1 131.61 917.69 131.61 920.87 131.61 C 925.12 131.61 925.12 135.84 925.12 135.84 C 925.12 135.84 925.12 152.29 925.12 154.93 C 925.12 157.07 921.4 158.12 921.4 158.12 C 921.4 158.12 893.81 158.12 890.63 158.12 C 887.97 158.12 886.92 154.93 886.92 154.93 Z" fill="none" stroke="#ffffff" stroke-width="2" stroke-linejoin="round" stroke-miterlimit="10" pointer-events="all"/><path d="M 936.79 121 L 890.63 121 L 883.19 128.43 L 928.83 128.43 Z" fill="#036897" stroke="#ffffff" stroke-width="2" stroke-linejoin="round" stroke-miterlimit="10" pointer-events="all"/><path d="M 936.79 154.93 L 936.79 121 L 928.83 128.43 L 928.83 161.84 Z" fill="#036897" stroke="#ffffff" stroke-width="2" stroke-linejoin="round" stroke-miterlimit="10" pointer-events="all"/><rect x="871" y="241" width="78" height="70" fill="none" stroke="none" pointer-events="all"/><rect x="871" y="241" width="0" height="0" fill="none" stroke="#ffffff" stroke-width="2" pointer-events="all"/><path d="M 937.86 300.93 L 937.86 288.2 L 871 288.2 L 871 300.93 Z" fill="#036897" stroke="#ffffff" stroke-width="2" stroke-linejoin="round" stroke-miterlimit="10" pointer-events="all"/><path d="M 917.16 295.09 L 934.13 295.09" fill="none" stroke="#ffffff" stroke-width="2" stroke-linejoin="round" stroke-miterlimit="10" pointer-events="all"/><path d="M 949 277.59 L 882.14 277.59 L 871 288.2 L 937.86 288.2 Z" fill="#036897" stroke="#ffffff" stroke-width="2" stroke-linejoin="round" stroke-miterlimit="10" pointer-events="all"/><path d="M 949 288.73 L 949 277.59 L 937.86 288.2 L 937.86 300.93 Z M 926.17 311 L 926.17 308.34 L 932.02 299.86 L 932.02 305.16 Z M 926.17 308.34 L 926.17 311 L 872.59 311 L 872.59 308.34 Z M 926.17 308.34 L 872.59 308.34 L 878.42 299.86 L 932.02 299.86 Z M 928.83 281.84 L 928.83 248.43 L 883.19 248.43 L 883.19 281.84 Z" fill="#036897" stroke="#ffffff" stroke-width="2" stroke-linejoin="round" stroke-miterlimit="10" pointer-events="all"/><path d="M 886.92 255.84 C 886.92 252.14 890.1 251.61 890.1 251.61 C 890.1 251.61 917.69 251.61 920.87 251.61 C 925.12 251.61 925.12 255.84 925.12 255.84 C 925.12 255.84 925.12 272.29 925.12 274.93 C 925.12 277.07 921.4 278.12 921.4 278.12 C 921.4 278.12 893.81 278.12 890.63 278.12 C 887.97 278.12 886.92 274.93 886.92 274.93 Z" fill="none" stroke="#ffffff" stroke-width="2" stroke-linejoin="round" stroke-miterlimit="10" pointer-events="all"/><path d="M 936.79 241 L 890.63 241 L 883.19 248.43 L 928.83 248.43 Z" fill="#036897" stroke="#ffffff" stroke-width="2" stroke-linejoin="round" stroke-miterlimit="10" pointer-events="all"/><path d="M 936.79 274.93 L 936.79 241 L 928.83 248.43 L 928.83 281.84 Z" fill="#036897" stroke="#ffffff" stroke-width="2" stroke-linejoin="round" stroke-miterlimit="10" pointer-events="all"/><rect x="871" y="361" width="78" height="70" fill="none" stroke="none" pointer-events="all"/><rect x="871" y="361" width="0" height="0" fill="none" stroke="#ffffff" stroke-width="2" pointer-events="all"/><path d="M 937.86 420.93 L 937.86 408.2 L 871 408.2 L 871 420.93 Z" fill="#036897" stroke="#ffffff" stroke-width="2" stroke-linejoin="round" stroke-miterlimit="10" pointer-events="all"/><path d="M 917.16 415.09 L 934.13 415.09" fill="none" stroke="#ffffff" stroke-width="2" stroke-linejoin="round" stroke-miterlimit="10" pointer-events="all"/><path d="M 949 397.59 L 882.14 397.59 L 871 408.2 L 937.86 408.2 Z" fill="#036897" stroke="#ffffff" stroke-width="2" stroke-linejoin="round" stroke-miterlimit="10" pointer-events="all"/><path d="M 949 408.73 L 949 397.59 L 937.86 408.2 L 937.86 420.93 Z M 926.17 431 L 926.17 428.34 L 932.02 419.86 L 932.02 425.16 Z M 926.17 428.34 L 926.17 431 L 872.59 431 L 872.59 428.34 Z M 926.17 428.34 L 872.59 428.34 L 878.42 419.86 L 932.02 419.86 Z M 928.83 401.84 L 928.83 368.43 L 883.19 368.43 L 883.19 401.84 Z" fill="#036897" stroke="#ffffff" stroke-width="2" stroke-linejoin="round" stroke-miterlimit="10" pointer-events="all"/><path d="M 886.92 375.84 C 886.92 372.14 890.1 371.61 890.1 371.61 C 890.1 371.61 917.69 371.61 920.87 371.61 C 925.12 371.61 925.12 375.84 925.12 375.84 C 925.12 375.84 925.12 392.29 925.12 394.93 C 925.12 397.07 921.4 398.12 921.4 398.12 C 921.4 398.12 893.81 398.12 890.63 398.12 C 887.97 398.12 886.92 394.93 886.92 394.93 Z" fill="none" stroke="#ffffff" stroke-width="2" stroke-linejoin="round" stroke-miterlimit="10" pointer-events="all"/><path d="M 936.79 361 L 890.63 361 L 883.19 368.43 L 928.83 368.43 Z" fill="#036897" stroke="#ffffff" stroke-width="2" stroke-linejoin="round" stroke-miterlimit="10" pointer-events="all"/><path d="M 936.79 394.93 L 936.79 361 L 928.83 368.43 L 928.83 401.84 Z" fill="#036897" stroke="#ffffff" stroke-width="2" stroke-linejoin="round" stroke-miterlimit="10" pointer-events="all"/><rect x="871" y="481" width="78" height="70" fill="none" stroke="none" pointer-events="all"/><rect x="871" y="481" width="0" height="0" fill="none" stroke="#ffffff" stroke-width="2" pointer-events="all"/><path d="M 937.86 540.93 L 937.86 528.2 L 871 528.2 L 871 540.93 Z" fill="#036897" stroke="#ffffff" stroke-width="2" stroke-linejoin="round" stroke-miterlimit="10" pointer-events="all"/><path d="M 917.16 535.09 L 934.13 535.09" fill="none" stroke="#ffffff" stroke-width="2" stroke-linejoin="round" stroke-miterlimit="10" pointer-events="all"/><path d="M 949 517.59 L 882.14 517.59 L 871 528.2 L 937.86 528.2 Z" fill="#036897" stroke="#ffffff" stroke-width="2" stroke-linejoin="round" stroke-miterlimit="10" pointer-events="all"/><path d="M 949 528.73 L 949 517.59 L 937.86 528.2 L 937.86 540.93 Z M 926.17 551 L 926.17 548.34 L 932.02 539.86 L 932.02 545.16 Z M 926.17 548.34 L 926.17 551 L 872.59 551 L 872.59 548.34 Z M 926.17 548.34 L 872.59 548.34 L 878.42 539.86 L 932.02 539.86 Z M 928.83 521.84 L 928.83 488.43 L 883.19 488.43 L 883.19 521.84 Z" fill="#036897" stroke="#ffffff" stroke-width="2" stroke-linejoin="round" stroke-miterlimit="10" pointer-events="all"/><path d="M 886.92 495.84 C 886.92 492.14 890.1 491.61 890.1 491.61 C 890.1 491.61 917.69 491.61 920.87 491.61 C 925.12 491.61 925.12 495.84 925.12 495.84 C 925.12 495.84 925.12 512.29 925.12 514.93 C 925.12 517.07 921.4 518.12 921.4 518.12 C 921.4 518.12 893.81 518.12 890.63 518.12 C 887.97 518.12 886.92 514.93 886.92 514.93 Z" fill="none" stroke="#ffffff" stroke-width="2" stroke-linejoin="round" stroke-miterlimit="10" pointer-events="all"/><path d="M 936.79 481 L 890.63 481 L 883.19 488.43 L 928.83 488.43 Z" fill="#036897" stroke="#ffffff" stroke-width="2" stroke-linejoin="round" stroke-miterlimit="10" pointer-events="all"/><path d="M 936.79 514.93 L 936.79 481 L 928.83 488.43 L 928.83 521.84 Z" fill="#036897" stroke="#ffffff" stroke-width="2" stroke-linejoin="round" stroke-miterlimit="10" pointer-events="all"/><rect x="871" y="601" width="78" height="70" fill="none" stroke="none" pointer-events="all"/><rect x="871" y="601" width="0" height="0" fill="none" stroke="#ffffff" stroke-width="2" pointer-events="all"/><path d="M 937.86 660.93 L 937.86 648.2 L 871 648.2 L 871 660.93 Z" fill="#036897" stroke="#ffffff" stroke-width="2" stroke-linejoin="round" stroke-miterlimit="10" pointer-events="all"/><path d="M 917.16 655.09 L 934.13 655.09" fill="none" stroke="#ffffff" stroke-width="2" stroke-linejoin="round" stroke-miterlimit="10" pointer-events="all"/><path d="M 949 637.59 L 882.14 637.59 L 871 648.2 L 937.86 648.2 Z" fill="#036897" stroke="#ffffff" stroke-width="2" stroke-linejoin="round" stroke-miterlimit="10" pointer-events="all"/><path d="M 949 648.73 L 949 637.59 L 937.86 648.2 L 937.86 660.93 Z M 926.17 671 L 926.17 668.34 L 932.02 659.86 L 932.02 665.16 Z M 926.17 668.34 L 926.17 671 L 872.59 671 L 872.59 668.34 Z M 926.17 668.34 L 872.59 668.34 L 878.42 659.86 L 932.02 659.86 Z M 928.83 641.84 L 928.83 608.43 L 883.19 608.43 L 883.19 641.84 Z" fill="#036897" stroke="#ffffff" stroke-width="2" stroke-linejoin="round" stroke-miterlimit="10" pointer-events="all"/><path d="M 886.92 615.84 C 886.92 612.14 890.1 611.61 890.1 611.61 C 890.1 611.61 917.69 611.61 920.87 611.61 C 925.12 611.61 925.12 615.84 925.12 615.84 C 925.12 615.84 925.12 632.29 925.12 634.93 C 925.12 637.07 921.4 638.12 921.4 638.12 C 921.4 638.12 893.81 638.12 890.63 638.12 C 887.97 638.12 886.92 634.93 886.92 634.93 Z" fill="none" stroke="#ffffff" stroke-width="2" stroke-linejoin="round" stroke-miterlimit="10" pointer-events="all"/><path d="M 936.79 601 L 890.63 601 L 883.19 608.43 L 928.83 608.43 Z" fill="#036897" stroke="#ffffff" stroke-width="2" stroke-linejoin="round" stroke-miterlimit="10" pointer-events="all"/><path d="M 936.79 634.93 L 936.79 601 L 928.83 608.43 L 928.83 641.84 Z" fill="#036897" stroke="#ffffff" stroke-width="2" stroke-linejoin="round" stroke-miterlimit="10" pointer-events="all"/><path d="M 753 273.6 L 860.9 275.25" fill="none" stroke="#000000" stroke-width="3" stroke-miterlimit="10" pointer-events="stroke"/><path d="M 867.65 275.35 L 858.58 279.71 L 860.9 275.25 L 858.72 270.71 Z" fill="#000000" stroke="#000000" stroke-width="3" stroke-miterlimit="10" pointer-events="all"/><rect x="675" y="246.5" width="78" height="53" fill="none" stroke="none" pointer-events="all"/><path d="M 753 261.48 C 753 270.04 735.49 277.02 713.75 277.02 C 692.51 277.02 675 270.04 675 261.48 C 675 283.97 675 283.97 675 283.97 C 675 292.53 692.51 299.5 713.75 299.5 C 735.49 299.5 753 292.53 753 283.97 Z M 713.75 277.02 C 735.49 277.02 753 270.04 753 261.48 C 753 252.92 735.49 246.5 713.75 246.5 C 692.51 246.5 675 252.92 675 261.48 C 675 270.04 692.51 277.02 713.75 277.02 Z" fill="#036897" stroke="#ffffff" stroke-width="2" stroke-linejoin="round" stroke-miterlimit="10" pointer-events="all"/><path d="M 705.24 255.59 L 708.43 260.41 L 696.24 263.09 L 698.88 260.95 L 679.78 257.74 L 684.55 253.98 L 702.6 257.2 Z M 722.23 267.38 L 720.11 262.56 L 730.71 260.41 L 729.12 262.01 L 747.17 265.23 L 742.92 268.44 L 724.89 265.23 Z M 715.86 252.92 L 728.6 249.71 L 728.6 255.06 L 725.41 253.98 L 719.57 259.35 L 713.75 258.27 L 720.11 253.45 Z M 711.09 272.2 L 698.88 274.33 L 698.88 268.98 L 702.06 269.51 L 708.43 264.17 L 714.27 264.7 L 707.38 271.12 Z M 712.15 288.26 L 723.3 288.26 L 723.3 289.86 L 727.53 287.18 L 723.3 284.5 L 723.3 286.11 L 712.15 286.11 Z M 711.61 285.05 L 722.23 280.76 L 723.3 282.89 L 725.94 278.62 L 721.16 277.55 L 721.7 279.15 L 711.09 283.44 Z M 711.61 289.32 L 722.23 293.08 L 723.3 291.47 L 725.94 295.74 L 721.16 296.82 L 721.7 295.21 L 711.09 290.92 Z M 694.1 288.26 L 705.24 288.26 L 705.24 289.86 L 709.5 287.18 L 705.24 284.5 L 705.24 286.11 L 694.1 286.11 Z" fill="#ffffff" stroke="none" pointer-events="all"/><path d="M 747 491.22 L 862.28 423.88" fill="none" stroke="#000000" stroke-width="3" stroke-miterlimit="10" pointer-events="stroke"/><path d="M 868.1 420.47 L 862.6 428.9 L 862.28 423.88 L 858.06 421.13 Z" fill="#000000" stroke="#000000" stroke-width="3" stroke-miterlimit="10" pointer-events="all"/><path d="M 747 514.39 L 860.9 515.51" fill="none" stroke="#000000" stroke-width="3" stroke-miterlimit="10" pointer-events="stroke"/><path d="M 867.65 515.58 L 858.6 519.99 L 860.9 515.51 L 858.69 510.99 Z" fill="#000000" stroke="#000000" stroke-width="3" stroke-miterlimit="10" pointer-events="all"/><path d="M 747 537.55 L 862.35 607.22" fill="none" stroke="#000000" stroke-width="3" stroke-miterlimit="10" pointer-events="stroke"/><path d="M 868.13 610.71 L 858.1 609.91 L 862.35 607.22 L 862.75 602.21 Z" fill="#000000" stroke="#000000" stroke-width="3" stroke-miterlimit="10" pointer-events="all"/><rect x="669" y="487.5" width="78" height="53" fill="none" stroke="none" pointer-events="all"/><path d="M 747 502.48 C 747 511.04 729.49 518.02 707.75 518.02 C 686.51 518.02 669 511.04 669 502.48 C 669 524.97 669 524.97 669 524.97 C 669 533.53 686.51 540.5 707.75 540.5 C 729.49 540.5 747 533.53 747 524.97 Z M 707.75 518.02 C 729.49 518.02 747 511.04 747 502.48 C 747 493.92 729.49 487.5 707.75 487.5 C 686.51 487.5 669 493.92 669 502.48 C 669 511.04 686.51 518.02 707.75 518.02 Z" fill="#036897" stroke="#ffffff" stroke-width="2" stroke-linejoin="round" stroke-miterlimit="10" pointer-events="all"/><path d="M 699.24 496.59 L 702.43 501.41 L 690.24 504.09 L 692.88 501.95 L 673.78 498.74 L 678.55 494.98 L 696.6 498.2 Z M 716.23 508.38 L 714.11 503.56 L 724.71 501.41 L 723.12 503.01 L 741.17 506.23 L 736.92 509.44 L 718.89 506.23 Z M 709.86 493.92 L 722.6 490.71 L 722.6 496.06 L 719.41 494.98 L 713.57 500.35 L 707.75 499.27 L 714.11 494.45 Z M 705.09 513.2 L 692.88 515.33 L 692.88 509.98 L 696.06 510.51 L 702.43 505.17 L 708.27 505.7 L 701.38 512.12 Z M 706.15 529.26 L 717.3 529.26 L 717.3 530.86 L 721.53 528.18 L 717.3 525.5 L 717.3 527.11 L 706.15 527.11 Z M 705.61 526.05 L 716.23 521.76 L 717.3 523.89 L 719.94 519.62 L 715.16 518.55 L 715.7 520.15 L 705.09 524.44 Z M 705.61 530.32 L 716.23 534.08 L 717.3 532.47 L 719.94 536.74 L 715.16 537.82 L 715.7 536.21 L 705.09 531.92 Z M 688.1 529.26 L 699.24 529.26 L 699.24 530.86 L 703.5 528.18 L 699.24 525.5 L 699.24 527.11 L 688.1 527.11 Z" fill="#ffffff" stroke="none" pointer-events="all"/><path d="M 499 407.39 L 660 489.52" fill="none" stroke="#000000" stroke-width="3" stroke-miterlimit="10" pointer-events="stroke"/><path d="M 666.01 492.58 L 655.95 492.5 L 660 489.52 L 660.04 484.48 Z" fill="#000000" stroke="#000000" stroke-width="3" stroke-miterlimit="10" pointer-events="all"/><rect x="421" y="361" width="78" height="53" fill="none" stroke="none" pointer-events="all"/><path d="M 499 375.98 C 499 384.54 481.49 391.52 459.75 391.52 C 438.51 391.52 421 384.54 421 375.98 C 421 398.47 421 398.47 421 398.47 C 421 407.03 438.51 414 459.75 414 C 481.49 414 499 407.03 499 398.47 Z M 459.75 391.52 C 481.49 391.52 499 384.54 499 375.98 C 499 367.42 481.49 361 459.75 361 C 438.51 361 421 367.42 421 375.98 C 421 384.54 438.51 391.52 459.75 391.52 Z" fill="#036897" stroke="#ffffff" stroke-width="2" stroke-linejoin="round" stroke-miterlimit="10" pointer-events="all"/><path d="M 451.24 370.09 L 454.43 374.91 L 442.24 377.59 L 444.88 375.45 L 425.78 372.24 L 430.55 368.48 L 448.6 371.7 Z M 468.23 381.88 L 466.11 377.06 L 476.71 374.91 L 475.12 376.51 L 493.17 379.73 L 488.92 382.94 L 470.89 379.73 Z M 461.86 367.42 L 474.6 364.21 L 474.6 369.56 L 471.41 368.48 L 465.57 373.85 L 459.75 372.77 L 466.11 367.95 Z M 457.09 386.7 L 444.88 388.83 L 444.88 383.48 L 448.06 384.01 L 454.43 378.67 L 460.27 379.2 L 453.38 385.62 Z M 458.15 402.76 L 469.3 402.76 L 469.3 404.36 L 473.53 401.68 L 469.3 399 L 469.3 400.61 L 458.15 400.61 Z M 457.61 399.55 L 468.23 395.26 L 469.3 397.39 L 471.94 393.12 L 467.16 392.05 L 467.7 393.65 L 457.09 397.94 Z M 457.61 403.82 L 468.23 407.58 L 469.3 405.97 L 471.94 410.24 L 467.16 411.32 L 467.7 409.71 L 457.09 405.42 Z M 440.1 402.76 L 451.24 402.76 L 451.24 404.36 L 455.5 401.68 L 451.24 399 L 451.24 400.61 L 440.1 400.61 Z" fill="#ffffff" stroke="none" pointer-events="all"/><path d="M 499 148.78 L 641.63 91.28" fill="none" stroke="#000000" stroke-width="3" stroke-miterlimit="10" pointer-events="stroke"/><path d="M 647.89 88.75 L 641.22 96.29 L 641.63 91.28 L 637.86 87.95 Z" fill="#000000" stroke="#000000" stroke-width="3" stroke-miterlimit="10" pointer-events="all"/><path d="M 499 181.16 L 665.71 252.37" fill="none" stroke="#000000" stroke-width="3" stroke-miterlimit="10" pointer-events="stroke"/><path d="M 671.92 255.02 L 661.87 255.63 L 665.71 252.37 L 665.41 247.35 Z" fill="#000000" stroke="#000000" stroke-width="3" stroke-miterlimit="10" pointer-events="all"/><rect x="421" y="138" width="78" height="53" fill="none" stroke="none" pointer-events="all"/><path d="M 499 152.98 C 499 161.54 481.49 168.52 459.75 168.52 C 438.51 168.52 421 161.54 421 152.98 C 421 175.47 421 175.47 421 175.47 C 421 184.03 438.51 191 459.75 191 C 481.49 191 499 184.03 499 175.47 Z M 459.75 168.52 C 481.49 168.52 499 161.54 499 152.98 C 499 144.42 481.49 138 459.75 138 C 438.51 138 421 144.42 421 152.98 C 421 161.54 438.51 168.52 459.75 168.52 Z" fill="#036897" stroke="#ffffff" stroke-width="2" stroke-linejoin="round" stroke-miterlimit="10" pointer-events="all"/><path d="M 451.24 147.09 L 454.43 151.91 L 442.24 154.59 L 444.88 152.45 L 425.78 149.24 L 430.55 145.48 L 448.6 148.7 Z M 468.23 158.88 L 466.11 154.06 L 476.71 151.91 L 475.12 153.51 L 493.17 156.73 L 488.92 159.94 L 470.89 156.73 Z M 461.86 144.42 L 474.6 141.21 L 474.6 146.56 L 471.41 145.48 L 465.57 150.85 L 459.75 149.77 L 466.11 144.95 Z M 457.09 163.7 L 444.88 165.83 L 444.88 160.48 L 448.06 161.01 L 454.43 155.67 L 460.27 156.2 L 453.38 162.62 Z M 458.15 179.76 L 469.3 179.76 L 469.3 181.36 L 473.53 178.68 L 469.3 176 L 469.3 177.61 L 458.15 177.61 Z M 457.61 176.55 L 468.23 172.26 L 469.3 174.39 L 471.94 170.12 L 467.16 169.05 L 467.7 170.65 L 457.09 174.94 Z M 457.61 180.82 L 468.23 184.58 L 469.3 182.97 L 471.94 187.24 L 467.16 188.32 L 467.7 186.71 L 457.09 182.42 Z M 440.1 179.76 L 451.24 179.76 L 451.24 181.36 L 455.5 178.68 L 451.24 176 L 451.24 177.61 L 440.1 177.61 Z" fill="#ffffff" stroke="none" pointer-events="all"/><path d="M 280 268.26 L 450.72 194.99" fill="none" stroke="#000000" stroke-width="3" stroke-miterlimit="10" pointer-events="stroke"/><path d="M 456.92 192.32 L 450.42 200.01 L 450.72 194.99 L 446.87 191.74 Z" fill="#000000" stroke="#000000" stroke-width="3" stroke-miterlimit="10" pointer-events="all"/><path d="M 280 303.25 L 411.85 364.96" fill="none" stroke="#000000" stroke-width="3" stroke-miterlimit="10" pointer-events="stroke"/><path d="M 417.96 367.82 L 407.9 368.09 L 411.85 364.96 L 411.72 359.93 Z" fill="#000000" stroke="#000000" stroke-width="3" stroke-miterlimit="10" pointer-events="all"/><rect x="202" y="258.5" width="78" height="53" fill="none" stroke="none" pointer-events="all"/><path d="M 280 273.48 C 280 282.04 262.49 289.02 240.75 289.02 C 219.51 289.02 202 282.04 202 273.48 C 202 295.97 202 295.97 202 295.97 C 202 304.53 219.51 311.5 240.75 311.5 C 262.49 311.5 280 304.53 280 295.97 Z M 240.75 289.02 C 262.49 289.02 280 282.04 280 273.48 C 280 264.92 262.49 258.5 240.75 258.5 C 219.51 258.5 202 264.92 202 273.48 C 202 282.04 219.51 289.02 240.75 289.02 Z" fill="#036897" stroke="#ffffff" stroke-width="2" stroke-linejoin="round" stroke-miterlimit="10" pointer-events="all"/><path d="M 232.24 267.59 L 235.43 272.41 L 223.24 275.09 L 225.88 272.95 L 206.78 269.74 L 211.55 265.98 L 229.6 269.2 Z M 249.23 279.38 L 247.11 274.56 L 257.71 272.41 L 256.12 274.01 L 274.17 277.23 L 269.92 280.44 L 251.89 277.23 Z M 242.86 264.92 L 255.6 261.71 L 255.6 267.06 L 252.41 265.98 L 246.57 271.35 L 240.75 270.27 L 247.11 265.45 Z M 238.09 284.2 L 225.88 286.33 L 225.88 280.98 L 229.06 281.51 L 235.43 276.17 L 241.27 276.7 L 234.38 283.12 Z M 239.15 300.26 L 250.3 300.26 L 250.3 301.86 L 254.53 299.18 L 250.3 296.5 L 250.3 298.11 L 239.15 298.11 Z M 238.61 297.05 L 249.23 292.76 L 250.3 294.89 L 252.94 290.62 L 248.16 289.55 L 248.7 291.15 L 238.09 295.44 Z M 238.61 301.32 L 249.23 305.08 L 250.3 303.47 L 252.94 307.74 L 248.16 308.82 L 248.7 307.21 L 238.09 302.92 Z M 221.1 300.26 L 232.24 300.26 L 232.24 301.86 L 236.5 299.18 L 232.24 296.5 L 232.24 298.11 L 221.1 298.11 Z" fill="#ffffff" stroke="none" pointer-events="all"/><path d="M 53.5 302 L 53.5 292 L 179.79 292 Q 182.21 292 184.37 293.11 L 442.71 426.25 L 670.67 475.81 L 850.95 411.69 L 847.43 401.8 L 870.53 410.04 L 857.82 431.01 L 854.3 421.12 L 674.02 485.23 Q 671.33 486.19 668.54 485.58 L 440.58 436.03 Q 439.29 435.75 438.12 435.14 L 179.79 302 Z" fill="#d5e8d4" stroke="#82b366" stroke-linejoin="round" stroke-miterlimit="10" pointer-events="all"/><path d="M 850.95 411.69 L 847.43 401.8 L 870.53 410.04 L 857.82 431.01 L 854.3 421.12" fill="none" stroke="#82b366" stroke-linejoin="flat" stroke-miterlimit="4" pointer-events="all"/><path d="M 53.5 316 L 53.5 306 L 179.79 306 Q 182.21 306 184.37 307.11 L 443.16 440.49 L 681.69 545.84 L 850.97 519.96 L 849.38 509.58 L 870.51 522.04 L 854.07 540.23 L 852.48 529.85 L 683.2 555.72 Q 680.31 556.16 677.65 554.98 L 439.12 449.63 Q 438.84 449.51 438.58 449.38 L 179.79 316 Z" fill="#dae8fc" stroke="#6c8ebf" stroke-linejoin="round" stroke-miterlimit="10" pointer-events="all"/><path d="M 850.97 519.96 L 849.38 509.58 L 870.51 522.04 L 854.07 540.23 L 852.48 529.85" fill="none" stroke="#6c8ebf" stroke-linejoin="flat" stroke-miterlimit="4" pointer-events="all"/><path d="M 54.5 331 L 54.5 321 L 180.79 321 Q 183.21 321 185.37 322.11 L 444.16 455.49 L 683.77 561.31 L 853.91 615.04 L 857.07 605.03 L 870.52 625.53 L 847.74 634.59 L 850.9 624.58 L 680.76 570.85 Q 680.23 570.69 679.73 570.46 L 440.12 464.63 Q 439.84 464.51 439.58 464.38 L 180.79 331 Z" fill="#ffe6cc" stroke="#d79b00" stroke-linejoin="round" stroke-miterlimit="10" pointer-events="all"/><path d="M 853.91 615.04 L 857.07 605.03 L 870.52 625.53 L 847.74 634.59 L 850.9 624.58" fill="none" stroke="#d79b00" stroke-linejoin="flat" stroke-miterlimit="4" pointer-events="all"/><path d="M 55.5 269 L 55.5 259 L 182.22 259 L 407.73 186.8 Q 411.22 185.68 414.6 187.08 L 701.59 305.83 L 850.94 280.82 L 849.21 270.46 L 870.51 282.61 L 854.33 301.04 L 852.59 290.68 L 703.24 315.69 Q 700.41 316.17 697.76 315.07 L 410.78 196.32 L 185.27 268.52 Q 183.78 269 182.22 269 Z" fill="#e1d5e7" stroke="#9673a6" stroke-linejoin="round" stroke-miterlimit="10" pointer-events="all"/><path d="M 850.94 280.82 L 849.21 270.46 L 870.51 282.61 L 854.33 301.04 L 852.59 290.68" fill="none" stroke="#9673a6" stroke-linejoin="flat" stroke-miterlimit="4" pointer-events="all"/><path d="M 55.5 254.5 L 55.5 244.5 L 181.87 244.5 L 427.92 126.93 Q 429.77 126.05 431.82 125.96 L 670.32 116.02 Q 671.26 115.98 672.19 116.12 L 852.43 142.52 L 853.95 132.13 L 870.51 150.22 L 849.46 162.8 L 850.98 152.41 L 670.74 126.02 L 432.23 135.95 L 186.18 253.52 Q 184.13 254.5 181.87 254.5 Z" fill="#fff2cc" stroke="#d6b656" stroke-linejoin="round" stroke-miterlimit="10" pointer-events="all"/><path d="M 852.43 142.52 L 853.95 132.13 L 870.51 150.22 L 849.46 162.8 L 850.98 152.41" fill="none" stroke="#d6b656" stroke-linejoin="flat" stroke-miterlimit="4" pointer-events="all"/><path d="M 55.5 239.75 L 55.5 229.75 L 181.87 229.75 L 428.44 111.93 Q 429.25 111.54 430.12 111.31 L 669.2 46.31 Q 670.18 46.04 671.19 45.98 L 851.23 34.68 L 850.57 24.2 L 870.5 38.48 L 852.51 55.14 L 851.85 44.66 L 671.82 55.96 L 432.75 120.96 L 186.18 238.77 Q 184.13 239.75 181.87 239.75 Z" fill="#f8cecc" stroke="#b85450" stroke-linejoin="round" stroke-miterlimit="10" pointer-events="all"/><path d="M 851.23 34.68 L 850.57 24.2 L 870.5 38.48 L 852.51 55.14 L 851.85 44.66" fill="none" stroke="#b85450" stroke-linejoin="flat" stroke-miterlimit="4" pointer-events="all"/></g></svg>