<?xml version="1.0" encoding="UTF-8"?>
<!DOCTYPE svg PUBLIC "-//W3C//DTD SVG 1.1//EN" "http://www.w3.org/Graphics/SVG/1.1/DTD/svg11.dtd">
<svg xmlns="http://www.w3.org/2000/svg" xmlns:xlink="http://www.w3.org/1999/xlink" version="1.1" width="521px" height="382px" viewBox="-0.5 -0.5 521 382"><defs/><g><path d="M 249 55 C 249 46.72 262.43 40 279 40 C 286.96 40 294.59 41.58 300.21 44.39 C 305.84 47.21 309 51.02 309 55 L 309 75 C 309 83.28 295.57 90 279 90 C 262.43 90 249 83.28 249 75 Z" fill="#e1d5e7" stroke="#9673a6" stroke-miterlimit="10" pointer-events="all"/><path d="M 309 55 C 309 63.28 295.57 70 279 70 C 262.43 70 249 63.28 249 55" fill="none" stroke="#9673a6" stroke-miterlimit="10" pointer-events="all"/><path d="M 9 330 L 25.16 330" fill="none" stroke="#6c8ebf" stroke-width="5" stroke-miterlimit="10" pointer-events="stroke"/><path d="M 33.41 330 L 22.41 335.5 L 25.16 330 L 22.41 324.5 Z" fill="#6c8ebf" stroke="#6c8ebf" stroke-width="5" stroke-miterlimit="10" pointer-events="all"/><path d="M 109 345 C 109 336.72 122.43 330 139 330 C 146.96 330 154.59 331.58 160.21 334.39 C 165.84 337.21 169 341.02 169 345 L 169 365 C 169 373.28 155.57 380 139 380 C 122.43 380 109 373.28 109 365 Z" fill="#dae8fc" stroke="#6c8ebf" stroke-miterlimit="10" pointer-events="all"/><path d="M 169 345 C 169 353.28 155.57 360 139 360 C 122.43 360 109 353.28 109 345" fill="none" stroke="#6c8ebf" stroke-miterlimit="10" pointer-events="all"/><path d="M 109 325 C 109 316.72 122.43 310 139 310 C 146.96 310 154.59 311.58 160.21 314.39 C 165.84 317.21 169 321.02 169 325 L 169 345 C 169 353.28 155.57 360 139 360 C 122.43 360 109 353.28 109 345 Z" fill="#d5e8d4" stroke="#82b366" stroke-miterlimit="10" pointer-events="all"/><path d="M 169 325 C 169 333.28 155.57 340 139 340 C 122.43 340 109 333.28 109 325" fill="none" stroke="#82b366" stroke-miterlimit="10" pointer-events="all"/><path d="M 109 305 C 109 296.72 122.43 290 139 290 C 146.96 290 154.59 291.58 160.21 294.39 C 165.84 297.21 169 301.02 169 305 L 169 325 C 169 333.28 155.57 340 139 340 C 122.43 340 109 333.28 109 325 Z" fill="#e1d5e7" stroke="#9673a6" stroke-miterlimit="10" pointer-events="all"/><path d="M 169 305 C 169 313.28 155.57 320 139 320 C 122.43 320 109 313.28 109 305" fill="none" stroke="#9673a6" stroke-miterlimit="10" pointer-events="all"/><path d="M 459 325 C 459 316.72 472.43 310 489 310 C 496.96 310 504.59 311.58 510.21 314.39 C 515.84 317.21 519 321.02 519 325 L 519 345 C 519 353.28 505.57 360 489 360 C 472.43 360 459 353.28 459 345 Z" fill="#dae8fc" stroke="#6c8ebf" stroke-miterlimit="10" pointer-events="all"/><path d="M 519 325 C 519 333.28 505.57 340 489 340 C 472.43 340 459 333.28 459 325" fill="none" stroke="#6c8ebf" stroke-miterlimit="10" pointer-events="all"/><path d="M 459 305 C 459 296.72 472.43 290 489 290 C 496.96 290 504.59 291.58 510.21 294.39 C 515.84 297.21 519 301.02 519 305 L 519 325 C 519 333.28 505.57 340 489 340 C 472.43 340 459 333.28 459 325 Z" fill="#e1d5e7" stroke="#9673a6" stroke-miterlimit="10" pointer-events="all"/><path d="M 519 305 C 519 313.28 505.57 320 489 320 C 472.43 320 459 313.28 459 305" fill="none" stroke="#9673a6" stroke-miterlimit="10" pointer-events="all"/><path d="M 249 35 C 249 26.72 262.43 20 279 20 C 286.96 20 294.59 21.58 300.21 24.39 C 305.84 27.21 309 31.02 309 35 L 309 55 C 309 63.28 295.57 70 279 70 C 262.43 70 249 63.28 249 55 Z" fill="#d5e8d4" stroke="#82b366" stroke-miterlimit="10" pointer-events="all"/><path d="M 309 35 C 309 43.28 295.57 50 279 50 C 262.43 50 249 43.28 249 35" fill="none" stroke="#82b366" stroke-miterlimit="10" pointer-events="all"/><path d="M 69 330 L 95.16 330" fill="none" stroke="#b5739d" stroke-width="5" stroke-miterlimit="10" pointer-events="stroke"/><path d="M 103.41 330 L 92.41 335.5 L 95.16 330 L 92.41 324.5 Z" fill="#b5739d" stroke="#b5739d" stroke-width="5" stroke-miterlimit="10" pointer-events="all"/><path d="M 459 287 C 459 278.72 472.43 272 489 272 C 496.96 272 504.59 273.58 510.21 276.39 C 515.84 279.21 519 283.02 519 287 L 519 307 C 519 315.28 505.57 322 489 322 C 472.43 322 459 315.28 459 307 Z" fill="#d5e8d4" stroke="#82b366" stroke-miterlimit="10" pointer-events="all"/><path d="M 519 287 C 519 295.28 505.57 302 489 302 C 472.43 302 459 295.28 459 287" fill="none" stroke="#82b366" stroke-miterlimit="10" pointer-events="all"/><path d="M 249 15 C 249 6.72 262.43 0 279 0 C 286.96 0 294.59 1.58 300.21 4.39 C 305.84 7.21 309 11.02 309 15 L 309 35 C 309 43.28 295.57 50 279 50 C 262.43 50 249 43.28 249 35 Z" fill="#dae8fc" stroke="#6c8ebf" stroke-miterlimit="10" pointer-events="all"/><path d="M 309 15 C 309 23.28 295.57 30 279 30 C 262.43 30 249 23.28 249 15" fill="none" stroke="#6c8ebf" stroke-miterlimit="10" pointer-events="all"/><path d="M 39 330 L 55.16 330" fill="none" stroke="#82b366" stroke-width="5" stroke-miterlimit="10" pointer-events="stroke"/><path d="M 63.41 330 L 52.41 335.5 L 55.16 330 L 52.41 324.5 Z" fill="#82b366" stroke="#82b366" stroke-width="5" stroke-miterlimit="10" pointer-events="all"/><path d="M 179 50 L 195.16 50" fill="none" stroke="#6c8ebf" stroke-width="5" stroke-miterlimit="10" pointer-events="stroke"/><path d="M 203.41 50 L 192.41 55.5 L 195.16 50 L 192.41 44.5 Z" fill="#6c8ebf" stroke="#6c8ebf" stroke-width="5" stroke-miterlimit="10" pointer-events="all"/><path d="M 139 50 L 165.16 50" fill="none" stroke="#b5739d" stroke-width="5" stroke-miterlimit="10" pointer-events="stroke"/><path d="M 173.41 50 L 162.41 55.5 L 165.16 50 L 162.41 44.5 Z" fill="#b5739d" stroke="#b5739d" stroke-width="5" stroke-miterlimit="10" pointer-events="all"/><path d="M 209 50 L 225.16 50" fill="none" stroke="#82b366" stroke-width="5" stroke-miterlimit="10" pointer-events="stroke"/><path d="M 233.41 50 L 222.41 55.5 L 225.16 50 L 222.41 44.5 Z" fill="#82b366" stroke="#82b366" stroke-width="5" stroke-miterlimit="10" pointer-events="all"/><path d="M 429 322 L 445.16 322" fill="none" stroke="#6c8ebf" stroke-width="5" stroke-miterlimit="10" pointer-events="stroke"/><path d="M 453.41 322 L 442.41 327.5 L 445.16 322 L 442.41 316.5 Z" fill="#6c8ebf" stroke="#6c8ebf" stroke-width="5" stroke-miterlimit="10" pointer-events="all"/><path d="M 389 322 L 415.16 322" fill="none" stroke="#b5739d" stroke-width="5" stroke-miterlimit="10" pointer-events="stroke"/><path d="M 423.41 322 L 412.41 327.5 L 415.16 322 L 412.41 316.5 Z" fill="#b5739d" stroke="#b5739d" stroke-width="5" stroke-miterlimit="10" pointer-events="all"/><path d="M 359 322 L 375.16 322" fill="none" stroke="#82b366" stroke-width="5" stroke-miterlimit="10" pointer-events="stroke"/><path d="M 383.41 322 L 372.41 327.5 L 375.16 322 L 372.41 316.5 Z" fill="#82b366" stroke="#82b366" stroke-width="5" stroke-miterlimit="10" pointer-events="all"/></g></svg>