<!DOCTYPE svg PUBLIC "-//W3C//DTD SVG 1.1//EN" "http://www.w3.org/Graphics/SVG/1.1/DTD/svg11.dtd">
<svg xmlns="http://www.w3.org/2000/svg" xmlns:xlink="http://www.w3.org/1999/xlink" version="1.1" width="698px" height="289px" viewBox="-0.5 -0.5 698 289"><defs/><g><path d="M 120 55 C 120 46.72 133.43 40 150 40 C 157.96 40 165.59 41.58 171.21 44.39 C 176.84 47.21 180 51.02 180 55 L 180 75 C 180 83.28 166.57 90 150 90 C 133.43 90 120 83.28 120 75 Z" fill="#e1d5e7" stroke="#9673a6" stroke-miterlimit="10" pointer-events="all"/><path d="M 180 55 C 180 63.28 166.57 70 150 70 C 133.43 70 120 63.28 120 55" fill="none" stroke="#9673a6" stroke-miterlimit="10" pointer-events="all"/><path d="M 0 227 C 0 218.72 13.43 212 30 212 C 37.96 212 45.59 213.58 51.21 216.39 C 56.84 219.21 60 223.02 60 227 L 60 247 C 60 255.28 46.57 262 30 262 C 13.43 262 0 255.28 0 247 Z" fill="#dae8fc" stroke="#6c8ebf" stroke-miterlimit="10" pointer-events="all"/><path d="M 60 227 C 60 235.28 46.57 242 30 242 C 13.43 242 0 235.28 0 227" fill="none" stroke="#6c8ebf" stroke-miterlimit="10" pointer-events="all"/><path d="M 0 207 C 0 198.72 13.43 192 30 192 C 37.96 192 45.59 193.58 51.21 196.39 C 56.84 199.21 60 203.02 60 207 L 60 227 C 60 235.28 46.57 242 30 242 C 13.43 242 0 235.28 0 227 Z" fill="#d5e8d4" stroke="#82b366" stroke-miterlimit="10" pointer-events="all"/><path d="M 60 207 C 60 215.28 46.57 222 30 222 C 13.43 222 0 215.28 0 207" fill="none" stroke="#82b366" stroke-miterlimit="10" pointer-events="all"/><path d="M 0 187 C 0 178.72 13.43 172 30 172 C 37.96 172 45.59 173.58 51.21 176.39 C 56.84 179.21 60 183.02 60 187 L 60 207 C 60 215.28 46.57 222 30 222 C 13.43 222 0 215.28 0 207 Z" fill="#e1d5e7" stroke="#9673a6" stroke-miterlimit="10" pointer-events="all"/><path d="M 60 187 C 60 195.28 46.57 202 30 202 C 13.43 202 0 195.28 0 187" fill="none" stroke="#9673a6" stroke-miterlimit="10" pointer-events="all"/><path d="M 215 253 C 215 244.72 228.43 238 245 238 C 252.96 238 260.59 239.58 266.21 242.39 C 271.84 245.21 275 249.02 275 253 L 275 273 C 275 281.28 261.57 288 245 288 C 228.43 288 215 281.28 215 273 Z" fill="#dae8fc" stroke="#6c8ebf" stroke-miterlimit="10" pointer-events="all"/><path d="M 275 253 C 275 261.28 261.57 268 245 268 C 228.43 268 215 261.28 215 253" fill="none" stroke="#6c8ebf" stroke-miterlimit="10" pointer-events="all"/><path d="M 215 233 C 215 224.72 228.43 218 245 218 C 252.96 218 260.59 219.58 266.21 222.39 C 271.84 225.21 275 229.02 275 233 L 275 253 C 275 261.28 261.57 268 245 268 C 228.43 268 215 261.28 215 253 Z" fill="#e1d5e7" stroke="#9673a6" stroke-miterlimit="10" pointer-events="all"/><path d="M 275 233 C 275 241.28 261.57 248 245 248 C 228.43 248 215 241.28 215 233" fill="none" stroke="#9673a6" stroke-miterlimit="10" pointer-events="all"/><path d="M 120 35 C 120 26.72 133.43 20 150 20 C 157.96 20 165.59 21.58 171.21 24.39 C 176.84 27.21 180 31.02 180 35 L 180 55 C 180 63.28 166.57 70 150 70 C 133.43 70 120 63.28 120 55 Z" fill="#d5e8d4" stroke="#82b366" stroke-miterlimit="10" pointer-events="all"/><path d="M 180 35 C 180 43.28 166.57 50 150 50 C 133.43 50 120 43.28 120 35" fill="none" stroke="#82b366" stroke-miterlimit="10" pointer-events="all"/><path d="M 215 215 C 215 206.72 228.43 200 245 200 C 252.96 200 260.59 201.58 266.21 204.39 C 271.84 207.21 275 211.02 275 215 L 275 235 C 275 243.28 261.57 250 245 250 C 228.43 250 215 243.28 215 235 Z" fill="#d5e8d4" stroke="#82b366" stroke-miterlimit="10" pointer-events="all"/><path d="M 275 215 C 275 223.28 261.57 230 245 230 C 228.43 230 215 223.28 215 215" fill="none" stroke="#82b366" stroke-miterlimit="10" pointer-events="all"/><path d="M 120 15 C 120 6.72 133.43 0 150 0 C 157.96 0 165.59 1.58 171.21 4.39 C 176.84 7.21 180 11.02 180 15 L 180 35 C 180 43.28 166.57 50 150 50 C 133.43 50 120 43.28 120 35 Z" fill="#dae8fc" stroke="#6c8ebf" stroke-miterlimit="10" pointer-events="all"/><path d="M 180 15 C 180 23.28 166.57 30 150 30 C 133.43 30 120 23.28 120 15" fill="none" stroke="#6c8ebf" stroke-miterlimit="10" pointer-events="all"/><path d="M 290.5 166 L 290.5 94 L 347.5 94 L 347.5 83.5 L 369.5 130 L 347.5 176.5 L 347.5 166 Z" fill="none" stroke="#000000" stroke-linejoin="round" stroke-miterlimit="10" pointer-events="all"/><path d="M 220.4 184.49 L 230 180.25 L 223.5 203.89 L 201.65 192.77 L 211.25 188.53 L 174.6 105.51 L 165 109.75 L 171.5 86.11 L 193.35 97.23 L 183.75 101.47 Z" fill="none" stroke="#000000" stroke-linejoin="round" stroke-miterlimit="10" pointer-events="all"/><path d="M 112.24 97.24 L 104.25 90.42 L 128.38 86.03 L 127.83 110.54 L 119.85 103.73 L 67.76 164.76 L 75.75 171.58 L 51.62 175.97 L 52.17 151.46 L 60.15 158.27 Z" fill="none" stroke="#000000" stroke-linejoin="round" stroke-miterlimit="10" pointer-events="all"/><path d="M 196.45 235.17 L 198 224.79 L 214.51 242.93 L 193.42 255.45 L 194.98 245.06 L 79.55 227.83 L 78 238.21 L 61.49 220.07 L 82.58 207.55 L 81.02 217.94 Z" fill="none" stroke="#000000" stroke-linejoin="round" stroke-miterlimit="10" pointer-events="all"/><path d="M 636 215 C 636 206.72 649.43 200 666 200 C 673.96 200 681.59 201.58 687.21 204.39 C 692.84 207.21 696 211.02 696 215 L 696 235 C 696 243.28 682.57 250 666 250 C 649.43 250 636 243.28 636 235 Z" fill="#dae8fc" stroke="#6c8ebf" stroke-miterlimit="10" pointer-events="all"/><path d="M 696 215 C 696 223.28 682.57 230 666 230 C 649.43 230 636 223.28 636 215" fill="none" stroke="#6c8ebf" stroke-miterlimit="10" pointer-events="all"/><path d="M 607 215 C 607 206.72 620.43 200 637 200 C 644.96 200 652.59 201.58 658.21 204.39 C 663.84 207.21 667 211.02 667 215 L 667 235 C 667 243.28 653.57 250 637 250 C 620.43 250 607 243.28 607 235 Z" fill="#e1d5e7" stroke="#9673a6" stroke-miterlimit="10" pointer-events="all"/><path d="M 667 215 C 667 223.28 653.57 230 637 230 C 620.43 230 607 223.28 607 215" fill="none" stroke="#9673a6" stroke-miterlimit="10" pointer-events="all"/><path d="M 576 215 C 576 206.72 589.43 200 606 200 C 613.96 200 621.59 201.58 627.21 204.39 C 632.84 207.21 636 211.02 636 215 L 636 235 C 636 243.28 622.57 250 606 250 C 589.43 250 576 243.28 576 235 Z" fill="#d5e8d4" stroke="#82b366" stroke-miterlimit="10" pointer-events="all"/><path d="M 636 215 C 636 223.28 622.57 230 606 230 C 589.43 230 576 223.28 576 215" fill="none" stroke="#82b366" stroke-miterlimit="10" pointer-events="all"/><path d="M 545 48 C 545 39.72 558.43 33 575 33 C 582.96 33 590.59 34.58 596.21 37.39 C 601.84 40.21 605 44.02 605 48 L 605 68 C 605 76.28 591.57 83 575 83 C 558.43 83 545 76.28 545 68 Z" fill="#dae8fc" stroke="#6c8ebf" stroke-miterlimit="10" pointer-events="all"/><path d="M 605 48 C 605 56.28 591.57 63 575 63 C 558.43 63 545 56.28 545 48" fill="none" stroke="#6c8ebf" stroke-miterlimit="10" pointer-events="all"/><path d="M 516 48 C 516 39.72 529.43 33 546 33 C 553.96 33 561.59 34.58 567.21 37.39 C 572.84 40.21 576 44.02 576 48 L 576 68 C 576 76.28 562.57 83 546 83 C 529.43 83 516 76.28 516 68 Z" fill="#e1d5e7" stroke="#9673a6" stroke-miterlimit="10" pointer-events="all"/><path d="M 576 48 C 576 56.28 562.57 63 546 63 C 529.43 63 516 56.28 516 48" fill="none" stroke="#9673a6" stroke-miterlimit="10" pointer-events="all"/><path d="M 485 48 C 485 39.72 498.43 33 515 33 C 522.96 33 530.59 34.58 536.21 37.39 C 541.84 40.21 545 44.02 545 48 L 545 68 C 545 76.28 531.57 83 515 83 C 498.43 83 485 76.28 485 68 Z" fill="#d5e8d4" stroke="#82b366" stroke-miterlimit="10" pointer-events="all"/><path d="M 545 48 C 545 56.28 531.57 63 515 63 C 498.43 63 485 56.28 485 48" fill="none" stroke="#82b366" stroke-miterlimit="10" pointer-events="all"/><path d="M 462 199 C 462 190.72 475.43 184 492 184 C 499.96 184 507.59 185.58 513.21 188.39 C 518.84 191.21 522 195.02 522 199 L 522 219 C 522 227.28 508.57 234 492 234 C 475.43 234 462 227.28 462 219 Z" fill="#dae8fc" stroke="#6c8ebf" stroke-miterlimit="10" pointer-events="all"/><path d="M 522 199 C 522 207.28 508.57 214 492 214 C 475.43 214 462 207.28 462 199" fill="none" stroke="#6c8ebf" stroke-miterlimit="10" pointer-events="all"/><path d="M 433 199 C 433 190.72 446.43 184 463 184 C 470.96 184 478.59 185.58 484.21 188.39 C 489.84 191.21 493 195.02 493 199 L 493 219 C 493 227.28 479.57 234 463 234 C 446.43 234 433 227.28 433 219 Z" fill="#e1d5e7" stroke="#9673a6" stroke-miterlimit="10" pointer-events="all"/><path d="M 493 199 C 493 207.28 479.57 214 463 214 C 446.43 214 433 207.28 433 199" fill="none" stroke="#9673a6" stroke-miterlimit="10" pointer-events="all"/><path d="M 402 199 C 402 190.72 415.43 184 432 184 C 439.96 184 447.59 185.58 453.21 188.39 C 458.84 191.21 462 195.02 462 199 L 462 219 C 462 227.28 448.57 234 432 234 C 415.43 234 402 227.28 402 219 Z" fill="#d5e8d4" stroke="#82b366" stroke-miterlimit="10" pointer-events="all"/><path d="M 462 199 C 462 207.28 448.57 214 432 214 C 415.43 214 402 207.28 402 199" fill="none" stroke="#82b366" stroke-miterlimit="10" pointer-events="all"/></g></svg>