<!DOCTYPE svg PUBLIC "-//W3C//DTD SVG 1.1//EN" "http://www.w3.org/Graphics/SVG/1.1/DTD/svg11.dtd">
<svg xmlns="http://www.w3.org/2000/svg" xmlns:xlink="http://www.w3.org/1999/xlink" version="1.1" width="662px" height="289px" viewBox="-0.5 -0.5 662 289"><defs/><g><path d="M 402 197 C 402 188.72 415.43 182 432 182 C 439.96 182 447.59 183.58 453.21 186.39 C 458.84 189.21 462 193.02 462 197 L 462 217 C 462 225.28 448.57 232 432 232 C 415.43 232 402 225.28 402 217 Z" fill="#d5e8d4" stroke="#82b366" stroke-miterlimit="10" pointer-events="all"/><path d="M 462 197 C 462 205.28 448.57 212 432 212 C 415.43 212 402 205.28 402 197" fill="none" stroke="#82b366" stroke-miterlimit="10" pointer-events="all"/><path d="M 402 177 C 402 168.72 415.43 162 432 162 C 439.96 162 447.59 163.58 453.21 166.39 C 458.84 169.21 462 173.02 462 177 L 462 197 C 462 205.28 448.57 212 432 212 C 415.43 212 402 205.28 402 197 Z" fill="#e1d5e7" stroke="#9673a6" stroke-miterlimit="10" pointer-events="all"/><path d="M 462 177 C 462 185.28 448.57 192 432 192 C 415.43 192 402 185.28 402 177" fill="none" stroke="#9673a6" stroke-miterlimit="10" pointer-events="all"/><path d="M 120 55 C 120 46.72 133.43 40 150 40 C 157.96 40 165.59 41.58 171.21 44.39 C 176.84 47.21 180 51.02 180 55 L 180 75 C 180 83.28 166.57 90 150 90 C 133.43 90 120 83.28 120 75 Z" fill="#e1d5e7" stroke="#9673a6" stroke-miterlimit="10" pointer-events="all"/><path d="M 180 55 C 180 63.28 166.57 70 150 70 C 133.43 70 120 63.28 120 55" fill="none" stroke="#9673a6" stroke-miterlimit="10" pointer-events="all"/><path d="M 0 227 C 0 218.72 13.43 212 30 212 C 37.96 212 45.59 213.58 51.21 216.39 C 56.84 219.21 60 223.02 60 227 L 60 247 C 60 255.28 46.57 262 30 262 C 13.43 262 0 255.28 0 247 Z" fill="#dae8fc" stroke="#6c8ebf" stroke-miterlimit="10" pointer-events="all"/><path d="M 60 227 C 60 235.28 46.57 242 30 242 C 13.43 242 0 235.28 0 227" fill="none" stroke="#6c8ebf" stroke-miterlimit="10" pointer-events="all"/><path d="M 0 207 C 0 198.72 13.43 192 30 192 C 37.96 192 45.59 193.58 51.21 196.39 C 56.84 199.21 60 203.02 60 207 L 60 227 C 60 235.28 46.57 242 30 242 C 13.43 242 0 235.28 0 227 Z" fill="#d5e8d4" stroke="#82b366" stroke-miterlimit="10" pointer-events="all"/><path d="M 60 207 C 60 215.28 46.57 222 30 222 C 13.43 222 0 215.28 0 207" fill="none" stroke="#82b366" stroke-miterlimit="10" pointer-events="all"/><path d="M 0 187 C 0 178.72 13.43 172 30 172 C 37.96 172 45.59 173.58 51.21 176.39 C 56.84 179.21 60 183.02 60 187 L 60 207 C 60 215.28 46.57 222 30 222 C 13.43 222 0 215.28 0 207 Z" fill="#e1d5e7" stroke="#9673a6" stroke-miterlimit="10" pointer-events="all"/><path d="M 60 187 C 60 195.28 46.57 202 30 202 C 13.43 202 0 195.28 0 187" fill="none" stroke="#9673a6" stroke-miterlimit="10" pointer-events="all"/><path d="M 215 253 C 215 244.72 228.43 238 245 238 C 252.96 238 260.59 239.58 266.21 242.39 C 271.84 245.21 275 249.02 275 253 L 275 273 C 275 281.28 261.57 288 245 288 C 228.43 288 215 281.28 215 273 Z" fill="#dae8fc" stroke="#6c8ebf" stroke-miterlimit="10" pointer-events="all"/><path d="M 275 253 C 275 261.28 261.57 268 245 268 C 228.43 268 215 261.28 215 253" fill="none" stroke="#6c8ebf" stroke-miterlimit="10" pointer-events="all"/><path d="M 215 233 C 215 224.72 228.43 218 245 218 C 252.96 218 260.59 219.58 266.21 222.39 C 271.84 225.21 275 229.02 275 233 L 275 253 C 275 261.28 261.57 268 245 268 C 228.43 268 215 261.28 215 253 Z" fill="#e1d5e7" stroke="#9673a6" stroke-miterlimit="10" pointer-events="all"/><path d="M 275 233 C 275 241.28 261.57 248 245 248 C 228.43 248 215 241.28 215 233" fill="none" stroke="#9673a6" stroke-miterlimit="10" pointer-events="all"/><path d="M 120 35 C 120 26.72 133.43 20 150 20 C 157.96 20 165.59 21.58 171.21 24.39 C 176.84 27.21 180 31.02 180 35 L 180 55 C 180 63.28 166.57 70 150 70 C 133.43 70 120 63.28 120 55 Z" fill="#d5e8d4" stroke="#82b366" stroke-miterlimit="10" pointer-events="all"/><path d="M 180 35 C 180 43.28 166.57 50 150 50 C 133.43 50 120 43.28 120 35" fill="none" stroke="#82b366" stroke-miterlimit="10" pointer-events="all"/><path d="M 215 215 C 215 206.72 228.43 200 245 200 C 252.96 200 260.59 201.58 266.21 204.39 C 271.84 207.21 275 211.02 275 215 L 275 235 C 275 243.28 261.57 250 245 250 C 228.43 250 215 243.28 215 235 Z" fill="#d5e8d4" stroke="#82b366" stroke-miterlimit="10" pointer-events="all"/><path d="M 275 215 C 275 223.28 261.57 230 245 230 C 228.43 230 215 223.28 215 215" fill="none" stroke="#82b366" stroke-miterlimit="10" pointer-events="all"/><path d="M 120 15 C 120 6.72 133.43 0 150 0 C 157.96 0 165.59 1.58 171.21 4.39 C 176.84 7.21 180 11.02 180 15 L 180 35 C 180 43.28 166.57 50 150 50 C 133.43 50 120 43.28 120 35 Z" fill="#dae8fc" stroke="#6c8ebf" stroke-miterlimit="10" pointer-events="all"/><path d="M 180 15 C 180 23.28 166.57 30 150 30 C 133.43 30 120 23.28 120 15" fill="none" stroke="#6c8ebf" stroke-miterlimit="10" pointer-events="all"/><path d="M 290.5 166 L 290.5 94 L 347.5 94 L 347.5 83.5 L 369.5 130 L 347.5 176.5 L 347.5 166 Z" fill="none" stroke="#000000" stroke-linejoin="round" stroke-miterlimit="10" pointer-events="all"/><path d="M 220.4 184.49 L 230 180.25 L 223.5 203.89 L 201.65 192.77 L 211.25 188.53 L 174.6 105.51 L 165 109.75 L 171.5 86.11 L 193.35 97.23 L 183.75 101.47 Z" fill="none" stroke="#000000" stroke-linejoin="round" stroke-miterlimit="10" pointer-events="all"/><path d="M 112.24 97.24 L 104.25 90.42 L 128.38 86.03 L 127.83 110.54 L 119.85 103.73 L 67.76 164.76 L 75.75 171.58 L 51.62 175.97 L 52.17 151.46 L 60.15 158.27 Z" fill="none" stroke="#000000" stroke-linejoin="round" stroke-miterlimit="10" pointer-events="all"/><path d="M 196.45 235.17 L 198 224.79 L 214.51 242.93 L 193.42 255.45 L 194.98 245.06 L 79.55 227.83 L 78 238.21 L 61.49 220.07 L 82.58 207.55 L 81.02 217.94 Z" fill="none" stroke="#000000" stroke-linejoin="round" stroke-miterlimit="10" pointer-events="all"/><path d="M 402 157 C 402 148.72 415.43 142 432 142 C 439.96 142 447.59 143.58 453.21 146.39 C 458.84 149.21 462 153.02 462 157 L 462 177 C 462 185.28 448.57 192 432 192 C 415.43 192 402 185.28 402 177 Z" fill="#dae8fc" stroke="#6c8ebf" stroke-miterlimit="10" pointer-events="all"/><path d="M 462 157 C 462 165.28 448.57 172 432 172 C 415.43 172 402 165.28 402 157" fill="none" stroke="#6c8ebf" stroke-miterlimit="10" pointer-events="all"/><path d="M 510 69 C 510 60.72 523.43 54 540 54 C 547.96 54 555.59 55.58 561.21 58.39 C 566.84 61.21 570 65.02 570 69 L 570 89 C 570 97.28 556.57 104 540 104 C 523.43 104 510 97.28 510 89 Z" fill="#d5e8d4" stroke="#82b366" stroke-miterlimit="10" pointer-events="all"/><path d="M 570 69 C 570 77.28 556.57 84 540 84 C 523.43 84 510 77.28 510 69" fill="none" stroke="#82b366" stroke-miterlimit="10" pointer-events="all"/><path d="M 510 49 C 510 40.72 523.43 34 540 34 C 547.96 34 555.59 35.58 561.21 38.39 C 566.84 41.21 570 45.02 570 49 L 570 69 C 570 77.28 556.57 84 540 84 C 523.43 84 510 77.28 510 69 Z" fill="#e1d5e7" stroke="#9673a6" stroke-miterlimit="10" pointer-events="all"/><path d="M 570 49 C 570 57.28 556.57 64 540 64 C 523.43 64 510 57.28 510 49" fill="none" stroke="#9673a6" stroke-miterlimit="10" pointer-events="all"/><path d="M 510 29 C 510 20.72 523.43 14 540 14 C 547.96 14 555.59 15.58 561.21 18.39 C 566.84 21.21 570 25.02 570 29 L 570 49 C 570 57.28 556.57 64 540 64 C 523.43 64 510 57.28 510 49 Z" fill="#dae8fc" stroke="#6c8ebf" stroke-miterlimit="10" pointer-events="all"/><path d="M 570 29 C 570 37.28 556.57 44 540 44 C 523.43 44 510 37.28 510 29" fill="none" stroke="#6c8ebf" stroke-miterlimit="10" pointer-events="all"/><path d="M 600 233 C 600 224.72 613.43 218 630 218 C 637.96 218 645.59 219.58 651.21 222.39 C 656.84 225.21 660 229.02 660 233 L 660 253 C 660 261.28 646.57 268 630 268 C 613.43 268 600 261.28 600 253 Z" fill="#d5e8d4" stroke="#82b366" stroke-miterlimit="10" pointer-events="all"/><path d="M 660 233 C 660 241.28 646.57 248 630 248 C 613.43 248 600 241.28 600 233" fill="none" stroke="#82b366" stroke-miterlimit="10" pointer-events="all"/><path d="M 600 213 C 600 204.72 613.43 198 630 198 C 637.96 198 645.59 199.58 651.21 202.39 C 656.84 205.21 660 209.02 660 213 L 660 233 C 660 241.28 646.57 248 630 248 C 613.43 248 600 241.28 600 233 Z" fill="#e1d5e7" stroke="#9673a6" stroke-miterlimit="10" pointer-events="all"/><path d="M 660 213 C 660 221.28 646.57 228 630 228 C 613.43 228 600 221.28 600 213" fill="none" stroke="#9673a6" stroke-miterlimit="10" pointer-events="all"/><path d="M 600 193 C 600 184.72 613.43 178 630 178 C 637.96 178 645.59 179.58 651.21 182.39 C 656.84 185.21 660 189.02 660 193 L 660 213 C 660 221.28 646.57 228 630 228 C 613.43 228 600 221.28 600 213 Z" fill="#dae8fc" stroke="#6c8ebf" stroke-miterlimit="10" pointer-events="all"/><path d="M 660 193 C 660 201.28 646.57 208 630 208 C 613.43 208 600 201.28 600 193" fill="none" stroke="#6c8ebf" stroke-miterlimit="10" pointer-events="all"/></g></svg>