<?xml version="1.0" standalone="no"?>
<!DOCTYPE svg PUBLIC "-//W3C//DTD SVG 20010904//EN"
 "http://www.w3.org/TR/2001/REC-SVG-20010904/DTD/svg10.dtd">
<svg version="1.0" xmlns="http://www.w3.org/2000/svg"
 width="246.000000pt" height="39.000000pt" viewBox="0 0 246.000000 39.000000"
 preserveAspectRatio="xMidYMid meet">
<metadata>
Created by potrace 1.16, written by Peter Selinger 2001-2019
</metadata>
<g transform="translate(0.000000,39.000000) scale(0.100000,-0.100000)"
fill="#000000" stroke="none">
<path d="M0 340 c0 -16 5 -30 10 -30 6 0 10 5 10 10 0 6 7 10 15 10 8 0 15 9
15 20 0 15 -7 20 -25 20 -21 0 -25 -5 -25 -30z"/>
<path d="M70 360 c-9 -6 -10 -10 -3 -10 6 0 14 -10 16 -22 3 -17 5 -14 6 10 1
36 2 35 -19 22z"/>
<path d="M220 344 c-13 -33 -13 -32 13 -32 37 0 93 -9 105 -16 6 -3 13 0 15 6
4 10 6 10 6 1 1 -7 5 -13 9 -13 4 0 7 15 6 33 -1 17 1 22 3 10 4 -19 11 -23
44 -23 21 0 39 -5 39 -11 0 -5 5 -7 10 -4 13 8 13 75 1 75 -6 0 -13 -5 -16
-11 -4 -6 -14 -8 -22 -5 -11 4 -13 1 -8 -14 5 -14 2 -20 -9 -20 -10 0 -16 9
-16 25 0 18 -5 25 -20 25 -11 0 -20 -4 -20 -8 0 -5 -18 -7 -41 -6 -33 2 -42
-2 -49 -20 -8 -20 -8 -20 -15 7 -9 34 -23 35 -35 1z m250 -16 c0 -16 -3 -19
-11 -11 -6 6 -8 16 -5 22 11 17 16 13 16 -11z m-170 2 c0 -5 -4 -10 -10 -10
-5 0 -10 5 -10 10 0 6 5 10 10 10 6 0 10 -4 10 -10z m40 0 c0 -5 -4 -10 -10
-10 -5 0 -10 5 -10 10 0 6 5 10 10 10 6 0 10 -4 10 -10z"/>
<path d="M535 343 c9 -36 14 -41 25 -23 7 10 10 11 10 3 0 -7 7 -13 15 -13 8
0 15 6 15 14 0 8 3 21 6 30 3 9 1 16 -4 16 -6 0 -13 -8 -15 -17 -4 -17 -5 -17
-6 0 -1 20 -17 23 -24 5 -4 -10 -6 -10 -6 0 -1 6 -6 12 -12 12 -7 0 -9 -10 -4
-27z"/>
<path d="M615 350 c-8 -24 2 -60 16 -60 6 0 7 5 4 10 -3 6 3 10 14 10 12 0 21
-5 21 -11 0 -5 5 -7 10 -4 12 7 14 75 2 75 -4 0 -14 -6 -21 -12 -11 -10 -14
-10 -18 0 -7 18 -21 15 -28 -8z m65 -22 c0 -16 -3 -19 -11 -11 -6 6 -8 16 -5
22 11 17 16 13 16 -11z"/>
<path d="M800 344 c-13 -33 -13 -32 13 -32 40 -1 83 -8 95 -16 8 -5 12 3 12
28 0 33 -2 35 -32 33 -18 -2 -39 -6 -45 -10 -9 -5 -13 -3 -13 7 0 25 -20 19
-30 -10z m70 -14 c0 -5 -4 -10 -10 -10 -5 0 -10 5 -10 10 0 6 5 10 10 10 6 0
10 -4 10 -10z m40 0 c0 -5 -4 -10 -10 -10 -5 0 -10 5 -10 10 0 6 5 10 10 10 6
0 10 -4 10 -10z"/>
<path d="M935 350 c-8 -24 2 -60 16 -60 6 0 7 5 4 10 -4 6 5 10 20 10 15 0 24
-4 20 -10 -3 -5 -1 -10 4 -10 6 0 18 15 26 33 l15 32 -5 -33 c-3 -20 -1 -31 5
-27 13 8 13 75 1 75 -6 0 -13 -5 -16 -11 -4 -6 -14 -8 -22 -5 -12 5 -14 1 -10
-14 3 -13 0 -20 -9 -20 -8 0 -14 10 -14 25 0 30 -26 34 -35 5z"/>
<path d="M1105 343 c9 -36 14 -41 25 -23 7 10 10 11 10 3 0 -7 7 -13 15 -13 8
0 15 6 15 14 0 8 3 21 6 30 3 9 1 16 -4 16 -6 0 -13 -8 -15 -17 -4 -17 -5 -17
-6 0 -1 20 -17 23 -24 5 -4 -10 -6 -10 -6 0 -1 6 -6 12 -12 12 -7 0 -9 -10 -4
-27z"/>
<path d="M1185 350 c-8 -27 3 -60 21 -60 8 0 21 15 29 33 l15 32 -5 -33 c-3
-20 -1 -31 5 -27 12 7 14 75 2 75 -4 0 -14 -6 -21 -12 -11 -10 -14 -10 -18 0
-7 18 -21 15 -28 -8z m22 -42 c-3 -8 -6 -5 -6 6 -1 11 2 17 5 13 3 -3 4 -12 1
-19z"/>
<path d="M1270 340 c0 -31 23 -46 39 -26 15 18 4 43 -20 49 -15 4 -19 0 -19
-23z"/>
<path d="M1360 340 c0 -30 14 -41 23 -17 4 9 8 8 16 -3 6 -9 25 -14 50 -13 23
1 41 -2 41 -8 0 -5 4 -9 8 -9 4 0 7 15 6 33 -1 17 1 22 3 10 4 -19 11 -23 44
-23 21 0 39 -5 39 -11 0 -5 5 -7 10 -4 13 8 13 75 1 75 -6 0 -13 -5 -16 -11
-4 -6 -14 -8 -22 -5 -11 4 -13 1 -8 -14 5 -14 2 -20 -9 -20 -10 0 -16 9 -16
25 0 18 -5 25 -20 25 -11 0 -20 -6 -20 -12 0 -9 -4 -8 -10 2 -6 9 -13 11 -17
5 -9 -12 -38 -13 -49 -2 -4 4 -18 7 -31 7 -19 0 -23 -5 -23 -30z m240 -12 c0
-16 -3 -19 -11 -11 -6 6 -8 16 -5 22 11 17 16 13 16 -11z"/>
<path d="M1660 340 c0 -30 14 -41 23 -17 4 9 8 8 16 -3 6 -9 25 -14 50 -13 23
1 41 -2 41 -8 0 -5 4 -9 8 -9 4 0 7 15 6 33 -1 17 1 22 3 10 3 -17 11 -23 29
-23 14 0 22 -4 19 -10 -3 -5 -1 -10 4 -10 6 0 18 15 26 33 l15 32 -5 -33 c-3
-20 -1 -31 5 -27 13 8 13 75 1 75 -6 0 -13 -5 -16 -11 -4 -6 -14 -8 -22 -5
-12 5 -14 1 -10 -14 3 -13 0 -20 -9 -20 -8 0 -14 10 -14 25 0 18 -5 25 -20 25
-11 0 -20 -6 -20 -12 0 -9 -4 -8 -10 2 -6 9 -13 11 -17 5 -9 -12 -38 -13 -49
-2 -4 4 -18 7 -31 7 -19 0 -23 -5 -23 -30z"/>
<path d="M105 350 c-3 -5 -1 -10 4 -10 6 0 11 5 11 10 0 6 -2 10 -4 10 -3 0
-8 -4 -11 -10z"/>
<path d="M707 353 c-10 -22 0 -48 21 -51 25 -4 26 -3 12 32 -9 25 -25 34 -33
19z"/>
<path d="M0 270 c0 -7 410 -10 1210 -10 800 0 1210 3 1210 10 0 7 -410 10
-1210 10 -800 0 -1210 -3 -1210 -10z"/>
<path d="M10 200 c0 -16 5 -30 10 -30 6 0 10 5 10 10 0 6 5 10 12 10 6 0 20 7
30 17 10 9 18 11 18 6 0 -6 -7 -13 -15 -17 -27 -10 -16 -26 18 -25 30 1 30 1
7 8 l-25 7 23 8 c12 4 22 12 22 17 0 6 -4 7 -10 4 -5 -3 -10 -1 -10 4 0 6 -20
11 -45 11 -43 0 -45 -1 -45 -30z"/>
<path d="M1450 204 c-13 -33 -13 -32 13 -32 37 0 93 -9 105 -16 6 -3 13 0 15
6 4 10 6 10 6 1 1 -7 5 -13 9 -13 4 0 7 15 6 33 -1 17 1 22 3 10 4 -19 11 -23
44 -23 21 0 39 -5 39 -11 0 -5 5 -7 10 -4 13 8 13 75 1 75 -6 0 -13 -5 -16
-11 -4 -6 -14 -8 -22 -5 -11 4 -13 1 -8 -14 5 -14 2 -20 -9 -20 -10 0 -16 9
-16 25 0 18 -5 25 -20 25 -11 0 -20 -4 -20 -8 0 -5 -18 -7 -41 -6 -33 2 -42
-2 -49 -20 -8 -20 -8 -20 -15 7 -9 34 -23 35 -35 1z m250 -16 c0 -16 -3 -19
-11 -11 -6 6 -8 16 -5 22 11 17 16 13 16 -11z m-170 2 c0 -5 -4 -10 -10 -10
-5 0 -10 5 -10 10 0 6 5 10 10 10 6 0 10 -4 10 -10z m40 0 c0 -5 -4 -10 -10
-10 -5 0 -10 5 -10 10 0 6 5 10 10 10 6 0 10 -4 10 -10z"/>
<path d="M1760 200 c0 -30 14 -40 24 -17 5 10 7 10 12 0 3 -7 12 -13 20 -13 8
0 14 -4 14 -10 0 -5 4 -10 8 -10 4 0 6 17 5 38 -3 30 -2 34 7 19 6 -9 8 -22 5
-27 -3 -6 3 -10 14 -10 12 0 21 -5 21 -11 0 -6 5 -7 13 -2 6 4 22 6 35 4 25
-3 26 -2 12 34 -7 17 -15 25 -24 22 -8 -3 -17 -1 -19 6 -3 9 -8 8 -20 -2 -14
-11 -20 -11 -33 0 -13 10 -17 10 -24 0 -5 -9 -10 -10 -14 -2 -4 6 -18 11 -32
11 -20 0 -24 -5 -24 -30z m140 -12 c0 -16 -3 -19 -11 -11 -6 6 -8 16 -5 22 11
17 16 13 16 -11z"/>
<path d="M2160 200 c0 -30 14 -40 24 -17 5 10 7 10 12 0 3 -7 12 -13 20 -13 8
0 14 -4 14 -10 0 -23 31 -8 45 23 l15 32 -5 -33 c-3 -20 -1 -31 5 -27 12 7 14
75 2 75 -4 0 -14 -6 -20 -12 -10 -10 -15 -10 -22 2 -8 12 -11 13 -19 1 -6 -9
-11 -10 -15 -2 -4 6 -18 11 -32 11 -20 0 -24 -5 -24 -30z m87 -32 c-3 -8 -6
-5 -6 6 -1 11 2 17 5 13 3 -3 4 -12 1 -19z"/>
<path d="M2330 200 c0 -30 14 -41 23 -17 4 10 6 10 6 0 1 -9 18 -13 54 -12 28
1 44 3 35 6 -11 3 -18 14 -18 29 0 20 -5 24 -30 24 -22 0 -30 -5 -30 -17 -1
-17 -1 -17 -11 0 -15 26 -29 20 -29 -13z"/>
<path d="M0 130 c0 -7 410 -10 1210 -10 800 0 1210 3 1210 10 0 7 -410 10
-1210 10 -800 0 -1210 -3 -1210 -10z"/>
<path d="M0 50 c0 -16 5 -30 10 -30 6 0 10 5 10 10 0 6 7 10 15 10 8 0 15 9
15 20 0 15 -7 20 -25 20 -21 0 -25 -5 -25 -30z"/>
<path d="M64 48 c1 -19 7 -33 14 -32 48 4 48 4 32 15 -11 8 -12 12 -2 16 6 2
12 9 12 14 0 6 -4 7 -10 4 -5 -3 -10 -1 -10 4 0 6 -8 11 -19 11 -15 0 -18 -7
-17 -32z"/>
<path d="M1740 54 c-13 -33 -13 -32 13 -32 37 0 93 -9 105 -16 6 -3 13 0 15 6
4 10 6 10 6 1 1 -7 5 -13 9 -13 4 0 7 15 6 33 -1 17 1 22 3 10 3 -17 11 -23
29 -23 14 0 22 -4 19 -10 -3 -5 -1 -10 4 -10 6 0 18 15 26 33 l15 32 -5 -33
c-3 -20 -1 -31 5 -27 13 8 13 75 1 75 -6 0 -13 -5 -16 -11 -4 -6 -14 -8 -22
-5 -12 5 -14 1 -10 -14 3 -13 0 -20 -9 -20 -8 0 -14 10 -14 25 0 18 -5 25 -20
25 -11 0 -20 -4 -20 -8 0 -5 -18 -7 -41 -6 -33 2 -42 -2 -49 -20 -8 -20 -8
-20 -15 7 -9 34 -23 35 -35 1z m80 -14 c0 -5 -4 -10 -10 -10 -5 0 -10 5 -10
10 0 6 5 10 10 10 6 0 10 -4 10 -10z m40 0 c0 -5 -4 -10 -10 -10 -5 0 -10 5
-10 10 0 6 5 10 10 10 6 0 10 -4 10 -10z"/>
<path d="M2050 50 c0 -30 14 -40 24 -17 5 9 7 10 12 0 3 -7 12 -13 20 -13 8 0
14 -4 14 -10 0 -25 41 -8 55 22 l15 33 -5 -34 c-4 -28 -3 -32 10 -21 8 6 18 9
23 6 14 -8 33 19 26 37 -7 20 -52 31 -70 16 -11 -9 -18 -8 -30 2 -13 10 -17
10 -24 0 -5 -9 -10 -10 -14 -2 -4 6 -18 11 -32 11 -20 0 -24 -5 -24 -30z m99
-27 c1 -7 -3 -13 -9 -13 -5 0 -10 15 -9 33 0 27 2 29 9 12 5 -11 9 -26 9 -32z"/>
</g>
</svg>
