<svg width="736" height="429" viewBox="0 0 736 429" xmlns="http://www.w3.org/2000/svg" xmlns:xlink="http://www.w3.org/1999/xlink"><title>many-to-many</title><defs><rect id="a" width="142" height="48" rx="2"/><mask id="u" x="0" y="0" width="142" height="48" fill="#fff"><use xlink:href="#a"/></mask><rect id="b" width="142" height="48" rx="2"/><mask id="v" x="0" y="0" width="142" height="48" fill="#fff"><use xlink:href="#b"/></mask><rect id="c" width="142" height="48" rx="2"/><mask id="w" x="0" y="0" width="142" height="48" fill="#fff"><use xlink:href="#c"/></mask><rect id="d" width="84" height="32" rx="2"/><mask id="x" x="0" y="0" width="84" height="32" fill="#fff"><use xlink:href="#d"/></mask><rect id="e" width="122" height="32" rx="2"/><mask id="y" x="0" y="0" width="122" height="32" fill="#fff"><use xlink:href="#e"/></mask><rect id="f" width="104" height="32" rx="2"/><mask id="z" x="0" y="0" width="104" height="32" fill="#fff"><use xlink:href="#f"/></mask><rect id="g" width="142" height="48" rx="2"/><mask id="A" x="0" y="0" width="142" height="48" fill="#fff"><use xlink:href="#g"/></mask><rect id="h" width="122" height="32" rx="2"/><mask id="B" x="0" y="0" width="122" height="32" fill="#fff"><use xlink:href="#h"/></mask><rect id="i" width="84" height="32" rx="2"/><mask id="C" x="0" y="0" width="84" height="32" fill="#fff"><use xlink:href="#i"/></mask><rect id="j" width="142" height="48" rx="2"/><mask id="D" x="0" y="0" width="142" height="48" fill="#fff"><use xlink:href="#j"/></mask><rect id="k" width="104" height="32" rx="2"/><mask id="E" x="0" y="0" width="104" height="32" fill="#fff"><use xlink:href="#k"/></mask><rect id="l" width="104" height="32" rx="2"/><mask id="F" x="0" y="0" width="104" height="32" fill="#fff"><use xlink:href="#l"/></mask><rect id="m" width="104" height="32" rx="2"/><mask id="G" x="0" y="0" width="104" height="32" fill="#fff"><use xlink:href="#m"/></mask><rect id="n" width="142" height="48" rx="2"/><mask id="H" x="0" y="0" width="142" height="48" fill="#fff"><use xlink:href="#n"/></mask><rect id="o" width="104" height="32" rx="2"/><mask id="I" x="0" y="0" width="104" height="32" fill="#fff"><use xlink:href="#o"/></mask><rect id="p" width="84" height="32" rx="2"/><mask id="J" x="0" y="0" width="84" height="32" fill="#fff"><use xlink:href="#p"/></mask><rect id="q" width="122" height="32" rx="2"/><mask id="K" x="0" y="0" width="122" height="32" fill="#fff"><use xlink:href="#q"/></mask><rect id="r" width="122" height="32" rx="2"/><mask id="L" x="0" y="0" width="122" height="32" fill="#fff"><use xlink:href="#r"/></mask><rect id="s" width="104" height="32" rx="2"/><mask id="M" x="0" y="0" width="104" height="32" fill="#fff"><use xlink:href="#s"/></mask><rect id="t" width="104" height="32" rx="2"/><mask id="N" x="0" y="0" width="104" height="32" fill="#fff"><use xlink:href="#t"/></mask></defs><g fill="none" fill-rule="evenodd"><path fill="#FFF" d="M0 11h736v414H0z"/><g transform="translate(26 31)"><rect fill="#E1F5FE" y="129" width="685" height="114" rx="2"/><path fill="#616161" d="M436 191.5l-.537-.5-2.463 2.65-2.463-2.65-.537.5 3 3.227zm154 0l-.537-.5-2.463 2.65-2.463-2.65-.537.5 3 3.227z"/><g transform="translate(105 323)"><use stroke="#E0E0E0" mask="url(#u)" stroke-width="2" fill="#FFF" xlink:href="#a"/><path d="M58.504 24.597c-.965-.277-1.667-.618-2.107-1.022a1.954 1.954 0 0 1-.659-1.497c0-.672.269-1.228.806-1.667.537-.44 1.235-.66 2.095-.66.586 0 1.108.114 1.567.34.459.227.815.54 1.066.938.252.398.378.834.378 1.307h-1.13c0-.516-.165-.921-.493-1.216-.328-.295-.79-.443-1.388-.443-.555 0-.988.122-1.298.367-.31.244-.466.583-.466 1.016 0 .348.147.642.442.882.295.24.797.46 1.506.66.71.198 1.264.418 1.664.658.4.24.698.52.89.841.194.32.291.697.291 1.131 0 .691-.27 1.245-.809 1.661-.539.416-1.26.624-2.162.624a4.01 4.01 0 0 1-1.64-.337c-.508-.224-.9-.532-1.175-.923a2.252 2.252 0 0 1-.413-1.33h1.13c0 .516.191.923.572 1.222.38.299.89.448 1.526.448.594 0 1.05-.12 1.365-.363.317-.242.475-.572.475-.99 0-.418-.146-.741-.44-.97-.292-.228-.824-.454-1.593-.677zm8.35 3.176c-.422.496-1.041.744-1.858.744-.676 0-1.19-.196-1.544-.589-.353-.392-.532-.973-.536-1.743V22.06H64v4.096c0 .96.39 1.441 1.172 1.441.828 0 1.379-.308 1.652-.926v-4.61h1.084V28.4h-1.031l-.023-.627zm8.068-2.473c0 .97-.223 1.747-.668 2.335-.445.588-1.043.882-1.793.882-.8 0-1.42-.283-1.857-.85l-.053.733h-.996v-9h1.084v3.357c.437-.543 1.04-.814 1.81-.814s1.374.291 1.814.873c.44.582.659 1.379.659 2.39v.094zm-1.084-.123c0-.738-.143-1.308-.428-1.71-.285-.403-.695-.604-1.23-.604-.715 0-1.229.332-1.541.996v2.742c.332.664.85.996 1.552.996.52 0 .924-.2 1.213-.603.29-.403.434-1.008.434-1.817zm6.14 1.541c0-.293-.11-.52-.33-.682-.221-.162-.606-.302-1.155-.42-.549-.116-.984-.257-1.306-.421-.323-.164-.561-.36-.715-.586a1.402 1.402 0 0 1-.232-.809c0-.52.22-.959.66-1.318.439-.36 1-.539 1.684-.539.719 0 1.302.186 1.749.557.447.37.67.845.67 1.423h-1.089c0-.296-.126-.552-.378-.767-.252-.215-.57-.322-.952-.322-.395 0-.703.086-.926.257a.812.812 0 0 0-.334.674c0 .262.104.46.31.592.208.133.582.26 1.123.38.54.122.98.267 1.315.434.336.168.585.37.747.607.162.236.243.524.243.864a1.62 1.62 0 0 1-.68 1.362c-.452.342-1.04.513-1.763.513-.508 0-.957-.09-1.348-.27a2.193 2.193 0 0 1-.917-.752 1.815 1.815 0 0 1-.33-1.046h1.083c.02.363.165.651.437.864.271.213.63.32 1.075.32.41 0 .74-.084.987-.25.248-.166.373-.387.373-.665zm5.04.914c.386 0 .724-.117 1.013-.351.29-.235.45-.527.48-.879h1.026c-.02.363-.144.709-.375 1.037a2.47 2.47 0 0 1-.923.785 2.663 2.663 0 0 1-1.221.293c-.864 0-1.55-.288-2.06-.864-.51-.576-.765-1.364-.765-2.364v-.182c0-.617.114-1.166.34-1.646.227-.48.552-.854.976-1.12.424-.265.925-.398 1.503-.398.71 0 1.301.213 1.772.639.47.425.722.978.753 1.658h-1.025a1.494 1.494 0 0 0-.466-1.01 1.45 1.45 0 0 0-1.034-.396c-.551 0-.978.198-1.28.594-.303.397-.455.97-.455 1.72v.205c0 .73.15 1.293.452 1.688.3.394.73.591 1.289.591zm6.802-4.6a3.248 3.248 0 0 0-.533-.04c-.71 0-1.193.303-1.447.908v4.5h-1.084v-6.34h1.055l.017.733c.356-.567.86-.85 1.512-.85.21 0 .37.027.48.082v1.008zm2.174 5.368H92.91v-6.34h1.084v6.34zm-1.172-8.021a.65.65 0 0 1 .161-.446c.108-.12.267-.181.478-.181.21 0 .371.06.48.181a.64.64 0 0 1 .164.446.62.62 0 0 1-.164.439c-.109.117-.27.176-.48.176-.211 0-.37-.059-.478-.176a.626.626 0 0 1-.16-.44zm8.274 4.921c0 .97-.223 1.747-.668 2.335-.446.588-1.043.882-1.793.882-.801 0-1.42-.283-1.858-.85l-.052.733h-.996v-9h1.084v3.357c.437-.543 1.04-.814 1.81-.814s1.374.291 1.814.873c.439.582.659 1.379.659 2.39v.094zm-1.084-.123c0-.738-.143-1.308-.428-1.71-.285-.403-.695-.604-1.23-.604-.715 0-1.229.332-1.541.996v2.742c.332.664.85.996 1.552.996.52 0 .924-.2 1.213-.603.29-.403.434-1.008.434-1.817zm5.08 3.34c-.86 0-1.559-.282-2.098-.846-.539-.565-.808-1.32-.808-2.265v-.2c0-.628.12-1.19.36-1.684s.576-.88 1.008-1.16c.431-.28.9-.419 1.403-.419.824 0 1.465.271 1.922.814.457.543.685 1.32.685 2.332v.452h-4.294c.015.625.198 1.13.547 1.514.35.385.794.577 1.333.577.383 0 .707-.078.973-.234.266-.156.498-.363.697-.621l.662.516c-.53.816-1.328 1.224-2.39 1.224zm-.135-5.683c-.437 0-.805.159-1.102.477-.296.318-.48.765-.55 1.339h3.175v-.082c-.03-.55-.18-.978-.445-1.28-.265-.303-.625-.454-1.078-.454zm6.926.199a3.248 3.248 0 0 0-.533-.041c-.711 0-1.194.303-1.448.908v4.5h-1.084v-6.34h1.055l.018.733c.355-.567.859-.85 1.511-.85.211 0 .371.027.48.082v1.008zm6.92.105l2.045-3.27h1.324l-2.695 4.231 2.76 4.301H120.9l-2.097-3.328-2.11 3.328h-1.33l2.766-4.3-2.701-4.231h1.318l2.057 3.27z" fill="#212121"/></g><g transform="translate(363 320)"><use stroke="#E0E0E0" mask="url(#v)" stroke-width="2" fill="#FFF" xlink:href="#b"/><path d="M58.504 24.597c-.965-.277-1.667-.618-2.107-1.022a1.954 1.954 0 0 1-.659-1.497c0-.672.269-1.228.806-1.667.537-.44 1.235-.66 2.095-.66.586 0 1.108.114 1.567.34.459.227.815.54 1.066.938.252.398.378.834.378 1.307h-1.13c0-.516-.165-.921-.493-1.216-.328-.295-.79-.443-1.388-.443-.555 0-.988.122-1.298.367-.31.244-.466.583-.466 1.016 0 .348.147.642.442.882.295.24.797.46 1.506.66.71.198 1.264.418 1.664.658.4.24.698.52.89.841.194.32.291.697.291 1.131 0 .691-.27 1.245-.809 1.661-.539.416-1.26.624-2.162.624a4.01 4.01 0 0 1-1.64-.337c-.508-.224-.9-.532-1.175-.923a2.252 2.252 0 0 1-.413-1.33h1.13c0 .516.191.923.572 1.222.38.299.89.448 1.526.448.594 0 1.05-.12 1.365-.363.317-.242.475-.572.475-.99 0-.418-.146-.741-.44-.97-.292-.228-.824-.454-1.593-.677zm8.35 3.176c-.422.496-1.041.744-1.858.744-.676 0-1.19-.196-1.544-.589-.353-.392-.532-.973-.536-1.743V22.06H64v4.096c0 .96.39 1.441 1.172 1.441.828 0 1.379-.308 1.652-.926v-4.61h1.084V28.4h-1.031l-.023-.627zm8.068-2.473c0 .97-.223 1.747-.668 2.335-.445.588-1.043.882-1.793.882-.8 0-1.42-.283-1.857-.85l-.053.733h-.996v-9h1.084v3.357c.437-.543 1.04-.814 1.81-.814s1.374.291 1.814.873c.44.582.659 1.379.659 2.39v.094zm-1.084-.123c0-.738-.143-1.308-.428-1.71-.285-.403-.695-.604-1.23-.604-.715 0-1.229.332-1.541.996v2.742c.332.664.85.996 1.552.996.52 0 .924-.2 1.213-.603.29-.403.434-1.008.434-1.817zm6.14 1.541c0-.293-.11-.52-.33-.682-.221-.162-.606-.302-1.155-.42-.549-.116-.984-.257-1.306-.421-.323-.164-.561-.36-.715-.586a1.402 1.402 0 0 1-.232-.809c0-.52.22-.959.66-1.318.439-.36 1-.539 1.684-.539.719 0 1.302.186 1.749.557.447.37.67.845.67 1.423h-1.089c0-.296-.126-.552-.378-.767-.252-.215-.57-.322-.952-.322-.395 0-.703.086-.926.257a.812.812 0 0 0-.334.674c0 .262.104.46.31.592.208.133.582.26 1.123.38.54.122.98.267 1.315.434.336.168.585.37.747.607.162.236.243.524.243.864a1.62 1.62 0 0 1-.68 1.362c-.452.342-1.04.513-1.763.513-.508 0-.957-.09-1.348-.27a2.193 2.193 0 0 1-.917-.752 1.815 1.815 0 0 1-.33-1.046h1.083c.02.363.165.651.437.864.271.213.63.32 1.075.32.41 0 .74-.084.987-.25.248-.166.373-.387.373-.665zm5.04.914c.386 0 .724-.117 1.013-.351.29-.235.45-.527.48-.879h1.026c-.02.363-.144.709-.375 1.037a2.47 2.47 0 0 1-.923.785 2.663 2.663 0 0 1-1.221.293c-.864 0-1.55-.288-2.06-.864-.51-.576-.765-1.364-.765-2.364v-.182c0-.617.114-1.166.34-1.646.227-.48.552-.854.976-1.12.424-.265.925-.398 1.503-.398.71 0 1.301.213 1.772.639.47.425.722.978.753 1.658h-1.025a1.494 1.494 0 0 0-.466-1.01 1.45 1.45 0 0 0-1.034-.396c-.551 0-.978.198-1.28.594-.303.397-.455.97-.455 1.72v.205c0 .73.15 1.293.452 1.688.3.394.73.591 1.289.591zm6.802-4.6a3.248 3.248 0 0 0-.533-.04c-.71 0-1.193.303-1.447.908v4.5h-1.084v-6.34h1.055l.017.733c.356-.567.86-.85 1.512-.85.21 0 .37.027.48.082v1.008zm2.174 5.368H92.91v-6.34h1.084v6.34zm-1.172-8.021a.65.65 0 0 1 .161-.446c.108-.12.267-.181.478-.181.21 0 .371.06.48.181a.64.64 0 0 1 .164.446.62.62 0 0 1-.164.439c-.109.117-.27.176-.48.176-.211 0-.37-.059-.478-.176a.626.626 0 0 1-.16-.44zm8.274 4.921c0 .97-.223 1.747-.668 2.335-.446.588-1.043.882-1.793.882-.801 0-1.42-.283-1.858-.85l-.052.733h-.996v-9h1.084v3.357c.437-.543 1.04-.814 1.81-.814s1.374.291 1.814.873c.439.582.659 1.379.659 2.39v.094zm-1.084-.123c0-.738-.143-1.308-.428-1.71-.285-.403-.695-.604-1.23-.604-.715 0-1.229.332-1.541.996v2.742c.332.664.85.996 1.552.996.52 0 .924-.2 1.213-.603.29-.403.434-1.008.434-1.817zm5.08 3.34c-.86 0-1.559-.282-2.098-.846-.539-.565-.808-1.32-.808-2.265v-.2c0-.628.12-1.19.36-1.684s.576-.88 1.008-1.16c.431-.28.9-.419 1.403-.419.824 0 1.465.271 1.922.814.457.543.685 1.32.685 2.332v.452h-4.294c.015.625.198 1.13.547 1.514.35.385.794.577 1.333.577.383 0 .707-.078.973-.234.266-.156.498-.363.697-.621l.662.516c-.53.816-1.328 1.224-2.39 1.224zm-.135-5.683c-.437 0-.805.159-1.102.477-.296.318-.48.765-.55 1.339h3.175v-.082c-.03-.55-.18-.978-.445-1.28-.265-.303-.625-.454-1.078-.454zm6.926.199a3.248 3.248 0 0 0-.533-.041c-.711 0-1.194.303-1.448.908v4.5h-1.084v-6.34h1.055l.018.733c.355-.567.859-.85 1.511-.85.211 0 .371.027.48.082v1.008zm6.738 1.119l2.227-4.283h1.277l-2.941 5.35V28.4h-1.125v-3.182l-2.942-5.35h1.29l2.214 4.284z" fill="#212121"/></g><g transform="translate(518 320)"><use stroke="#E0E0E0" mask="url(#w)" stroke-width="2" fill="#FFF" xlink:href="#c"/><path d="M58.504 24.597c-.965-.277-1.667-.618-2.107-1.022a1.954 1.954 0 0 1-.659-1.497c0-.672.269-1.228.806-1.667.537-.44 1.235-.66 2.095-.66.586 0 1.108.114 1.567.34.459.227.815.54 1.066.938.252.398.378.834.378 1.307h-1.13c0-.516-.165-.921-.493-1.216-.328-.295-.79-.443-1.388-.443-.555 0-.988.122-1.298.367-.31.244-.466.583-.466 1.016 0 .348.147.642.442.882.295.24.797.46 1.506.66.71.198 1.264.418 1.664.658.4.24.698.52.89.841.194.32.291.697.291 1.131 0 .691-.27 1.245-.809 1.661-.539.416-1.26.624-2.162.624a4.01 4.01 0 0 1-1.64-.337c-.508-.224-.9-.532-1.175-.923a2.252 2.252 0 0 1-.413-1.33h1.13c0 .516.191.923.572 1.222.38.299.89.448 1.526.448.594 0 1.05-.12 1.365-.363.317-.242.475-.572.475-.99 0-.418-.146-.741-.44-.97-.292-.228-.824-.454-1.593-.677zm8.35 3.176c-.422.496-1.041.744-1.858.744-.676 0-1.19-.196-1.544-.589-.353-.392-.532-.973-.536-1.743V22.06H64v4.096c0 .96.39 1.441 1.172 1.441.828 0 1.379-.308 1.652-.926v-4.61h1.084V28.4h-1.031l-.023-.627zm8.068-2.473c0 .97-.223 1.747-.668 2.335-.445.588-1.043.882-1.793.882-.8 0-1.42-.283-1.857-.85l-.053.733h-.996v-9h1.084v3.357c.437-.543 1.04-.814 1.81-.814s1.374.291 1.814.873c.44.582.659 1.379.659 2.39v.094zm-1.084-.123c0-.738-.143-1.308-.428-1.71-.285-.403-.695-.604-1.23-.604-.715 0-1.229.332-1.541.996v2.742c.332.664.85.996 1.552.996.52 0 .924-.2 1.213-.603.29-.403.434-1.008.434-1.817zm6.14 1.541c0-.293-.11-.52-.33-.682-.221-.162-.606-.302-1.155-.42-.549-.116-.984-.257-1.306-.421-.323-.164-.561-.36-.715-.586a1.402 1.402 0 0 1-.232-.809c0-.52.22-.959.66-1.318.439-.36 1-.539 1.684-.539.719 0 1.302.186 1.749.557.447.37.67.845.67 1.423h-1.089c0-.296-.126-.552-.378-.767-.252-.215-.57-.322-.952-.322-.395 0-.703.086-.926.257a.812.812 0 0 0-.334.674c0 .262.104.46.31.592.208.133.582.26 1.123.38.54.122.98.267 1.315.434.336.168.585.37.747.607.162.236.243.524.243.864a1.62 1.62 0 0 1-.68 1.362c-.452.342-1.04.513-1.763.513-.508 0-.957-.09-1.348-.27a2.193 2.193 0 0 1-.917-.752 1.815 1.815 0 0 1-.33-1.046h1.083c.02.363.165.651.437.864.271.213.63.32 1.075.32.41 0 .74-.084.987-.25.248-.166.373-.387.373-.665zm5.04.914c.386 0 .724-.117 1.013-.351.29-.235.45-.527.48-.879h1.026c-.02.363-.144.709-.375 1.037a2.47 2.47 0 0 1-.923.785 2.663 2.663 0 0 1-1.221.293c-.864 0-1.55-.288-2.06-.864-.51-.576-.765-1.364-.765-2.364v-.182c0-.617.114-1.166.34-1.646.227-.48.552-.854.976-1.12.424-.265.925-.398 1.503-.398.71 0 1.301.213 1.772.639.47.425.722.978.753 1.658h-1.025a1.494 1.494 0 0 0-.466-1.01 1.45 1.45 0 0 0-1.034-.396c-.551 0-.978.198-1.28.594-.303.397-.455.97-.455 1.72v.205c0 .73.15 1.293.452 1.688.3.394.73.591 1.289.591zm6.802-4.6a3.248 3.248 0 0 0-.533-.04c-.71 0-1.193.303-1.447.908v4.5h-1.084v-6.34h1.055l.017.733c.356-.567.86-.85 1.512-.85.21 0 .37.027.48.082v1.008zm2.174 5.368H92.91v-6.34h1.084v6.34zm-1.172-8.021a.65.65 0 0 1 .161-.446c.108-.12.267-.181.478-.181.21 0 .371.06.48.181a.64.64 0 0 1 .164.446.62.62 0 0 1-.164.439c-.109.117-.27.176-.48.176-.211 0-.37-.059-.478-.176a.626.626 0 0 1-.16-.44zm8.274 4.921c0 .97-.223 1.747-.668 2.335-.446.588-1.043.882-1.793.882-.801 0-1.42-.283-1.858-.85l-.052.733h-.996v-9h1.084v3.357c.437-.543 1.04-.814 1.81-.814s1.374.291 1.814.873c.439.582.659 1.379.659 2.39v.094zm-1.084-.123c0-.738-.143-1.308-.428-1.71-.285-.403-.695-.604-1.23-.604-.715 0-1.229.332-1.541.996v2.742c.332.664.85.996 1.552.996.52 0 .924-.2 1.213-.603.29-.403.434-1.008.434-1.817zm5.08 3.34c-.86 0-1.559-.282-2.098-.846-.539-.565-.808-1.32-.808-2.265v-.2c0-.628.12-1.19.36-1.684s.576-.88 1.008-1.16c.431-.28.9-.419 1.403-.419.824 0 1.465.271 1.922.814.457.543.685 1.32.685 2.332v.452h-4.294c.015.625.198 1.13.547 1.514.35.385.794.577 1.333.577.383 0 .707-.078.973-.234.266-.156.498-.363.697-.621l.662.516c-.53.816-1.328 1.224-2.39 1.224zm-.135-5.683c-.437 0-.805.159-1.102.477-.296.318-.48.765-.55 1.339h3.175v-.082c-.03-.55-.18-.978-.445-1.28-.265-.303-.625-.454-1.078-.454zm6.926.199a3.248 3.248 0 0 0-.533-.041c-.711 0-1.194.303-1.448.908v4.5h-1.084v-6.34h1.055l.018.733c.355-.567.859-.85 1.511-.85.211 0 .371.027.48.082v1.008zm4.98 4.447h4.881v.92h-6.21v-.844l4.675-6.761h-4.6v-.926h5.948v.826l-4.694 6.785z" fill="#212121"/><path d="M24.333 24.667c-3.107 0-9.333 1.56-9.333 4.667v3.333h9.333v-3c0-1.133.44-3.12 3.16-4.627-1.16-.24-2.28-.373-3.16-.373m10 1.333C31.893 26 27 27.227 27 29.667v3h14.666v-3c0-2.44-4.893-3.667-7.333-3.667m-10-4a3.983 3.983 0 0 0 3.987-4c0-2.213-1.774-4-3.987-4s-4 1.787-4 4c0 2.214 1.787 4 4 4m10 1.334c1.84 0 3.32-1.494 3.32-3.334s-1.48-3.333-3.32-3.333a3.334 3.334 0 0 0 0 6.667" fill="#616161"/></g><path d="M99.5 137.5L100 31" stroke="#616161" stroke-linecap="round"/><path fill="#616161" d="M102.5 135.5l-.537-.5-2.463 2.65-2.463-2.65-.537.5 3 3.227z"/><path d="M249.5 137.5L250 31" stroke="#616161" stroke-linecap="round"/><path fill="#616161" d="M252.5 135.5l-.537-.5-2.463 2.65-2.463-2.65-.537.5 3 3.227z"/><path d="M510.5 137.5L511 31" stroke="#616161" stroke-linecap="round"/><path fill="#616161" d="M513.5 135.5l-.537-.5-2.463 2.65-2.463-2.65-.537.5 3 3.227z"/><path d="M99.5 193.5v-30.067" stroke="#616161" stroke-linecap="round"/><path fill="#616161" d="M102.5 191.5l-.537-.5-2.463 2.65-2.463-2.65-.537.5 3 3.227z"/><path d="M249.5 193.5v-30.067" stroke="#616161" stroke-linecap="round"/><path fill="#616161" d="M252.5 191.5l-.537-.5-2.463 2.65-2.463-2.65-.537.5 3 3.227z"/><path d="M99.5 261.5v-39" stroke="#616161" stroke-linecap="round"/><path fill="#616161" d="M102.5 259.5l-.537-.5-2.463 2.65-2.463-2.65-.537.5 3 3.227z"/><path d="M433.5 262.5v-39" stroke="#616161" stroke-linecap="round"/><path fill="#616161" d="M436.5 260.5l-.537-.5-2.463 2.65-2.463-2.65-.537.5 3 3.227z"/><path d="M433.5 315.5v-39" stroke="#616161" stroke-linecap="round"/><path fill="#616161" d="M436.5 313.5l-.537-.5-2.463 2.65-2.463-2.65-.537.5 3 3.227z"/><path d="M249.5 261.5v-39" stroke="#616161" stroke-linecap="round"/><path fill="#616161" d="M252.5 259.5l-.537-.5-2.463 2.65-2.463-2.65-.537.5 3 3.227z"/><path d="M587.5 262.5v-39" stroke="#616161" stroke-linecap="round"/><path fill="#616161" d="M590.5 260.5l-.537-.5-2.463 2.65-2.463-2.65-.537.5 3 3.227z"/><path d="M587.5 315.5v-39" stroke="#616161" stroke-linecap="round"/><path fill="#616161" d="M590.5 313.5l-.537-.5-2.463 2.65-2.463-2.65-.537.5 3 3.227z"/><g transform="translate(55 140)"><use stroke="#E0E0E0" mask="url(#x)" stroke-width="2" fill="#FFF" xlink:href="#d"/><path d="M28.81 13.395h-2.742V21H24.95v-7.605h-2.736v-.926h6.598v.926zm.23 4.376c0-.62.121-1.18.365-1.675a2.732 2.732 0 0 1 1.02-1.149c.435-.27.932-.404 1.491-.404.863 0 1.562.299 2.095.896.533.598.8 1.393.8 2.385v.076c0 .618-.119 1.171-.355 1.662-.236.49-.574.872-1.014 1.145a2.81 2.81 0 0 1-1.514.41c-.86 0-1.556-.299-2.09-.896-.532-.598-.799-1.389-.799-2.373v-.077zm1.089.13c0 .703.163 1.267.49 1.693.325.426.762.638 1.309.638.55 0 .988-.215 1.312-.647.324-.432.487-1.036.487-1.814 0-.695-.165-1.258-.496-1.69a1.574 1.574 0 0 0-1.315-.647c-.535 0-.967.212-1.295.638-.328.426-.492 1.035-.492 1.828zm11.396 0c0 .964-.22 1.742-.662 2.331-.441.59-1.039.885-1.793.885-.77 0-1.375-.244-1.816-.732v3.052H36.17V14.66h.99l.053.703c.441-.547 1.055-.82 1.84-.82.761 0 1.364.287 1.807.861.444.575.665 1.373.665 2.397v.1zm-1.084-.124c0-.715-.152-1.279-.457-1.693-.304-.414-.722-.621-1.254-.621-.656 0-1.148.29-1.476.873v3.03c.324.577.82.866 1.488.866.52 0 .933-.206 1.24-.618.306-.412.46-1.024.46-1.837zM44.081 21h-1.085v-6.34h1.084V21zm-1.173-8.021a.65.65 0 0 1 .161-.446c.108-.12.267-.181.478-.181.21 0 .371.06.48.181a.64.64 0 0 1 .164.446.62.62 0 0 1-.164.439c-.109.117-.27.176-.48.176-.211 0-.37-.059-.478-.176a.626.626 0 0 1-.16-.44zm5.45 7.253c.386 0 .724-.117 1.013-.351.29-.235.45-.527.48-.879h1.026c-.02.363-.145.709-.375 1.037a2.47 2.47 0 0 1-.923.785 2.663 2.663 0 0 1-1.222.293c-.863 0-1.55-.288-2.06-.864-.509-.576-.764-1.364-.764-2.364v-.182c0-.617.113-1.166.34-1.646.227-.48.552-.854.976-1.12.423-.265.924-.398 1.503-.398.71 0 1.301.213 1.772.639.47.425.722.978.753 1.658h-1.025a1.494 1.494 0 0 0-.466-1.01 1.45 1.45 0 0 0-1.034-.396c-.551 0-.978.198-1.28.594-.303.397-.455.97-.455 1.72v.205c0 .73.15 1.293.451 1.688.301.394.73.591 1.29.591zm11.59-1.459h-3.575L55.57 21h-1.16l3.258-8.531h.984L61.916 21h-1.154l-.815-2.227zm-3.235-.925h2.9l-1.453-3.99-1.447 3.99z" fill="#212121"/></g><g transform="translate(36 197)"><use stroke="#E0E0E0" mask="url(#y)" stroke-width="2" fill="#FFF" xlink:href="#e"/><path d="M21.874 17.197c-.965-.277-1.667-.618-2.106-1.022a1.954 1.954 0 0 1-.66-1.497c0-.672.269-1.228.806-1.667.537-.44 1.235-.66 2.095-.66.586 0 1.108.114 1.567.34.46.227.815.54 1.067.938.252.398.378.834.378 1.307H23.89c0-.516-.164-.921-.493-1.216-.328-.295-.79-.443-1.388-.443-.555 0-.988.122-1.298.367-.31.244-.466.583-.466 1.016 0 .348.148.642.442.882.295.24.797.46 1.506.66.71.198 1.264.418 1.664.658.4.24.698.52.891.841.193.32.29.697.29 1.131 0 .691-.27 1.245-.809 1.661-.539.416-1.26.624-2.162.624a4.01 4.01 0 0 1-1.64-.337c-.508-.224-.9-.532-1.175-.923a2.252 2.252 0 0 1-.413-1.33h1.13c0 .516.191.923.572 1.222.38.299.89.448 1.526.448.594 0 1.05-.12 1.366-.363.316-.242.474-.572.474-.99 0-.418-.146-.741-.44-.97-.292-.228-.823-.454-1.593-.677zm8.35 3.176c-.422.496-1.041.744-1.858.744-.676 0-1.19-.196-1.544-.589-.353-.392-.532-.973-.536-1.743V14.66h1.084v4.096c0 .96.39 1.441 1.172 1.441.828 0 1.379-.308 1.652-.926v-4.61h1.084V21h-1.03l-.024-.627zm8.068-2.473c0 .97-.223 1.747-.668 2.335-.445.588-1.043.882-1.793.882-.8 0-1.42-.283-1.857-.85L33.92 21h-.996v-9h1.084v3.357c.437-.543 1.04-.814 1.81-.814s1.374.291 1.814.873c.44.582.659 1.379.659 2.39v.094zm-1.084-.123c0-.738-.143-1.308-.428-1.71-.285-.403-.695-.604-1.23-.604-.715 0-1.229.332-1.541.996v2.742c.332.664.85.996 1.553.996.52 0 .923-.2 1.212-.603.29-.403.434-1.008.434-1.817zm6.14 1.541c0-.293-.11-.52-.33-.682-.221-.162-.606-.302-1.155-.42-.549-.116-.984-.257-1.306-.421-.323-.164-.56-.36-.715-.586a1.402 1.402 0 0 1-.232-.809c0-.52.22-.959.66-1.318.439-.36 1-.539 1.684-.539.719 0 1.302.186 1.75.557.446.37.67.845.67 1.423h-1.09c0-.296-.126-.552-.378-.767-.252-.215-.57-.322-.952-.322-.394 0-.703.086-.926.257a.812.812 0 0 0-.334.674c0 .262.104.46.31.592.208.133.582.26 1.123.38.541.122.98.267 1.315.434.336.168.585.37.747.607.163.236.244.524.244.864 0 .567-.227 1.02-.68 1.362-.453.342-1.041.513-1.764.513-.508 0-.957-.09-1.347-.27a2.18 2.18 0 0 1-.917-.752 1.815 1.815 0 0 1-.331-1.046h1.084c.02.363.165.651.436.864.272.213.63.32 1.075.32.41 0 .74-.084.988-.25.248-.166.372-.387.372-.665zm5.04.914c.386 0 .724-.117 1.013-.351.29-.235.45-.527.48-.879h1.026c-.02.363-.144.709-.375 1.037a2.47 2.47 0 0 1-.923.785 2.663 2.663 0 0 1-1.221.293c-.864 0-1.55-.288-2.06-.864-.51-.576-.765-1.364-.765-2.364v-.182c0-.617.114-1.166.34-1.646.227-.48.552-.854.976-1.12.424-.265.925-.398 1.503-.398.71 0 1.302.213 1.772.639.471.425.722.978.753 1.658h-1.025a1.494 1.494 0 0 0-.466-1.01 1.45 1.45 0 0 0-1.034-.396c-.55 0-.978.198-1.28.594-.303.397-.455.97-.455 1.72v.205c0 .73.15 1.293.452 1.688.3.394.73.591 1.289.591zm6.802-4.6a3.248 3.248 0 0 0-.533-.04c-.71 0-1.193.303-1.447.908V21h-1.084v-6.34h1.055l.017.733c.356-.567.86-.85 1.512-.85.21 0 .371.027.48.082v1.008zM57.364 21H56.28v-6.34h1.084V21zm-1.172-8.021c0-.176.054-.325.162-.446.107-.12.266-.181.477-.181.211 0 .371.06.48.181a.64.64 0 0 1 .165.446.62.62 0 0 1-.164.439c-.11.117-.27.176-.48.176-.212 0-.371-.059-.478-.176a.626.626 0 0 1-.162-.44zm8.262 4.921c0 .965-.22 1.743-.662 2.332-.441.59-1.04.885-1.793.885-.77 0-1.375-.244-1.816-.732v3.052h-1.084V14.66h.99l.053.703c.441-.547 1.054-.82 1.84-.82.761 0 1.364.287 1.807.861.443.575.665 1.373.665 2.397v.1zm-1.084-.123c0-.715-.152-1.279-.457-1.693-.305-.414-.723-.621-1.254-.621-.656 0-1.148.29-1.476.873v3.03c.324.577.82.866 1.488.866.52 0 .933-.206 1.24-.618.306-.412.46-1.024.46-1.837zm3.932-4.652v1.535h1.183v.838h-1.183v3.932c0 .254.052.444.158.571.105.127.285.19.539.19.125 0 .297-.023.516-.07V21a3.143 3.143 0 0 1-.832.117c-.485 0-.85-.146-1.096-.44-.246-.292-.37-.708-.37-1.247v-3.932h-1.154v-.838h1.155v-1.535h1.084zM70.929 21h-1.084v-6.34h1.084V21zm-1.172-8.021a.65.65 0 0 1 .161-.446c.107-.12.267-.181.478-.181.21 0 .37.06.48.181a.64.64 0 0 1 .164.446.62.62 0 0 1-.164.439c-.11.117-.27.176-.48.176-.211 0-.37-.059-.478-.176a.626.626 0 0 1-.161-.44zm2.619 4.792c0-.62.122-1.18.366-1.675a2.732 2.732 0 0 1 1.02-1.149c.435-.27.932-.404 1.49-.404.864 0 1.562.299 2.096.896.533.598.8 1.393.8 2.385v.076c0 .618-.119 1.171-.355 1.662-.236.49-.574.872-1.014 1.145a2.81 2.81 0 0 1-1.514.41c-.86 0-1.556-.299-2.09-.896-.532-.598-.799-1.389-.799-2.373v-.077zm1.09.13c0 .703.163 1.267.49 1.693.325.426.762.638 1.309.638.55 0 .988-.215 1.312-.647.324-.432.486-1.036.486-1.814 0-.695-.165-1.258-.495-1.69a1.574 1.574 0 0 0-1.315-.647c-.535 0-.967.212-1.295.638-.328.426-.492 1.035-.492 1.828zm7.066-3.24l.035.796c.485-.61 1.118-.914 1.899-.914 1.34 0 2.015.756 2.027 2.268V21H83.41v-4.195c-.004-.457-.108-.795-.313-1.014-.205-.219-.525-.328-.958-.328-.352 0-.66.094-.926.281a1.91 1.91 0 0 0-.621.738V21h-1.084v-6.34h1.025zm11.52 1.077l2.045-3.27h1.324L92.726 16.7l2.76 4.3h-1.337l-2.097-3.328L89.942 21h-1.33l2.766-4.3-2.701-4.231h1.318l2.057 3.27zm9.45 3.035H97.93L97.126 21h-1.16l3.258-8.531h.984L103.472 21h-1.155l-.814-2.227zm-3.233-.925h2.9l-1.453-3.99-1.447 3.99z" fill="#212121"/></g><g transform="translate(45 74)"><use stroke="#E0E0E0" mask="url(#z)" stroke-width="2" fill="#F5F5F5" xlink:href="#f"/><path d="M25.176 12.469l2.789 6.96 2.789-6.96h1.459V21h-1.125v-3.322l.105-3.586-2.8 6.908h-.862l-2.795-6.89.112 3.568V21h-1.125v-8.531h1.453zm11.484 8.648c-.86 0-1.558-.282-2.097-.846-.54-.565-.81-1.32-.81-2.265v-.2c0-.628.121-1.19.361-1.684s.576-.88 1.008-1.16c.432-.28.9-.419 1.403-.419.825 0 1.465.271 1.922.814.457.543.686 1.32.686 2.332v.452h-4.295c.016.625.198 1.13.548 1.514.35.385.794.577 1.333.577.383 0 .707-.078.972-.234.266-.156.498-.363.698-.621l.662.516c-.531.816-1.328 1.224-2.39 1.224zm-.135-5.683c-.437 0-.804.159-1.101.477-.297.318-.48.765-.551 1.339h3.176v-.082c-.031-.55-.18-.978-.445-1.28-.266-.303-.625-.454-1.079-.454zm7.553 3.884c0-.293-.11-.52-.33-.682-.222-.162-.606-.302-1.155-.42-.55-.116-.985-.257-1.307-.421-.322-.164-.56-.36-.715-.586a1.402 1.402 0 0 1-.231-.809c0-.52.22-.959.659-1.318.44-.36 1.001-.539 1.685-.539.718 0 1.301.186 1.749.557.447.37.67.845.67 1.423h-1.09c0-.296-.125-.552-.377-.767-.252-.215-.57-.322-.952-.322-.395 0-.704.086-.926.257a.812.812 0 0 0-.334.674c0 .262.103.46.31.592.207.133.581.26 1.122.38.541.122.98.267 1.316.434.336.168.585.37.747.607.162.236.243.524.243.864a1.62 1.62 0 0 1-.68 1.362c-.453.342-1.04.513-1.763.513-.508 0-.957-.09-1.348-.27a2.193 2.193 0 0 1-.917-.752 1.815 1.815 0 0 1-.331-1.046h1.084c.02.363.165.651.437.864.271.213.63.32 1.075.32.41 0 .739-.084.987-.25.248-.166.372-.387.372-.665zm6.188 0c0-.293-.11-.52-.331-.682-.221-.162-.606-.302-1.155-.42-.549-.116-.984-.257-1.306-.421-.323-.164-.56-.36-.715-.586a1.402 1.402 0 0 1-.232-.809c0-.52.22-.959.66-1.318.439-.36 1-.539 1.684-.539.719 0 1.302.186 1.75.557.446.37.67.845.67 1.423h-1.09c0-.296-.126-.552-.378-.767-.252-.215-.57-.322-.952-.322-.394 0-.703.086-.926.257a.812.812 0 0 0-.334.674c0 .262.104.46.31.592.208.133.582.26 1.123.38.541.122.98.267 1.315.434.336.168.585.37.747.607.163.236.244.524.244.864 0 .567-.227 1.02-.68 1.362-.453.342-1.041.513-1.764.513-.508 0-.957-.09-1.347-.27a2.18 2.18 0 0 1-.917-.752 1.815 1.815 0 0 1-.331-1.046h1.084c.02.363.165.651.436.864.272.213.63.32 1.075.32.41 0 .74-.084.988-.25.248-.166.372-.387.372-.665zM56.676 21c-.063-.125-.113-.348-.153-.668-.503.523-1.105.785-1.804.785-.625 0-1.138-.177-1.538-.53-.4-.354-.6-.802-.6-1.345 0-.66.25-1.173.752-1.538s1.208-.548 2.118-.548h1.055v-.498c0-.379-.113-.68-.34-.905-.227-.225-.56-.337-1.002-.337-.387 0-.71.098-.973.293-.261.195-.392.432-.392.709h-1.09c0-.316.112-.622.337-.917a2.3 2.3 0 0 1 .914-.7 3.075 3.075 0 0 1 1.269-.258c.73 0 1.302.183 1.716.548.414.365.63.868.645 1.509v2.918c0 .582.074 1.044.222 1.388V21h-1.136zm-1.799-.826c.34 0 .662-.088.967-.264.304-.176.525-.404.662-.685v-1.301h-.85c-1.328 0-1.992.388-1.992 1.166 0 .34.113.605.34.797.226.191.517.287.873.287zm4.154-2.397c0-.988.229-1.774.686-2.358.457-.584 1.062-.876 1.816-.876.774 0 1.377.273 1.81.82l.053-.703h.99v6.188c0 .82-.242 1.466-.729 1.94-.486.472-1.14.708-1.96.708a3.26 3.26 0 0 1-1.342-.293c-.437-.195-.771-.463-1.001-.803l.562-.65c.465.574 1.033.861 1.705.861.527 0 .939-.148 1.233-.445.295-.297.443-.715.443-1.254v-.545c-.434.5-1.026.75-1.776.75-.742 0-1.342-.299-1.801-.896-.46-.598-.689-1.412-.689-2.444zm1.09.123c0 .715.147 1.277.44 1.685.293.408.703.612 1.23.612.684 0 1.186-.31 1.506-.931V16.37c-.332-.605-.83-.908-1.494-.908-.528 0-.94.205-1.237.615-.296.41-.445 1.018-.445 1.822zm8.531 3.217c-.859 0-1.558-.282-2.097-.846-.54-.565-.809-1.32-.809-2.265v-.2c0-.628.12-1.19.36-1.684s.577-.88 1.008-1.16c.432-.28.9-.419 1.404-.419.824 0 1.464.271 1.921.814.457.543.686 1.32.686 2.332v.452H66.83c.016.625.198 1.13.548 1.514.35.385.794.577 1.333.577.383 0 .707-.078.973-.234.265-.156.498-.363.697-.621l.662.516c-.531.816-1.328 1.224-2.39 1.224zm-.134-5.683c-.438 0-.805.159-1.102.477-.297.318-.48.765-.55 1.339h3.175v-.082c-.031-.55-.18-.978-.445-1.28-.266-.303-.625-.454-1.078-.454zM78.8 21h-1.09v-7.225l-2.186.803v-.984l3.106-1.166h.17V21z" fill="#212121"/></g><g transform="translate(26 1)"><use stroke="#E0E0E0" mask="url(#A)" stroke-width="2" fill="#FFF" xlink:href="#g"/><path d="M25.333 13.08a5.333 5.333 0 1 1 0 10.668 5.333 5.333 0 0 1 0-10.668zm0 13.333c-3.56 0-10.667 1.787-10.667 5.333v2.667H36v-2.667c0-3.546-7.107-5.333-10.667-5.333" fill="#616161"/><path d="M57.115 25.06v3.34H55.99v-8.531h3.147c.933 0 1.665.238 2.194.715.53.476.794 1.107.794 1.892 0 .828-.259 1.466-.776 1.913-.518.448-1.26.671-2.224.671h-2.01zm0-.92h2.022c.601 0 1.062-.141 1.383-.425.32-.283.48-.692.48-1.227 0-.508-.16-.914-.48-1.219-.32-.305-.76-.463-1.319-.474h-2.086v3.345zm10.19 3.633c-.422.496-1.041.744-1.858.744-.676 0-1.19-.196-1.544-.589-.353-.392-.532-.973-.536-1.743V22.06h1.084v4.096c0 .96.39 1.441 1.172 1.441.828 0 1.379-.308 1.652-.926v-4.61h1.084V28.4h-1.03l-.024-.627zm8.068-2.473c0 .97-.223 1.747-.668 2.335-.445.588-1.043.882-1.793.882-.8 0-1.42-.283-1.857-.85l-.053.733h-.996v-9h1.084v3.357c.437-.543 1.04-.814 1.81-.814s1.374.291 1.814.873c.44.582.659 1.379.659 2.39v.094zm-1.084-.123c0-.738-.143-1.308-.428-1.71-.285-.403-.695-.604-1.23-.604-.715 0-1.229.332-1.541.996v2.742c.332.664.85.996 1.553.996.52 0 .923-.2 1.212-.603.29-.403.434-1.008.434-1.817zm3.627 3.223h-1.084v-9h1.084v9zm2.912 0h-1.084v-6.34h1.084v6.34zm-1.172-8.021a.65.65 0 0 1 .161-.446c.108-.12.267-.181.478-.181.21 0 .371.06.48.181a.64.64 0 0 1 .164.446.62.62 0 0 1-.164.439c-.109.117-.27.176-.48.176-.211 0-.37-.059-.478-.176a.626.626 0 0 1-.16-.44zm6.598 6.34c0-.294-.11-.521-.331-.683-.22-.162-.606-.302-1.154-.42-.55-.116-.985-.257-1.307-.421-.322-.164-.56-.36-.715-.586a1.402 1.402 0 0 1-.231-.809c0-.52.22-.959.659-1.318.44-.36 1-.539 1.684-.539.72 0 1.302.186 1.75.557.447.37.67.845.67 1.423h-1.09c0-.296-.126-.552-.377-.767-.252-.215-.57-.322-.953-.322-.394 0-.703.086-.925.257a.812.812 0 0 0-.334.674c0 .262.103.46.31.592.207.133.581.26 1.122.38.541.122.98.267 1.316.434.336.168.585.37.747.607.162.236.243.524.243.864 0 .567-.227 1.02-.68 1.362-.453.342-1.04.513-1.763.513-.508 0-.957-.09-1.348-.27a2.193 2.193 0 0 1-.917-.752 1.815 1.815 0 0 1-.331-1.046h1.084c.02.363.165.651.436.864.272.213.63.32 1.076.32.41 0 .739-.084.987-.25.248-.166.372-.387.372-.665zm3.58-3.891c.48-.59 1.105-.885 1.875-.885 1.34 0 2.016.756 2.027 2.268V28.4h-1.084v-4.195c-.004-.457-.108-.795-.313-1.014-.205-.219-.525-.328-.958-.328-.352 0-.66.094-.926.281a1.91 1.91 0 0 0-.621.738V28.4H88.75v-9h1.084v3.428zm8.156 5.69c-.86 0-1.558-.283-2.097-.847-.54-.565-.809-1.32-.809-2.265v-.2c0-.628.12-1.19.36-1.684s.577-.88 1.008-1.16c.432-.28.9-.419 1.403-.419.825 0 1.465.271 1.922.814.457.543.686 1.32.686 2.332v.452h-4.295c.016.625.198 1.13.548 1.514.35.385.794.577 1.333.577.383 0 .707-.078.972-.234.266-.156.499-.363.698-.621l.662.516c-.531.816-1.328 1.224-2.39 1.224zm-.135-5.684c-.437 0-.804.159-1.101.477-.297.318-.48.765-.55 1.339h3.175v-.082c-.031-.55-.18-.978-.445-1.28-.266-.303-.625-.454-1.079-.454zm6.926.199a3.248 3.248 0 0 0-.533-.041c-.71 0-1.193.303-1.447.908v4.5h-1.084v-6.34h1.054l.018.733c.356-.567.86-.85 1.512-.85.21 0 .37.027.48.082v1.008zm8.848 3.14h-3.574l-.803 2.227h-1.16l3.258-8.531h.984l3.264 8.531h-1.155l-.814-2.227zm-3.234-.925h2.9l-1.453-3.99-1.447 3.99z" fill="#212121"/></g><g transform="translate(187 197)"><use stroke="#E0E0E0" mask="url(#B)" stroke-width="2" fill="#FFF" xlink:href="#h"/><path d="M22.053 17.197c-.965-.277-1.667-.618-2.107-1.022a1.954 1.954 0 0 1-.659-1.497c0-.672.269-1.228.806-1.667.537-.44 1.235-.66 2.095-.66.585 0 1.108.114 1.567.34.459.227.814.54 1.066.938.252.398.378.834.378 1.307h-1.13c0-.516-.165-.921-.493-1.216-.328-.295-.79-.443-1.389-.443-.554 0-.987.122-1.297.367-.31.244-.466.583-.466 1.016 0 .348.147.642.442.882.295.24.797.46 1.506.66.71.198 1.264.418 1.664.658.4.24.697.52.89.841.194.32.29.697.29 1.131 0 .691-.269 1.245-.808 1.661-.539.416-1.26.624-2.162.624a4.01 4.01 0 0 1-1.64-.337c-.508-.224-.9-.532-1.175-.923a2.252 2.252 0 0 1-.413-1.33h1.13c0 .516.19.923.572 1.222.38.299.89.448 1.526.448.594 0 1.049-.12 1.365-.363.317-.242.475-.572.475-.99 0-.418-.147-.741-.44-.97-.292-.228-.824-.454-1.593-.677zm8.35 3.176c-.423.496-1.042.744-1.858.744-.676 0-1.19-.196-1.544-.589-.354-.392-.532-.973-.536-1.743V14.66h1.084v4.096c0 .96.39 1.441 1.172 1.441.828 0 1.379-.308 1.652-.926v-4.61h1.084V21h-1.031l-.024-.627zM38.47 17.9c0 .97-.223 1.747-.668 2.335-.446.588-1.043.882-1.793.882-.801 0-1.42-.283-1.858-.85L34.1 21h-.996v-9h1.084v3.357c.437-.543 1.04-.814 1.81-.814s1.374.291 1.814.873c.439.582.659 1.379.659 2.39v.094zm-1.084-.123c0-.738-.143-1.308-.428-1.71-.285-.403-.695-.604-1.23-.604-.715 0-1.229.332-1.541.996v2.742c.332.664.85.996 1.552.996.52 0 .924-.2 1.213-.603.29-.403.434-1.008.434-1.817zm6.14 1.541c0-.293-.11-.52-.33-.682-.221-.162-.606-.302-1.155-.42-.549-.116-.984-.257-1.307-.421-.322-.164-.56-.36-.714-.586a1.402 1.402 0 0 1-.232-.809c0-.52.22-.959.66-1.318.439-.36 1-.539 1.684-.539.719 0 1.302.186 1.749.557.447.37.67.845.67 1.423h-1.09c0-.296-.125-.552-.377-.767-.252-.215-.57-.322-.952-.322-.395 0-.703.086-.926.257a.812.812 0 0 0-.334.674c0 .262.104.46.31.592.208.133.582.26 1.123.38.54.122.98.267 1.315.434.336.168.585.37.747.607.162.236.243.524.243.864a1.62 1.62 0 0 1-.68 1.362c-.452.342-1.04.513-1.763.513-.508 0-.957-.09-1.348-.27a2.193 2.193 0 0 1-.917-.752 1.815 1.815 0 0 1-.33-1.046h1.083c.02.363.165.651.437.864.271.213.63.32 1.075.32.41 0 .74-.084.987-.25.248-.166.372-.387.372-.665zm5.04.914c.386 0 .724-.117 1.013-.351.29-.235.45-.527.48-.879h1.026c-.02.363-.145.709-.375 1.037a2.47 2.47 0 0 1-.923.785 2.663 2.663 0 0 1-1.222.293c-.863 0-1.55-.288-2.06-.864-.509-.576-.764-1.364-.764-2.364v-.182c0-.617.113-1.166.34-1.646.227-.48.552-.854.976-1.12.423-.265.924-.398 1.503-.398.71 0 1.301.213 1.772.639.47.425.722.978.753 1.658H50.06a1.494 1.494 0 0 0-.466-1.01 1.45 1.45 0 0 0-1.034-.396c-.551 0-.978.198-1.28.594-.303.397-.455.97-.455 1.72v.205c0 .73.15 1.293.451 1.688.301.394.73.591 1.29.591zm6.802-4.6a3.248 3.248 0 0 0-.533-.04c-.711 0-1.193.303-1.447.908V21h-1.084v-6.34h1.054l.018.733c.355-.567.86-.85 1.512-.85.21 0 .37.027.48.082v1.008zM57.543 21h-1.084v-6.34h1.084V21zm-1.172-8.021a.65.65 0 0 1 .161-.446c.108-.12.267-.181.478-.181.21 0 .37.06.48.181a.64.64 0 0 1 .164.446.62.62 0 0 1-.164.439c-.11.117-.27.176-.48.176-.211 0-.37-.059-.478-.176a.626.626 0 0 1-.16-.44zm8.262 4.921c0 .965-.22 1.743-.662 2.332-.442.59-1.04.885-1.793.885-.77 0-1.375-.244-1.817-.732v3.052h-1.084V14.66h.99l.053.703c.442-.547 1.055-.82 1.84-.82.762 0 1.364.287 1.808.861.443.575.665 1.373.665 2.397v.1zm-1.084-.123c0-.715-.153-1.279-.457-1.693-.305-.414-.723-.621-1.254-.621-.656 0-1.149.29-1.477.873v3.03c.325.577.82.866 1.489.866.52 0 .932-.206 1.239-.618.307-.412.46-1.024.46-1.837zm3.931-4.652v1.535h1.184v.838H67.48v3.932c0 .254.053.444.159.571.105.127.285.19.539.19.125 0 .297-.023.515-.07V21a3.143 3.143 0 0 1-.832.117c-.484 0-.85-.146-1.095-.44-.246-.292-.37-.708-.37-1.247v-3.932h-1.154v-.838h1.154v-1.535h1.084zM71.107 21h-1.084v-6.34h1.084V21zm-1.171-8.021a.65.65 0 0 1 .16-.446c.108-.12.267-.181.478-.181.211 0 .371.06.48.181a.64.64 0 0 1 .165.446.62.62 0 0 1-.164.439c-.11.117-.27.176-.48.176-.212 0-.37-.059-.478-.176a.626.626 0 0 1-.161-.44zm2.619 4.792c0-.62.122-1.18.366-1.675a2.732 2.732 0 0 1 1.02-1.149c.435-.27.932-.404 1.49-.404.864 0 1.562.299 2.095.896.534.598.8 1.393.8 2.385v.076c0 .618-.118 1.171-.354 1.662-.237.49-.575.872-1.014 1.145-.44.273-.944.41-1.515.41-.859 0-1.555-.299-2.089-.896-.533-.598-.8-1.389-.8-2.373v-.077zm1.09.13c0 .703.163 1.267.489 1.693.326.426.762.638 1.31.638.55 0 .988-.215 1.312-.647.324-.432.486-1.036.486-1.814 0-.695-.165-1.258-.495-1.69a1.574 1.574 0 0 0-1.315-.647c-.536 0-.967.212-1.295.638-.328.426-.492 1.035-.492 1.828zm7.066-3.24l.035.796c.484-.61 1.117-.914 1.899-.914 1.34 0 2.015.756 2.027 2.268V21h-1.084v-4.195c-.004-.457-.109-.795-.314-1.014-.205-.219-.524-.328-.958-.328-.351 0-.66.094-.925.281a1.91 1.91 0 0 0-.621.738V21h-1.084v-6.34h1.025zm11.52 1.077l2.044-3.27H95.6L92.904 16.7l2.76 4.3h-1.336l-2.098-3.328L90.121 21h-1.33l2.766-4.3-2.702-4.231h1.319l2.056 3.27zM96.97 21v-8.531h2.789c.926 0 1.622.191 2.089.574.466.383.7.95.7 1.7 0 .398-.113.75-.34 1.057a2.203 2.203 0 0 1-.926.712c.461.129.825.374 1.093.735s.401.792.401 1.292c0 .766-.248 1.367-.744 1.805-.496.437-1.197.656-2.103.656h-2.96zm1.125-3.99v3.07h1.857c.524 0 .937-.136 1.24-.407.302-.272.453-.646.453-1.122 0-1.028-.558-1.541-1.675-1.541h-1.875zm0-.903h1.699c.492 0 .886-.123 1.18-.369.296-.246.443-.58.443-1.002 0-.468-.137-.81-.41-1.022-.274-.213-.69-.32-1.248-.32h-1.664v2.713z" fill="#212121"/></g><g transform="translate(206 140)"><use stroke="#E0E0E0" mask="url(#C)" stroke-width="2" fill="#FFF" xlink:href="#i"/><path d="M28.99 13.395h-2.743V21h-1.12v-7.605h-2.735v-.926h6.597v.926zm.228 4.376c0-.62.122-1.18.366-1.675a2.732 2.732 0 0 1 1.02-1.149c.435-.27.932-.404 1.49-.404.864 0 1.562.299 2.095.896.534.598.8 1.393.8 2.385v.076c0 .618-.118 1.171-.354 1.662a2.69 2.69 0 0 1-1.014 1.145c-.44.273-.944.41-1.515.41-.859 0-1.555-.299-2.088-.896-.534-.598-.8-1.389-.8-2.373v-.077zm1.09.13c0 .703.163 1.267.489 1.693.326.426.763.638 1.31.638.55 0 .988-.215 1.312-.647.324-.432.486-1.036.486-1.814 0-.695-.165-1.258-.495-1.69a1.574 1.574 0 0 0-1.315-.647c-.535 0-.967.212-1.295.638-.328.426-.492 1.035-.492 1.828zm11.396 0c0 .964-.22 1.742-.662 2.331-.441.59-1.04.885-1.793.885-.77 0-1.375-.244-1.816-.732v3.052h-1.084V14.66h.99l.053.703c.441-.547 1.054-.82 1.84-.82.761 0 1.364.287 1.807.861.443.575.665 1.373.665 2.397v.1zm-1.084-.124c0-.715-.152-1.279-.457-1.693-.305-.414-.723-.621-1.254-.621-.656 0-1.148.29-1.476.873v3.03c.324.577.82.866 1.488.866.52 0 .933-.206 1.24-.618.306-.412.46-1.024.46-1.837zM44.26 21h-1.084v-6.34h1.084V21zm-1.172-8.021a.65.65 0 0 1 .161-.446c.107-.12.267-.181.478-.181.21 0 .37.06.48.181a.64.64 0 0 1 .164.446.62.62 0 0 1-.164.439c-.11.117-.27.176-.48.176-.211 0-.37-.059-.478-.176a.626.626 0 0 1-.161-.44zm5.45 7.253c.386 0 .724-.117 1.013-.351.289-.235.449-.527.48-.879h1.026c-.02.363-.145.709-.375 1.037a2.47 2.47 0 0 1-.923.785 2.663 2.663 0 0 1-1.222.293c-.863 0-1.55-.288-2.06-.864-.51-.576-.764-1.364-.764-2.364v-.182c0-.617.113-1.166.34-1.646.226-.48.552-.854.975-1.12.424-.265.925-.398 1.503-.398.711 0 1.302.213 1.773.639.47.425.721.978.753 1.658H50.03a1.494 1.494 0 0 0-.466-1.01 1.45 1.45 0 0 0-1.034-.396c-.55 0-.977.198-1.28.594-.303.397-.454.97-.454 1.72v.205c0 .73.15 1.293.451 1.688.3.394.73.591 1.29.591zm6.878.768v-8.531h2.79c.925 0 1.621.191 2.088.574.467.383.7.95.7 1.7 0 .398-.113.75-.34 1.057a2.203 2.203 0 0 1-.925.712c.46.129.825.374 1.092.735.268.361.402.792.402 1.292 0 .766-.248 1.367-.744 1.805-.497.437-1.198.656-2.104.656h-2.959zm1.125-3.99v3.07h1.857c.524 0 .937-.136 1.24-.407.302-.272.454-.646.454-1.122 0-1.028-.559-1.541-1.676-1.541H56.54zm0-.903h1.7c.491 0 .885-.123 1.18-.369.295-.246.442-.58.442-1.002 0-.468-.136-.81-.41-1.022-.273-.213-.69-.32-1.248-.32H56.54v2.713z" fill="#212121"/></g><g transform="translate(177 1)"><use stroke="#E0E0E0" mask="url(#D)" stroke-width="2" fill="#FFF" xlink:href="#j"/><path d="M25.333 13.08a5.333 5.333 0 1 1 0 10.668 5.333 5.333 0 0 1 0-10.668zm0 13.333c-3.56 0-10.667 1.787-10.667 5.333v2.667H36v-2.667c0-3.546-7.107-5.333-10.667-5.333" fill="#616161"/><path d="M57.115 25.06v3.34H55.99v-8.531h3.147c.933 0 1.665.238 2.194.715.53.476.794 1.107.794 1.892 0 .828-.259 1.466-.776 1.913-.518.448-1.26.671-2.224.671h-2.01zm0-.92h2.022c.601 0 1.062-.141 1.383-.425.32-.283.48-.692.48-1.227 0-.508-.16-.914-.48-1.219-.32-.305-.76-.463-1.319-.474h-2.086v3.345zm10.19 3.633c-.422.496-1.041.744-1.858.744-.676 0-1.19-.196-1.544-.589-.353-.392-.532-.973-.536-1.743V22.06h1.084v4.096c0 .96.39 1.441 1.172 1.441.828 0 1.379-.308 1.652-.926v-4.61h1.084V28.4h-1.03l-.024-.627zm8.068-2.473c0 .97-.223 1.747-.668 2.335-.445.588-1.043.882-1.793.882-.8 0-1.42-.283-1.857-.85l-.053.733h-.996v-9h1.084v3.357c.437-.543 1.04-.814 1.81-.814s1.374.291 1.814.873c.44.582.659 1.379.659 2.39v.094zm-1.084-.123c0-.738-.143-1.308-.428-1.71-.285-.403-.695-.604-1.23-.604-.715 0-1.229.332-1.541.996v2.742c.332.664.85.996 1.553.996.52 0 .923-.2 1.212-.603.29-.403.434-1.008.434-1.817zm3.627 3.223h-1.084v-9h1.084v9zm2.912 0h-1.084v-6.34h1.084v6.34zm-1.172-8.021a.65.65 0 0 1 .161-.446c.108-.12.267-.181.478-.181.21 0 .371.06.48.181a.64.64 0 0 1 .164.446.62.62 0 0 1-.164.439c-.109.117-.27.176-.48.176-.211 0-.37-.059-.478-.176a.626.626 0 0 1-.16-.44zm6.598 6.34c0-.294-.11-.521-.331-.683-.22-.162-.606-.302-1.154-.42-.55-.116-.985-.257-1.307-.421-.322-.164-.56-.36-.715-.586a1.402 1.402 0 0 1-.231-.809c0-.52.22-.959.659-1.318.44-.36 1-.539 1.684-.539.72 0 1.302.186 1.75.557.447.37.67.845.67 1.423h-1.09c0-.296-.126-.552-.377-.767-.252-.215-.57-.322-.953-.322-.394 0-.703.086-.925.257a.812.812 0 0 0-.334.674c0 .262.103.46.31.592.207.133.581.26 1.122.38.541.122.98.267 1.316.434.336.168.585.37.747.607.162.236.243.524.243.864 0 .567-.227 1.02-.68 1.362-.453.342-1.04.513-1.763.513-.508 0-.957-.09-1.348-.27a2.193 2.193 0 0 1-.917-.752 1.815 1.815 0 0 1-.331-1.046h1.084c.02.363.165.651.436.864.272.213.63.32 1.076.32.41 0 .739-.084.987-.25.248-.166.372-.387.372-.665zm3.58-3.891c.48-.59 1.105-.885 1.875-.885 1.34 0 2.016.756 2.027 2.268V28.4h-1.084v-4.195c-.004-.457-.108-.795-.313-1.014-.205-.219-.525-.328-.958-.328-.352 0-.66.094-.926.281a1.91 1.91 0 0 0-.621.738V28.4H88.75v-9h1.084v3.428zm8.156 5.69c-.86 0-1.558-.283-2.097-.847-.54-.565-.809-1.32-.809-2.265v-.2c0-.628.12-1.19.36-1.684s.577-.88 1.008-1.16c.432-.28.9-.419 1.403-.419.825 0 1.465.271 1.922.814.457.543.686 1.32.686 2.332v.452h-4.295c.016.625.198 1.13.548 1.514.35.385.794.577 1.333.577.383 0 .707-.078.972-.234.266-.156.499-.363.698-.621l.662.516c-.531.816-1.328 1.224-2.39 1.224zm-.135-5.684c-.437 0-.804.159-1.101.477-.297.318-.48.765-.55 1.339h3.175v-.082c-.031-.55-.18-.978-.445-1.28-.266-.303-.625-.454-1.079-.454zm6.926.199a3.248 3.248 0 0 0-.533-.041c-.71 0-1.193.303-1.447.908v4.5h-1.084v-6.34h1.054l.018.733c.356-.567.86-.85 1.512-.85.21 0 .37.027.48.082v1.008zm4.137 5.367v-8.531h2.789c.926 0 1.622.191 2.089.574.467.383.7.95.7 1.7 0 .398-.113.75-.34 1.057a2.203 2.203 0 0 1-.926.712c.461.129.826.374 1.093.735.268.361.402.792.402 1.292 0 .766-.248 1.367-.745 1.805-.496.437-1.197.656-2.103.656h-2.959zm1.125-3.99v3.07h1.857c.524 0 .937-.136 1.24-.407.302-.272.454-.646.454-1.122 0-1.028-.559-1.541-1.676-1.541h-1.875zm0-.903h1.7c.491 0 .885-.123 1.18-.369.295-.246.442-.58.442-1.002 0-.468-.136-.81-.41-1.022-.273-.213-.69-.32-1.248-.32h-1.664v2.713z" fill="#212121"/></g><g transform="translate(196 74)"><use stroke="#E0E0E0" mask="url(#E)" stroke-width="2" fill="#F5F5F5" xlink:href="#k"/><path d="M25.176 12.469l2.789 6.96 2.789-6.96h1.459V21h-1.125v-3.322l.105-3.586-2.8 6.908h-.862l-2.795-6.89.112 3.568V21h-1.125v-8.531h1.453zm11.484 8.648c-.86 0-1.558-.282-2.097-.846-.54-.565-.81-1.32-.81-2.265v-.2c0-.628.121-1.19.361-1.684s.576-.88 1.008-1.16c.432-.28.9-.419 1.403-.419.825 0 1.465.271 1.922.814.457.543.686 1.32.686 2.332v.452h-4.295c.016.625.198 1.13.548 1.514.35.385.794.577 1.333.577.383 0 .707-.078.972-.234.266-.156.498-.363.698-.621l.662.516c-.531.816-1.328 1.224-2.39 1.224zm-.135-5.683c-.437 0-.804.159-1.101.477-.297.318-.48.765-.551 1.339h3.176v-.082c-.031-.55-.18-.978-.445-1.28-.266-.303-.625-.454-1.079-.454zm7.553 3.884c0-.293-.11-.52-.33-.682-.222-.162-.606-.302-1.155-.42-.55-.116-.985-.257-1.307-.421-.322-.164-.56-.36-.715-.586a1.402 1.402 0 0 1-.231-.809c0-.52.22-.959.659-1.318.44-.36 1.001-.539 1.685-.539.718 0 1.301.186 1.749.557.447.37.67.845.67 1.423h-1.09c0-.296-.125-.552-.377-.767-.252-.215-.57-.322-.952-.322-.395 0-.704.086-.926.257a.812.812 0 0 0-.334.674c0 .262.103.46.31.592.207.133.581.26 1.122.38.541.122.98.267 1.316.434.336.168.585.37.747.607.162.236.243.524.243.864a1.62 1.62 0 0 1-.68 1.362c-.453.342-1.04.513-1.763.513-.508 0-.957-.09-1.348-.27a2.193 2.193 0 0 1-.917-.752 1.815 1.815 0 0 1-.331-1.046h1.084c.02.363.165.651.437.864.271.213.63.32 1.075.32.41 0 .739-.084.987-.25.248-.166.372-.387.372-.665zm6.188 0c0-.293-.11-.52-.331-.682-.221-.162-.606-.302-1.155-.42-.549-.116-.984-.257-1.306-.421-.323-.164-.56-.36-.715-.586a1.402 1.402 0 0 1-.232-.809c0-.52.22-.959.66-1.318.439-.36 1-.539 1.684-.539.719 0 1.302.186 1.75.557.446.37.67.845.67 1.423h-1.09c0-.296-.126-.552-.378-.767-.252-.215-.57-.322-.952-.322-.394 0-.703.086-.926.257a.812.812 0 0 0-.334.674c0 .262.104.46.31.592.208.133.582.26 1.123.38.541.122.98.267 1.315.434.336.168.585.37.747.607.163.236.244.524.244.864 0 .567-.227 1.02-.68 1.362-.453.342-1.041.513-1.764.513-.508 0-.957-.09-1.347-.27a2.18 2.18 0 0 1-.917-.752 1.815 1.815 0 0 1-.331-1.046h1.084c.02.363.165.651.436.864.272.213.63.32 1.075.32.41 0 .74-.084.988-.25.248-.166.372-.387.372-.665zM56.676 21c-.063-.125-.113-.348-.153-.668-.503.523-1.105.785-1.804.785-.625 0-1.138-.177-1.538-.53-.4-.354-.6-.802-.6-1.345 0-.66.25-1.173.752-1.538s1.208-.548 2.118-.548h1.055v-.498c0-.379-.113-.68-.34-.905-.227-.225-.56-.337-1.002-.337-.387 0-.71.098-.973.293-.261.195-.392.432-.392.709h-1.09c0-.316.112-.622.337-.917a2.3 2.3 0 0 1 .914-.7 3.075 3.075 0 0 1 1.269-.258c.73 0 1.302.183 1.716.548.414.365.63.868.645 1.509v2.918c0 .582.074 1.044.222 1.388V21h-1.136zm-1.799-.826c.34 0 .662-.088.967-.264.304-.176.525-.404.662-.685v-1.301h-.85c-1.328 0-1.992.388-1.992 1.166 0 .34.113.605.34.797.226.191.517.287.873.287zm4.154-2.397c0-.988.229-1.774.686-2.358.457-.584 1.062-.876 1.816-.876.774 0 1.377.273 1.81.82l.053-.703h.99v6.188c0 .82-.242 1.466-.729 1.94-.486.472-1.14.708-1.96.708a3.26 3.26 0 0 1-1.342-.293c-.437-.195-.771-.463-1.001-.803l.562-.65c.465.574 1.033.861 1.705.861.527 0 .939-.148 1.233-.445.295-.297.443-.715.443-1.254v-.545c-.434.5-1.026.75-1.776.75-.742 0-1.342-.299-1.801-.896-.46-.598-.689-1.412-.689-2.444zm1.09.123c0 .715.147 1.277.44 1.685.293.408.703.612 1.23.612.684 0 1.186-.31 1.506-.931V16.37c-.332-.605-.83-.908-1.494-.908-.528 0-.94.205-1.237.615-.296.41-.445 1.018-.445 1.822zm8.531 3.217c-.859 0-1.558-.282-2.097-.846-.54-.565-.809-1.32-.809-2.265v-.2c0-.628.12-1.19.36-1.684s.577-.88 1.008-1.16c.432-.28.9-.419 1.404-.419.824 0 1.464.271 1.921.814.457.543.686 1.32.686 2.332v.452H66.83c.016.625.198 1.13.548 1.514.35.385.794.577 1.333.577.383 0 .707-.078.973-.234.265-.156.498-.363.697-.621l.662.516c-.531.816-1.328 1.224-2.39 1.224zm-.134-5.683c-.438 0-.805.159-1.102.477-.297.318-.48.765-.55 1.339h3.175v-.082c-.031-.55-.18-.978-.445-1.28-.266-.303-.625-.454-1.078-.454zM80.828 21h-5.59v-.78l2.953-3.28c.438-.497.74-.9.906-1.21a2.02 2.02 0 0 0 .249-.964c0-.446-.135-.81-.405-1.096-.27-.285-.628-.428-1.078-.428-.539 0-.958.154-1.257.46-.298.307-.448.734-.448 1.28h-1.084c0-.785.253-1.42.759-1.904s1.183-.726 2.03-.726c.793 0 1.42.208 1.881.624.461.416.692.97.692 1.66 0 .84-.536 1.84-1.606 3l-2.285 2.48h4.283V21z" fill="#212121"/></g><path stroke="#616161" d="M99 297v11h64v10m87-21v11h-64v10"/><path fill="#616161" d="M166 315.5l-.537-.5-2.463 2.65-2.463-2.65-.537.5 3 3.227zm23 0l-.537-.5-2.463 2.65-2.463-2.65-.537.5 3 3.227z"/><g transform="translate(45 266)"><use stroke="#E0E0E0" mask="url(#F)" stroke-width="2" fill="#F5F5F5" xlink:href="#l"/><path d="M25.176 12.469l2.789 6.96 2.789-6.96h1.459V21h-1.125v-3.322l.105-3.586-2.8 6.908h-.862l-2.795-6.89.112 3.568V21h-1.125v-8.531h1.453zm11.484 8.648c-.86 0-1.558-.282-2.097-.846-.54-.565-.81-1.32-.81-2.265v-.2c0-.628.121-1.19.361-1.684s.576-.88 1.008-1.16c.432-.28.9-.419 1.403-.419.825 0 1.465.271 1.922.814.457.543.686 1.32.686 2.332v.452h-4.295c.016.625.198 1.13.548 1.514.35.385.794.577 1.333.577.383 0 .707-.078.972-.234.266-.156.498-.363.698-.621l.662.516c-.531.816-1.328 1.224-2.39 1.224zm-.135-5.683c-.437 0-.804.159-1.101.477-.297.318-.48.765-.551 1.339h3.176v-.082c-.031-.55-.18-.978-.445-1.28-.266-.303-.625-.454-1.079-.454zm7.553 3.884c0-.293-.11-.52-.33-.682-.222-.162-.606-.302-1.155-.42-.55-.116-.985-.257-1.307-.421-.322-.164-.56-.36-.715-.586a1.402 1.402 0 0 1-.231-.809c0-.52.22-.959.659-1.318.44-.36 1.001-.539 1.685-.539.718 0 1.301.186 1.749.557.447.37.67.845.67 1.423h-1.09c0-.296-.125-.552-.377-.767-.252-.215-.57-.322-.952-.322-.395 0-.704.086-.926.257a.812.812 0 0 0-.334.674c0 .262.103.46.31.592.207.133.581.26 1.122.38.541.122.98.267 1.316.434.336.168.585.37.747.607.162.236.243.524.243.864a1.62 1.62 0 0 1-.68 1.362c-.453.342-1.04.513-1.763.513-.508 0-.957-.09-1.348-.27a2.193 2.193 0 0 1-.917-.752 1.815 1.815 0 0 1-.331-1.046h1.084c.02.363.165.651.437.864.271.213.63.32 1.075.32.41 0 .739-.084.987-.25.248-.166.372-.387.372-.665zm6.188 0c0-.293-.11-.52-.331-.682-.221-.162-.606-.302-1.155-.42-.549-.116-.984-.257-1.306-.421-.323-.164-.56-.36-.715-.586a1.402 1.402 0 0 1-.232-.809c0-.52.22-.959.66-1.318.439-.36 1-.539 1.684-.539.719 0 1.302.186 1.75.557.446.37.67.845.67 1.423h-1.09c0-.296-.126-.552-.378-.767-.252-.215-.57-.322-.952-.322-.394 0-.703.086-.926.257a.812.812 0 0 0-.334.674c0 .262.104.46.31.592.208.133.582.26 1.123.38.541.122.98.267 1.315.434.336.168.585.37.747.607.163.236.244.524.244.864 0 .567-.227 1.02-.68 1.362-.453.342-1.041.513-1.764.513-.508 0-.957-.09-1.347-.27a2.18 2.18 0 0 1-.917-.752 1.815 1.815 0 0 1-.331-1.046h1.084c.02.363.165.651.436.864.272.213.63.32 1.075.32.41 0 .74-.084.988-.25.248-.166.372-.387.372-.665zM56.676 21c-.063-.125-.113-.348-.153-.668-.503.523-1.105.785-1.804.785-.625 0-1.138-.177-1.538-.53-.4-.354-.6-.802-.6-1.345 0-.66.25-1.173.752-1.538s1.208-.548 2.118-.548h1.055v-.498c0-.379-.113-.68-.34-.905-.227-.225-.56-.337-1.002-.337-.387 0-.71.098-.973.293-.261.195-.392.432-.392.709h-1.09c0-.316.112-.622.337-.917a2.3 2.3 0 0 1 .914-.7 3.075 3.075 0 0 1 1.269-.258c.73 0 1.302.183 1.716.548.414.365.63.868.645 1.509v2.918c0 .582.074 1.044.222 1.388V21h-1.136zm-1.799-.826c.34 0 .662-.088.967-.264.304-.176.525-.404.662-.685v-1.301h-.85c-1.328 0-1.992.388-1.992 1.166 0 .34.113.605.34.797.226.191.517.287.873.287zm4.154-2.397c0-.988.229-1.774.686-2.358.457-.584 1.062-.876 1.816-.876.774 0 1.377.273 1.81.82l.053-.703h.99v6.188c0 .82-.242 1.466-.729 1.94-.486.472-1.14.708-1.96.708a3.26 3.26 0 0 1-1.342-.293c-.437-.195-.771-.463-1.001-.803l.562-.65c.465.574 1.033.861 1.705.861.527 0 .939-.148 1.233-.445.295-.297.443-.715.443-1.254v-.545c-.434.5-1.026.75-1.776.75-.742 0-1.342-.299-1.801-.896-.46-.598-.689-1.412-.689-2.444zm1.09.123c0 .715.147 1.277.44 1.685.293.408.703.612 1.23.612.684 0 1.186-.31 1.506-.931V16.37c-.332-.605-.83-.908-1.494-.908-.528 0-.94.205-1.237.615-.296.41-.445 1.018-.445 1.822zm8.531 3.217c-.859 0-1.558-.282-2.097-.846-.54-.565-.809-1.32-.809-2.265v-.2c0-.628.12-1.19.36-1.684s.577-.88 1.008-1.16c.432-.28.9-.419 1.404-.419.824 0 1.464.271 1.921.814.457.543.686 1.32.686 2.332v.452H66.83c.016.625.198 1.13.548 1.514.35.385.794.577 1.333.577.383 0 .707-.078.973-.234.265-.156.498-.363.697-.621l.662.516c-.531.816-1.328 1.224-2.39 1.224zm-.134-5.683c-.438 0-.805.159-1.102.477-.297.318-.48.765-.55 1.339h3.175v-.082c-.031-.55-.18-.978-.445-1.28-.266-.303-.625-.454-1.078-.454zM78.8 21h-1.09v-7.225l-2.186.803v-.984l3.106-1.166h.17V21z" fill="#212121"/></g><g transform="translate(196 266)"><use stroke="#E0E0E0" mask="url(#G)" stroke-width="2" fill="#F5F5F5" xlink:href="#m"/><path d="M25.176 12.469l2.789 6.96 2.789-6.96h1.459V21h-1.125v-3.322l.105-3.586-2.8 6.908h-.862l-2.795-6.89.112 3.568V21h-1.125v-8.531h1.453zm11.484 8.648c-.86 0-1.558-.282-2.097-.846-.54-.565-.81-1.32-.81-2.265v-.2c0-.628.121-1.19.361-1.684s.576-.88 1.008-1.16c.432-.28.9-.419 1.403-.419.825 0 1.465.271 1.922.814.457.543.686 1.32.686 2.332v.452h-4.295c.016.625.198 1.13.548 1.514.35.385.794.577 1.333.577.383 0 .707-.078.972-.234.266-.156.498-.363.698-.621l.662.516c-.531.816-1.328 1.224-2.39 1.224zm-.135-5.683c-.437 0-.804.159-1.101.477-.297.318-.48.765-.551 1.339h3.176v-.082c-.031-.55-.18-.978-.445-1.28-.266-.303-.625-.454-1.079-.454zm7.553 3.884c0-.293-.11-.52-.33-.682-.222-.162-.606-.302-1.155-.42-.55-.116-.985-.257-1.307-.421-.322-.164-.56-.36-.715-.586a1.402 1.402 0 0 1-.231-.809c0-.52.22-.959.659-1.318.44-.36 1.001-.539 1.685-.539.718 0 1.301.186 1.749.557.447.37.67.845.67 1.423h-1.09c0-.296-.125-.552-.377-.767-.252-.215-.57-.322-.952-.322-.395 0-.704.086-.926.257a.812.812 0 0 0-.334.674c0 .262.103.46.31.592.207.133.581.26 1.122.38.541.122.98.267 1.316.434.336.168.585.37.747.607.162.236.243.524.243.864a1.62 1.62 0 0 1-.68 1.362c-.453.342-1.04.513-1.763.513-.508 0-.957-.09-1.348-.27a2.193 2.193 0 0 1-.917-.752 1.815 1.815 0 0 1-.331-1.046h1.084c.02.363.165.651.437.864.271.213.63.32 1.075.32.41 0 .739-.084.987-.25.248-.166.372-.387.372-.665zm6.188 0c0-.293-.11-.52-.331-.682-.221-.162-.606-.302-1.155-.42-.549-.116-.984-.257-1.306-.421-.323-.164-.56-.36-.715-.586a1.402 1.402 0 0 1-.232-.809c0-.52.22-.959.66-1.318.439-.36 1-.539 1.684-.539.719 0 1.302.186 1.75.557.446.37.67.845.67 1.423h-1.09c0-.296-.126-.552-.378-.767-.252-.215-.57-.322-.952-.322-.394 0-.703.086-.926.257a.812.812 0 0 0-.334.674c0 .262.104.46.31.592.208.133.582.26 1.123.38.541.122.98.267 1.315.434.336.168.585.37.747.607.163.236.244.524.244.864 0 .567-.227 1.02-.68 1.362-.453.342-1.041.513-1.764.513-.508 0-.957-.09-1.347-.27a2.18 2.18 0 0 1-.917-.752 1.815 1.815 0 0 1-.331-1.046h1.084c.02.363.165.651.436.864.272.213.63.32 1.075.32.41 0 .74-.084.988-.25.248-.166.372-.387.372-.665zM56.676 21c-.063-.125-.113-.348-.153-.668-.503.523-1.105.785-1.804.785-.625 0-1.138-.177-1.538-.53-.4-.354-.6-.802-.6-1.345 0-.66.25-1.173.752-1.538s1.208-.548 2.118-.548h1.055v-.498c0-.379-.113-.68-.34-.905-.227-.225-.56-.337-1.002-.337-.387 0-.71.098-.973.293-.261.195-.392.432-.392.709h-1.09c0-.316.112-.622.337-.917a2.3 2.3 0 0 1 .914-.7 3.075 3.075 0 0 1 1.269-.258c.73 0 1.302.183 1.716.548.414.365.63.868.645 1.509v2.918c0 .582.074 1.044.222 1.388V21h-1.136zm-1.799-.826c.34 0 .662-.088.967-.264.304-.176.525-.404.662-.685v-1.301h-.85c-1.328 0-1.992.388-1.992 1.166 0 .34.113.605.34.797.226.191.517.287.873.287zm4.154-2.397c0-.988.229-1.774.686-2.358.457-.584 1.062-.876 1.816-.876.774 0 1.377.273 1.81.82l.053-.703h.99v6.188c0 .82-.242 1.466-.729 1.94-.486.472-1.14.708-1.96.708a3.26 3.26 0 0 1-1.342-.293c-.437-.195-.771-.463-1.001-.803l.562-.65c.465.574 1.033.861 1.705.861.527 0 .939-.148 1.233-.445.295-.297.443-.715.443-1.254v-.545c-.434.5-1.026.75-1.776.75-.742 0-1.342-.299-1.801-.896-.46-.598-.689-1.412-.689-2.444zm1.09.123c0 .715.147 1.277.44 1.685.293.408.703.612 1.23.612.684 0 1.186-.31 1.506-.931V16.37c-.332-.605-.83-.908-1.494-.908-.528 0-.94.205-1.237.615-.296.41-.445 1.018-.445 1.822zm8.531 3.217c-.859 0-1.558-.282-2.097-.846-.54-.565-.809-1.32-.809-2.265v-.2c0-.628.12-1.19.36-1.684s.577-.88 1.008-1.16c.432-.28.9-.419 1.404-.419.824 0 1.464.271 1.921.814.457.543.686 1.32.686 2.332v.452H66.83c.016.625.198 1.13.548 1.514.35.385.794.577 1.333.577.383 0 .707-.078.973-.234.265-.156.498-.363.697-.621l.662.516c-.531.816-1.328 1.224-2.39 1.224zm-.134-5.683c-.438 0-.805.159-1.102.477-.297.318-.48.765-.55 1.339h3.175v-.082c-.031-.55-.18-.978-.445-1.28-.266-.303-.625-.454-1.078-.454zM80.828 21h-5.59v-.78l2.953-3.28c.438-.497.74-.9.906-1.21a2.02 2.02 0 0 0 .249-.964c0-.446-.135-.81-.405-1.096-.27-.285-.628-.428-1.078-.428-.539 0-.958.154-1.257.46-.298.307-.448.734-.448 1.28h-1.084c0-.785.253-1.42.759-1.904s1.183-.726 2.03-.726c.793 0 1.42.208 1.881.624.461.416.692.97.692 1.66 0 .84-.536 1.84-1.606 3l-2.285 2.48h4.283V21z" fill="#212121"/></g><g transform="translate(439)"><use stroke="#E0E0E0" mask="url(#H)" stroke-width="2" fill="#FFF" xlink:href="#n"/><path d="M25.333 13.08a5.333 5.333 0 1 1 0 10.668 5.333 5.333 0 0 1 0-10.668zm0 13.333c-3.56 0-10.667 1.787-10.667 5.333v2.667H36v-2.667c0-3.546-7.107-5.333-10.667-5.333" fill="#616161"/><path d="M57.115 25.06v3.34H55.99v-8.531h3.147c.933 0 1.665.238 2.194.715.53.476.794 1.107.794 1.892 0 .828-.259 1.466-.776 1.913-.518.448-1.26.671-2.224.671h-2.01zm0-.92h2.022c.601 0 1.062-.141 1.383-.425.32-.283.48-.692.48-1.227 0-.508-.16-.914-.48-1.219-.32-.305-.76-.463-1.319-.474h-2.086v3.345zm10.19 3.633c-.422.496-1.041.744-1.858.744-.676 0-1.19-.196-1.544-.589-.353-.392-.532-.973-.536-1.743V22.06h1.084v4.096c0 .96.39 1.441 1.172 1.441.828 0 1.379-.308 1.652-.926v-4.61h1.084V28.4h-1.03l-.024-.627zm8.068-2.473c0 .97-.223 1.747-.668 2.335-.445.588-1.043.882-1.793.882-.8 0-1.42-.283-1.857-.85l-.053.733h-.996v-9h1.084v3.357c.437-.543 1.04-.814 1.81-.814s1.374.291 1.814.873c.44.582.659 1.379.659 2.39v.094zm-1.084-.123c0-.738-.143-1.308-.428-1.71-.285-.403-.695-.604-1.23-.604-.715 0-1.229.332-1.541.996v2.742c.332.664.85.996 1.553.996.52 0 .923-.2 1.212-.603.29-.403.434-1.008.434-1.817zm3.627 3.223h-1.084v-9h1.084v9zm2.912 0h-1.084v-6.34h1.084v6.34zm-1.172-8.021a.65.65 0 0 1 .161-.446c.108-.12.267-.181.478-.181.21 0 .371.06.48.181a.64.64 0 0 1 .164.446.62.62 0 0 1-.164.439c-.109.117-.27.176-.48.176-.211 0-.37-.059-.478-.176a.626.626 0 0 1-.16-.44zm6.598 6.34c0-.294-.11-.521-.331-.683-.22-.162-.606-.302-1.154-.42-.55-.116-.985-.257-1.307-.421-.322-.164-.56-.36-.715-.586a1.402 1.402 0 0 1-.231-.809c0-.52.22-.959.659-1.318.44-.36 1-.539 1.684-.539.72 0 1.302.186 1.75.557.447.37.67.845.67 1.423h-1.09c0-.296-.126-.552-.377-.767-.252-.215-.57-.322-.953-.322-.394 0-.703.086-.925.257a.812.812 0 0 0-.334.674c0 .262.103.46.31.592.207.133.581.26 1.122.38.541.122.98.267 1.316.434.336.168.585.37.747.607.162.236.243.524.243.864 0 .567-.227 1.02-.68 1.362-.453.342-1.04.513-1.763.513-.508 0-.957-.09-1.348-.27a2.193 2.193 0 0 1-.917-.752 1.815 1.815 0 0 1-.331-1.046h1.084c.02.363.165.651.436.864.272.213.63.32 1.076.32.41 0 .739-.084.987-.25.248-.166.372-.387.372-.665zm3.58-3.891c.48-.59 1.105-.885 1.875-.885 1.34 0 2.016.756 2.027 2.268V28.4h-1.084v-4.195c-.004-.457-.108-.795-.313-1.014-.205-.219-.525-.328-.958-.328-.352 0-.66.094-.926.281a1.91 1.91 0 0 0-.621.738V28.4H88.75v-9h1.084v3.428zm8.156 5.69c-.86 0-1.558-.283-2.097-.847-.54-.565-.809-1.32-.809-2.265v-.2c0-.628.12-1.19.36-1.684s.577-.88 1.008-1.16c.432-.28.9-.419 1.403-.419.825 0 1.465.271 1.922.814.457.543.686 1.32.686 2.332v.452h-4.295c.016.625.198 1.13.548 1.514.35.385.794.577 1.333.577.383 0 .707-.078.972-.234.266-.156.499-.363.698-.621l.662.516c-.531.816-1.328 1.224-2.39 1.224zm-.135-5.684c-.437 0-.804.159-1.101.477-.297.318-.48.765-.55 1.339h3.175v-.082c-.031-.55-.18-.978-.445-1.28-.266-.303-.625-.454-1.079-.454zm6.926.199a3.248 3.248 0 0 0-.533-.041c-.71 0-1.193.303-1.447.908v4.5h-1.084v-6.34h1.054l.018.733c.356-.567.86-.85 1.512-.85.21 0 .37.027.48.082v1.008zm10.412 2.66c-.105.902-.438 1.599-.999 2.089-.56.49-1.305.735-2.235.735-1.008 0-1.815-.361-2.423-1.084-.607-.722-.911-1.69-.911-2.9v-.82c0-.793.142-1.49.425-2.092.283-.602.684-1.064 1.204-1.386.52-.322 1.121-.483 1.805-.483.906 0 1.632.252 2.18.758.546.506.865 1.206.954 2.1h-1.13c-.098-.679-.31-1.17-.636-1.476-.326-.304-.782-.457-1.368-.457-.72 0-1.283.266-1.69.797-.409.531-.613 1.287-.613 2.268v.826c0 .926.193 1.662.58 2.209.387.547.928.82 1.623.82.625 0 1.104-.141 1.438-.425.334-.283.556-.776.665-1.479h1.131z" fill="#212121"/></g><g transform="translate(458 74)"><use stroke="#E0E0E0" mask="url(#I)" stroke-width="2" fill="#F5F5F5" xlink:href="#o"/><path d="M25.176 12.469l2.789 6.96 2.789-6.96h1.459V21h-1.125v-3.322l.105-3.586-2.8 6.908h-.862l-2.795-6.89.112 3.568V21h-1.125v-8.531h1.453zm11.484 8.648c-.86 0-1.558-.282-2.097-.846-.54-.565-.81-1.32-.81-2.265v-.2c0-.628.121-1.19.361-1.684s.576-.88 1.008-1.16c.432-.28.9-.419 1.403-.419.825 0 1.465.271 1.922.814.457.543.686 1.32.686 2.332v.452h-4.295c.016.625.198 1.13.548 1.514.35.385.794.577 1.333.577.383 0 .707-.078.972-.234.266-.156.498-.363.698-.621l.662.516c-.531.816-1.328 1.224-2.39 1.224zm-.135-5.683c-.437 0-.804.159-1.101.477-.297.318-.48.765-.551 1.339h3.176v-.082c-.031-.55-.18-.978-.445-1.28-.266-.303-.625-.454-1.079-.454zm7.553 3.884c0-.293-.11-.52-.33-.682-.222-.162-.606-.302-1.155-.42-.55-.116-.985-.257-1.307-.421-.322-.164-.56-.36-.715-.586a1.402 1.402 0 0 1-.231-.809c0-.52.22-.959.659-1.318.44-.36 1.001-.539 1.685-.539.718 0 1.301.186 1.749.557.447.37.67.845.67 1.423h-1.09c0-.296-.125-.552-.377-.767-.252-.215-.57-.322-.952-.322-.395 0-.704.086-.926.257a.812.812 0 0 0-.334.674c0 .262.103.46.31.592.207.133.581.26 1.122.38.541.122.98.267 1.316.434.336.168.585.37.747.607.162.236.243.524.243.864a1.62 1.62 0 0 1-.68 1.362c-.453.342-1.04.513-1.763.513-.508 0-.957-.09-1.348-.27a2.193 2.193 0 0 1-.917-.752 1.815 1.815 0 0 1-.331-1.046h1.084c.02.363.165.651.437.864.271.213.63.32 1.075.32.41 0 .739-.084.987-.25.248-.166.372-.387.372-.665zm6.188 0c0-.293-.11-.52-.331-.682-.221-.162-.606-.302-1.155-.42-.549-.116-.984-.257-1.306-.421-.323-.164-.56-.36-.715-.586a1.402 1.402 0 0 1-.232-.809c0-.52.22-.959.66-1.318.439-.36 1-.539 1.684-.539.719 0 1.302.186 1.75.557.446.37.67.845.67 1.423h-1.09c0-.296-.126-.552-.378-.767-.252-.215-.57-.322-.952-.322-.394 0-.703.086-.926.257a.812.812 0 0 0-.334.674c0 .262.104.46.31.592.208.133.582.26 1.123.38.541.122.98.267 1.315.434.336.168.585.37.747.607.163.236.244.524.244.864 0 .567-.227 1.02-.68 1.362-.453.342-1.041.513-1.764.513-.508 0-.957-.09-1.347-.27a2.18 2.18 0 0 1-.917-.752 1.815 1.815 0 0 1-.331-1.046h1.084c.02.363.165.651.436.864.272.213.63.32 1.075.32.41 0 .74-.084.988-.25.248-.166.372-.387.372-.665zM56.676 21c-.063-.125-.113-.348-.153-.668-.503.523-1.105.785-1.804.785-.625 0-1.138-.177-1.538-.53-.4-.354-.6-.802-.6-1.345 0-.66.25-1.173.752-1.538s1.208-.548 2.118-.548h1.055v-.498c0-.379-.113-.68-.34-.905-.227-.225-.56-.337-1.002-.337-.387 0-.71.098-.973.293-.261.195-.392.432-.392.709h-1.09c0-.316.112-.622.337-.917a2.3 2.3 0 0 1 .914-.7 3.075 3.075 0 0 1 1.269-.258c.73 0 1.302.183 1.716.548.414.365.63.868.645 1.509v2.918c0 .582.074 1.044.222 1.388V21h-1.136zm-1.799-.826c.34 0 .662-.088.967-.264.304-.176.525-.404.662-.685v-1.301h-.85c-1.328 0-1.992.388-1.992 1.166 0 .34.113.605.34.797.226.191.517.287.873.287zm4.154-2.397c0-.988.229-1.774.686-2.358.457-.584 1.062-.876 1.816-.876.774 0 1.377.273 1.81.82l.053-.703h.99v6.188c0 .82-.242 1.466-.729 1.94-.486.472-1.14.708-1.96.708a3.26 3.26 0 0 1-1.342-.293c-.437-.195-.771-.463-1.001-.803l.562-.65c.465.574 1.033.861 1.705.861.527 0 .939-.148 1.233-.445.295-.297.443-.715.443-1.254v-.545c-.434.5-1.026.75-1.776.75-.742 0-1.342-.299-1.801-.896-.46-.598-.689-1.412-.689-2.444zm1.09.123c0 .715.147 1.277.44 1.685.293.408.703.612 1.23.612.684 0 1.186-.31 1.506-.931V16.37c-.332-.605-.83-.908-1.494-.908-.528 0-.94.205-1.237.615-.296.41-.445 1.018-.445 1.822zm8.531 3.217c-.859 0-1.558-.282-2.097-.846-.54-.565-.809-1.32-.809-2.265v-.2c0-.628.12-1.19.36-1.684s.577-.88 1.008-1.16c.432-.28.9-.419 1.404-.419.824 0 1.464.271 1.921.814.457.543.686 1.32.686 2.332v.452H66.83c.016.625.198 1.13.548 1.514.35.385.794.577 1.333.577.383 0 .707-.078.973-.234.265-.156.498-.363.697-.621l.662.516c-.531.816-1.328 1.224-2.39 1.224zm-.134-5.683c-.438 0-.805.159-1.102.477-.297.318-.48.765-.55 1.339h3.175v-.082c-.031-.55-.18-.978-.445-1.28-.266-.303-.625-.454-1.078-.454zm8.296.773h.815c.512-.008.914-.143 1.207-.404.293-.262.44-.615.44-1.06 0-1-.499-1.5-1.495-1.5-.469 0-.843.133-1.122.4-.28.268-.419.623-.419 1.064h-1.084c0-.676.247-1.237.741-1.685.495-.447 1.123-.67 1.884-.67.805 0 1.436.212 1.893.638.457.426.685 1.018.685 1.776 0 .37-.12.73-.36 1.078-.24.347-.567.607-.981.779.468.148.83.395 1.086.738.256.344.384.764.384 1.26 0 .766-.25 1.373-.75 1.822-.5.45-1.15.674-1.95.674-.802 0-1.453-.217-1.955-.65-.502-.434-.753-1.006-.753-1.717h1.09c0 .45.146.809.44 1.078.292.27.685.404 1.177.404.524 0 .924-.136 1.201-.41.278-.273.416-.666.416-1.177 0-.497-.152-.877-.457-1.143-.304-.266-.744-.402-1.318-.41h-.815v-.885z" fill="#212121"/></g><path stroke="#616161" d="M517 167v17h70.029v10m-84-27v17H433v10"/><g transform="translate(468 140)"><use stroke="#E0E0E0" mask="url(#J)" stroke-width="2" fill="#FFF" xlink:href="#p"/><path d="M28.82 13.395h-2.743V21h-1.119v-7.605h-2.736v-.926h6.597v.926zm.228 4.376c0-.62.122-1.18.366-1.675a2.732 2.732 0 0 1 1.02-1.149c.435-.27.932-.404 1.49-.404.864 0 1.562.299 2.096.896.533.598.8 1.393.8 2.385v.076c0 .618-.119 1.171-.355 1.662-.236.49-.574.872-1.014 1.145a2.81 2.81 0 0 1-1.514.41c-.86 0-1.556-.299-2.09-.896-.533-.598-.8-1.389-.8-2.373v-.077zm1.09.13c0 .703.163 1.267.489 1.693.326.426.763.638 1.31.638.55 0 .988-.215 1.312-.647.324-.432.486-1.036.486-1.814 0-.695-.165-1.258-.495-1.69a1.574 1.574 0 0 0-1.315-.647c-.535 0-.967.212-1.295.638-.328.426-.492 1.035-.492 1.828zm11.396 0c0 .964-.22 1.742-.662 2.331-.441.59-1.039.885-1.793.885-.77 0-1.375-.244-1.816-.732v3.052h-1.084V14.66h.99l.053.703c.441-.547 1.054-.82 1.84-.82.761 0 1.364.287 1.807.861.444.575.665 1.373.665 2.397v.1zm-1.084-.124c0-.715-.152-1.279-.457-1.693-.305-.414-.722-.621-1.254-.621-.656 0-1.148.29-1.476.873v3.03c.324.577.82.866 1.488.866.52 0 .933-.206 1.24-.618.306-.412.46-1.024.46-1.837zM44.09 21h-1.084v-6.34h1.084V21zm-1.172-8.021a.65.65 0 0 1 .161-.446c.108-.12.267-.181.478-.181.21 0 .37.06.48.181a.64.64 0 0 1 .164.446.62.62 0 0 1-.164.439c-.11.117-.27.176-.48.176-.211 0-.37-.059-.478-.176a.626.626 0 0 1-.161-.44zm5.45 7.253c.386 0 .724-.117 1.013-.351.289-.235.45-.527.48-.879h1.026c-.02.363-.145.709-.375 1.037a2.47 2.47 0 0 1-.923.785 2.663 2.663 0 0 1-1.222.293c-.863 0-1.55-.288-2.06-.864-.51-.576-.764-1.364-.764-2.364v-.182c0-.617.113-1.166.34-1.646.226-.48.552-.854.975-1.12.424-.265.925-.398 1.503-.398.711 0 1.302.213 1.773.639.47.425.721.978.753 1.658H49.86a1.494 1.494 0 0 0-.465-1.01 1.45 1.45 0 0 0-1.035-.396c-.55 0-.977.198-1.28.594-.303.397-.454.97-.454 1.72v.205c0 .73.15 1.293.451 1.688.3.394.73.591 1.29.591zm13.154-1.939c-.106.902-.439 1.599-1 2.089-.56.49-1.305.735-2.235.735-1.008 0-1.815-.361-2.423-1.084-.607-.722-.91-1.69-.91-2.9v-.82c0-.793.14-1.49.424-2.092.283-.602.685-1.064 1.204-1.386.52-.322 1.121-.483 1.805-.483.906 0 1.633.252 2.18.758.546.506.865 1.206.955 2.1H60.39c-.098-.679-.31-1.17-.636-1.476-.326-.304-.782-.457-1.368-.457-.719 0-1.282.266-1.69.797-.409.531-.613 1.287-.613 2.268v.826c0 .926.193 1.662.58 2.209.387.547.928.82 1.623.82.625 0 1.105-.141 1.439-.425.334-.283.555-.776.665-1.479h1.13z" fill="#212121"/></g><g transform="translate(373 197)"><use stroke="#E0E0E0" mask="url(#K)" stroke-width="2" fill="#FFF" xlink:href="#q"/><path d="M22.126 17.197c-.965-.277-1.667-.618-2.106-1.022a1.954 1.954 0 0 1-.66-1.497c0-.672.269-1.228.806-1.667.537-.44 1.235-.66 2.095-.66.586 0 1.108.114 1.567.34.46.227.815.54 1.067.938.251.398.377.834.377 1.307h-1.13c0-.516-.164-.921-.493-1.216-.328-.295-.79-.443-1.388-.443-.555 0-.988.122-1.298.367-.31.244-.466.583-.466 1.016 0 .348.148.642.442.882.295.24.797.46 1.506.66.71.198 1.264.418 1.664.658.4.24.698.52.891.841.193.32.29.697.29 1.131 0 .691-.27 1.245-.809 1.661-.539.416-1.26.624-2.162.624a4.01 4.01 0 0 1-1.64-.337c-.508-.224-.9-.532-1.175-.923a2.252 2.252 0 0 1-.413-1.33h1.13c0 .516.191.923.572 1.222.38.299.89.448 1.526.448.594 0 1.05-.12 1.366-.363.316-.242.474-.572.474-.99 0-.418-.146-.741-.44-.97-.292-.228-.823-.454-1.593-.677zm8.35 3.176c-.422.496-1.041.744-1.858.744-.676 0-1.19-.196-1.544-.589-.353-.392-.532-.973-.536-1.743V14.66h1.084v4.096c0 .96.39 1.441 1.172 1.441.828 0 1.379-.308 1.652-.926v-4.61h1.084V21H30.5l-.023-.627zm8.068-2.473c0 .97-.223 1.747-.668 2.335-.445.588-1.043.882-1.793.882-.8 0-1.42-.283-1.857-.85l-.053.733h-.996v-9h1.084v3.357c.437-.543 1.04-.814 1.81-.814s1.374.291 1.814.873c.44.582.659 1.379.659 2.39v.094zm-1.084-.123c0-.738-.143-1.308-.428-1.71-.285-.403-.695-.604-1.23-.604-.715 0-1.229.332-1.541.996v2.742c.332.664.85.996 1.552.996.52 0 .924-.2 1.213-.603.29-.403.434-1.008.434-1.817zm6.14 1.541c0-.293-.11-.52-.33-.682-.221-.162-.606-.302-1.155-.42-.549-.116-.984-.257-1.306-.421-.323-.164-.561-.36-.715-.586a1.402 1.402 0 0 1-.232-.809c0-.52.22-.959.66-1.318.439-.36 1-.539 1.684-.539.719 0 1.302.186 1.75.557.446.37.67.845.67 1.423h-1.09c0-.296-.126-.552-.378-.767-.252-.215-.57-.322-.952-.322-.394 0-.703.086-.926.257a.812.812 0 0 0-.334.674c0 .262.104.46.31.592.208.133.582.26 1.123.38.54.122.98.267 1.315.434.336.168.585.37.747.607.163.236.244.524.244.864 0 .567-.227 1.02-.68 1.362-.453.342-1.041.513-1.764.513-.508 0-.957-.09-1.347-.27a2.18 2.18 0 0 1-.917-.752 1.815 1.815 0 0 1-.331-1.046h1.083c.02.363.166.651.437.864.272.213.63.32 1.075.32.41 0 .74-.084.988-.25.248-.166.372-.387.372-.665zm5.04.914c.386 0 .724-.117 1.013-.351.29-.235.45-.527.48-.879h1.026c-.02.363-.144.709-.375 1.037a2.47 2.47 0 0 1-.923.785 2.663 2.663 0 0 1-1.221.293c-.864 0-1.55-.288-2.06-.864-.51-.576-.765-1.364-.765-2.364v-.182c0-.617.114-1.166.34-1.646.227-.48.552-.854.976-1.12.424-.265.925-.398 1.503-.398.71 0 1.302.213 1.772.639.471.425.722.978.753 1.658h-1.025a1.494 1.494 0 0 0-.466-1.01 1.45 1.45 0 0 0-1.034-.396c-.551 0-.978.198-1.28.594-.303.397-.455.97-.455 1.72v.205c0 .73.15 1.293.452 1.688.3.394.73.591 1.289.591zm6.802-4.6a3.248 3.248 0 0 0-.533-.04c-.71 0-1.193.303-1.447.908V21h-1.084v-6.34h1.055l.017.733c.356-.567.86-.85 1.512-.85.21 0 .371.027.48.082v1.008zM57.616 21h-1.084v-6.34h1.084V21zm-1.172-8.021a.65.65 0 0 1 .161-.446c.108-.12.267-.181.478-.181.21 0 .371.06.48.181a.64.64 0 0 1 .165.446.62.62 0 0 1-.165.439c-.109.117-.27.176-.48.176-.21 0-.37-.059-.478-.176a.626.626 0 0 1-.16-.44zm8.262 4.921c0 .965-.22 1.743-.662 2.332-.441.59-1.04.885-1.793.885-.77 0-1.375-.244-1.816-.732v3.052H59.35V14.66h.99l.053.703c.441-.547 1.054-.82 1.84-.82.761 0 1.364.287 1.807.861.443.575.665 1.373.665 2.397v.1zm-1.084-.123c0-.715-.152-1.279-.457-1.693-.305-.414-.723-.621-1.254-.621-.656 0-1.148.29-1.476.873v3.03c.324.577.82.866 1.488.866.52 0 .932-.206 1.24-.618.306-.412.46-1.024.46-1.837zm3.932-4.652v1.535h1.183v.838h-1.183v3.932c0 .254.052.444.158.571.105.127.285.19.539.19.125 0 .297-.023.516-.07V21a3.143 3.143 0 0 1-.832.117c-.485 0-.85-.146-1.096-.44-.246-.292-.37-.708-.37-1.247v-3.932h-1.154v-.838h1.155v-1.535h1.084zM71.18 21h-1.084v-6.34h1.084V21zm-1.172-8.021a.65.65 0 0 1 .16-.446c.108-.12.268-.181.478-.181.211 0 .372.06.48.181a.64.64 0 0 1 .165.446.62.62 0 0 1-.164.439c-.11.117-.27.176-.48.176-.211 0-.37-.059-.478-.176a.626.626 0 0 1-.161-.44zm2.619 4.792c0-.62.122-1.18.366-1.675a2.732 2.732 0 0 1 1.02-1.149c.435-.27.932-.404 1.49-.404.864 0 1.562.299 2.096.896.533.598.8 1.393.8 2.385v.076c0 .618-.119 1.171-.355 1.662-.236.49-.574.872-1.014 1.145a2.81 2.81 0 0 1-1.514.41c-.86 0-1.556-.299-2.09-.896-.532-.598-.8-1.389-.8-2.373v-.077zm1.09.13c0 .703.163 1.267.489 1.693.326.426.763.638 1.31.638.55 0 .988-.215 1.312-.647.324-.432.486-1.036.486-1.814 0-.695-.165-1.258-.495-1.69a1.574 1.574 0 0 0-1.315-.647c-.535 0-.967.212-1.295.638-.328.426-.492 1.035-.492 1.828zm7.066-3.24l.035.796c.485-.61 1.118-.914 1.899-.914 1.34 0 2.015.756 2.027 2.268V21H83.66v-4.195c-.004-.457-.108-.795-.313-1.014-.205-.219-.525-.328-.958-.328-.352 0-.66.094-.926.281a1.91 1.91 0 0 0-.621.738V21h-1.084v-6.34h1.025zm11.338 2.091l2.227-4.283h1.277l-2.941 5.35V21H91.56v-3.182l-2.942-5.35h1.29l2.214 4.284zm10.711 1.541c-.105.902-.438 1.599-.999 2.089-.56.49-1.306.735-2.235.735-1.008 0-1.816-.361-2.423-1.084-.608-.722-.911-1.69-.911-2.9v-.82c0-.793.141-1.49.424-2.092.284-.602.685-1.064 1.205-1.386.52-.322 1.12-.483 1.804-.483.906 0 1.633.252 2.18.758.547.506.865 1.206.955 2.1h-1.13c-.099-.679-.31-1.17-.637-1.476-.326-.304-.782-.457-1.368-.457-.719 0-1.282.266-1.69.797-.408.531-.612 1.287-.612 2.268v.826c0 .926.193 1.662.58 2.209.386.547.927.82 1.623.82.625 0 1.104-.141 1.438-.425.334-.283.556-.776.665-1.479h1.131z" fill="#212121"/></g><g transform="translate(528 197)"><use stroke="#E0E0E0" mask="url(#L)" stroke-width="2" fill="#FFF" xlink:href="#r"/><path d="M22.129 17.197c-.965-.277-1.667-.618-2.107-1.022a1.954 1.954 0 0 1-.659-1.497c0-.672.269-1.228.806-1.667.537-.44 1.235-.66 2.095-.66.586 0 1.108.114 1.567.34.459.227.815.54 1.066.938.252.398.378.834.378 1.307h-1.13c0-.516-.165-.921-.493-1.216-.328-.295-.79-.443-1.388-.443-.555 0-.988.122-1.298.367-.31.244-.466.583-.466 1.016 0 .348.147.642.442.882.295.24.797.46 1.506.66.71.198 1.264.418 1.664.658.4.24.698.52.89.841.194.32.291.697.291 1.131 0 .691-.27 1.245-.809 1.661-.539.416-1.26.624-2.162.624a4.01 4.01 0 0 1-1.64-.337c-.508-.224-.9-.532-1.175-.923a2.252 2.252 0 0 1-.413-1.33h1.13c0 .516.191.923.572 1.222.38.299.89.448 1.526.448.594 0 1.05-.12 1.366-.363.316-.242.474-.572.474-.99 0-.418-.146-.741-.44-.97-.292-.228-.824-.454-1.593-.677zm8.35 3.176c-.422.496-1.041.744-1.858.744-.676 0-1.19-.196-1.544-.589-.353-.392-.532-.973-.536-1.743V14.66h1.084v4.096c0 .96.39 1.441 1.172 1.441.828 0 1.379-.308 1.652-.926v-4.61h1.084V21h-1.031l-.023-.627zm8.068-2.473c0 .97-.223 1.747-.668 2.335-.445.588-1.043.882-1.793.882-.8 0-1.42-.283-1.857-.85l-.053.733h-.996v-9h1.084v3.357c.437-.543 1.04-.814 1.81-.814s1.374.291 1.814.873c.44.582.659 1.379.659 2.39v.094zm-1.084-.123c0-.738-.143-1.308-.428-1.71-.285-.403-.695-.604-1.23-.604-.715 0-1.229.332-1.541.996v2.742c.332.664.85.996 1.552.996.52 0 .924-.2 1.213-.603.29-.403.434-1.008.434-1.817zm6.14 1.541c0-.293-.11-.52-.33-.682-.221-.162-.606-.302-1.155-.42-.549-.116-.984-.257-1.306-.421-.323-.164-.561-.36-.715-.586a1.402 1.402 0 0 1-.232-.809c0-.52.22-.959.66-1.318.439-.36 1-.539 1.684-.539.719 0 1.302.186 1.749.557.447.37.67.845.67 1.423H43.54c0-.296-.126-.552-.378-.767-.252-.215-.57-.322-.952-.322-.395 0-.703.086-.926.257a.812.812 0 0 0-.334.674c0 .262.104.46.31.592.208.133.582.26 1.123.38.54.122.98.267 1.315.434.336.168.585.37.747.607.162.236.243.524.243.864a1.62 1.62 0 0 1-.68 1.362c-.452.342-1.04.513-1.763.513-.508 0-.957-.09-1.348-.27a2.193 2.193 0 0 1-.917-.752 1.815 1.815 0 0 1-.33-1.046h1.083c.02.363.165.651.437.864.271.213.63.32 1.075.32.41 0 .74-.084.987-.25.248-.166.373-.387.373-.665zm5.04.914c.386 0 .724-.117 1.013-.351.29-.235.45-.527.48-.879h1.026c-.02.363-.144.709-.375 1.037a2.47 2.47 0 0 1-.923.785 2.663 2.663 0 0 1-1.221.293c-.864 0-1.55-.288-2.06-.864-.51-.576-.765-1.364-.765-2.364v-.182c0-.617.114-1.166.34-1.646.227-.48.552-.854.976-1.12.424-.265.925-.398 1.503-.398.71 0 1.301.213 1.772.639.47.425.722.978.753 1.658h-1.025a1.494 1.494 0 0 0-.466-1.01 1.45 1.45 0 0 0-1.034-.396c-.551 0-.978.198-1.28.594-.303.397-.455.97-.455 1.72v.205c0 .73.15 1.293.452 1.688.3.394.73.591 1.289.591zm6.802-4.6a3.248 3.248 0 0 0-.533-.04c-.71 0-1.193.303-1.447.908V21H52.38v-6.34h1.055l.017.733c.356-.567.86-.85 1.512-.85.21 0 .37.027.48.082v1.008zM57.62 21h-1.084v-6.34h1.084V21zm-1.172-8.021a.65.65 0 0 1 .161-.446c.108-.12.267-.181.478-.181.21 0 .371.06.48.181a.64.64 0 0 1 .164.446.62.62 0 0 1-.164.439c-.109.117-.27.176-.48.176-.211 0-.37-.059-.478-.176a.626.626 0 0 1-.16-.44zM64.71 17.9c0 .965-.22 1.743-.662 2.332-.442.59-1.04.885-1.793.885-.77 0-1.375-.244-1.816-.732v3.052h-1.084V14.66h.99l.052.703c.442-.547 1.055-.82 1.84-.82.762 0 1.365.287 1.808.861.443.575.665 1.373.665 2.397v.1zm-1.084-.123c0-.715-.152-1.279-.457-1.693-.305-.414-.723-.621-1.254-.621-.656 0-1.148.29-1.477.873v3.03c.325.577.82.866 1.489.866.52 0 .932-.206 1.239-.618.307-.412.46-1.024.46-1.837zm3.932-4.652v1.535h1.183v.838h-1.183v3.932c0 .254.052.444.158.571.105.127.285.19.539.19.125 0 .297-.023.516-.07V21a3.143 3.143 0 0 1-.832.117c-.485 0-.85-.146-1.096-.44-.246-.292-.37-.708-.37-1.247v-3.932h-1.154v-.838h1.155v-1.535h1.084zM71.184 21H70.1v-6.34h1.084V21zm-1.172-8.021a.65.65 0 0 1 .16-.446c.108-.12.267-.181.478-.181.211 0 .371.06.48.181a.64.64 0 0 1 .165.446.62.62 0 0 1-.164.439c-.11.117-.27.176-.48.176-.212 0-.37-.059-.478-.176a.626.626 0 0 1-.161-.44zm2.619 4.792c0-.62.122-1.18.366-1.675a2.732 2.732 0 0 1 1.02-1.149c.435-.27.932-.404 1.49-.404.864 0 1.562.299 2.096.896.533.598.8 1.393.8 2.385v.076c0 .618-.119 1.171-.355 1.662-.236.49-.574.872-1.014 1.145a2.81 2.81 0 0 1-1.514.41c-.86 0-1.556-.299-2.09-.896-.533-.598-.8-1.389-.8-2.373v-.077zm1.09.13c0 .703.163 1.267.489 1.693.326.426.763.638 1.31.638.55 0 .988-.215 1.312-.647.324-.432.486-1.036.486-1.814 0-.695-.165-1.258-.495-1.69a1.574 1.574 0 0 0-1.315-.647c-.535 0-.967.212-1.295.638-.328.426-.492 1.035-.492 1.828zm7.066-3.24l.035.796c.485-.61 1.117-.914 1.899-.914 1.34 0 2.015.756 2.027 2.268V21h-1.084v-4.195c-.004-.457-.108-.795-.313-1.014-.205-.219-.525-.328-.958-.328-.352 0-.66.094-.926.281a1.91 1.91 0 0 0-.621.738V21h-1.084v-6.34h1.025zm9.58 5.42h4.881V21h-6.21v-.844l4.675-6.761h-4.6v-.926h5.948v.826l-4.694 6.785zm12.463-1.788c-.105.902-.438 1.599-.999 2.089-.56.49-1.306.735-2.235.735-1.008 0-1.816-.361-2.423-1.084-.608-.722-.911-1.69-.911-2.9v-.82c0-.793.141-1.49.425-2.092.283-.602.684-1.064 1.204-1.386.52-.322 1.12-.483 1.804-.483.907 0 1.633.252 2.18.758.547.506.865 1.206.955 2.1h-1.13c-.098-.679-.31-1.17-.637-1.476-.326-.304-.782-.457-1.368-.457-.718 0-1.282.266-1.69.797-.408.531-.612 1.287-.612 2.268v.826c0 .926.193 1.662.58 2.209.386.547.927.82 1.623.82.625 0 1.104-.141 1.438-.425.334-.283.556-.776.665-1.479h1.131z" fill="#212121"/></g><g transform="translate(382 266)"><use stroke="#E0E0E0" mask="url(#M)" stroke-width="2" fill="#F5F5F5" xlink:href="#s"/><path d="M25.176 12.469l2.789 6.96 2.789-6.96h1.459V21h-1.125v-3.322l.105-3.586-2.8 6.908h-.862l-2.795-6.89.112 3.568V21h-1.125v-8.531h1.453zm11.484 8.648c-.86 0-1.558-.282-2.097-.846-.54-.565-.81-1.32-.81-2.265v-.2c0-.628.121-1.19.361-1.684s.576-.88 1.008-1.16c.432-.28.9-.419 1.403-.419.825 0 1.465.271 1.922.814.457.543.686 1.32.686 2.332v.452h-4.295c.016.625.198 1.13.548 1.514.35.385.794.577 1.333.577.383 0 .707-.078.972-.234.266-.156.498-.363.698-.621l.662.516c-.531.816-1.328 1.224-2.39 1.224zm-.135-5.683c-.437 0-.804.159-1.101.477-.297.318-.48.765-.551 1.339h3.176v-.082c-.031-.55-.18-.978-.445-1.28-.266-.303-.625-.454-1.079-.454zm7.553 3.884c0-.293-.11-.52-.33-.682-.222-.162-.606-.302-1.155-.42-.55-.116-.985-.257-1.307-.421-.322-.164-.56-.36-.715-.586a1.402 1.402 0 0 1-.231-.809c0-.52.22-.959.659-1.318.44-.36 1.001-.539 1.685-.539.718 0 1.301.186 1.749.557.447.37.67.845.67 1.423h-1.09c0-.296-.125-.552-.377-.767-.252-.215-.57-.322-.952-.322-.395 0-.704.086-.926.257a.812.812 0 0 0-.334.674c0 .262.103.46.31.592.207.133.581.26 1.122.38.541.122.98.267 1.316.434.336.168.585.37.747.607.162.236.243.524.243.864a1.62 1.62 0 0 1-.68 1.362c-.453.342-1.04.513-1.763.513-.508 0-.957-.09-1.348-.27a2.193 2.193 0 0 1-.917-.752 1.815 1.815 0 0 1-.331-1.046h1.084c.02.363.165.651.437.864.271.213.63.32 1.075.32.41 0 .739-.084.987-.25.248-.166.372-.387.372-.665zm6.188 0c0-.293-.11-.52-.331-.682-.221-.162-.606-.302-1.155-.42-.549-.116-.984-.257-1.306-.421-.323-.164-.56-.36-.715-.586a1.402 1.402 0 0 1-.232-.809c0-.52.22-.959.66-1.318.439-.36 1-.539 1.684-.539.719 0 1.302.186 1.75.557.446.37.67.845.67 1.423h-1.09c0-.296-.126-.552-.378-.767-.252-.215-.57-.322-.952-.322-.394 0-.703.086-.926.257a.812.812 0 0 0-.334.674c0 .262.104.46.31.592.208.133.582.26 1.123.38.541.122.98.267 1.315.434.336.168.585.37.747.607.163.236.244.524.244.864 0 .567-.227 1.02-.68 1.362-.453.342-1.041.513-1.764.513-.508 0-.957-.09-1.347-.27a2.18 2.18 0 0 1-.917-.752 1.815 1.815 0 0 1-.331-1.046h1.084c.02.363.165.651.436.864.272.213.63.32 1.075.32.41 0 .74-.084.988-.25.248-.166.372-.387.372-.665zM56.676 21c-.063-.125-.113-.348-.153-.668-.503.523-1.105.785-1.804.785-.625 0-1.138-.177-1.538-.53-.4-.354-.6-.802-.6-1.345 0-.66.25-1.173.752-1.538s1.208-.548 2.118-.548h1.055v-.498c0-.379-.113-.68-.34-.905-.227-.225-.56-.337-1.002-.337-.387 0-.71.098-.973.293-.261.195-.392.432-.392.709h-1.09c0-.316.112-.622.337-.917a2.3 2.3 0 0 1 .914-.7 3.075 3.075 0 0 1 1.269-.258c.73 0 1.302.183 1.716.548.414.365.63.868.645 1.509v2.918c0 .582.074 1.044.222 1.388V21h-1.136zm-1.799-.826c.34 0 .662-.088.967-.264.304-.176.525-.404.662-.685v-1.301h-.85c-1.328 0-1.992.388-1.992 1.166 0 .34.113.605.34.797.226.191.517.287.873.287zm4.154-2.397c0-.988.229-1.774.686-2.358.457-.584 1.062-.876 1.816-.876.774 0 1.377.273 1.81.82l.053-.703h.99v6.188c0 .82-.242 1.466-.729 1.94-.486.472-1.14.708-1.96.708a3.26 3.26 0 0 1-1.342-.293c-.437-.195-.771-.463-1.001-.803l.562-.65c.465.574 1.033.861 1.705.861.527 0 .939-.148 1.233-.445.295-.297.443-.715.443-1.254v-.545c-.434.5-1.026.75-1.776.75-.742 0-1.342-.299-1.801-.896-.46-.598-.689-1.412-.689-2.444zm1.09.123c0 .715.147 1.277.44 1.685.293.408.703.612 1.23.612.684 0 1.186-.31 1.506-.931V16.37c-.332-.605-.83-.908-1.494-.908-.528 0-.94.205-1.237.615-.296.41-.445 1.018-.445 1.822zm8.531 3.217c-.859 0-1.558-.282-2.097-.846-.54-.565-.809-1.32-.809-2.265v-.2c0-.628.12-1.19.36-1.684s.577-.88 1.008-1.16c.432-.28.9-.419 1.404-.419.824 0 1.464.271 1.921.814.457.543.686 1.32.686 2.332v.452H66.83c.016.625.198 1.13.548 1.514.35.385.794.577 1.333.577.383 0 .707-.078.973-.234.265-.156.498-.363.697-.621l.662.516c-.531.816-1.328 1.224-2.39 1.224zm-.134-5.683c-.438 0-.805.159-1.102.477-.297.318-.48.765-.55 1.339h3.175v-.082c-.031-.55-.18-.978-.445-1.28-.266-.303-.625-.454-1.078-.454zm8.296.773h.815c.512-.008.914-.143 1.207-.404.293-.262.44-.615.44-1.06 0-1-.499-1.5-1.495-1.5-.469 0-.843.133-1.122.4-.28.268-.419.623-.419 1.064h-1.084c0-.676.247-1.237.741-1.685.495-.447 1.123-.67 1.884-.67.805 0 1.436.212 1.893.638.457.426.685 1.018.685 1.776 0 .37-.12.73-.36 1.078-.24.347-.567.607-.981.779.468.148.83.395 1.086.738.256.344.384.764.384 1.26 0 .766-.25 1.373-.75 1.822-.5.45-1.15.674-1.95.674-.802 0-1.453-.217-1.955-.65-.502-.434-.753-1.006-.753-1.717h1.09c0 .45.146.809.44 1.078.292.27.685.404 1.177.404.524 0 .924-.136 1.201-.41.278-.273.416-.666.416-1.177 0-.497-.152-.877-.457-1.143-.304-.266-.744-.402-1.318-.41h-.815v-.885z" fill="#212121"/></g><g transform="translate(537 266)"><use stroke="#E0E0E0" mask="url(#N)" stroke-width="2" fill="#F5F5F5" xlink:href="#t"/><path d="M25.176 12.469l2.789 6.96 2.789-6.96h1.459V21h-1.125v-3.322l.105-3.586-2.8 6.908h-.862l-2.795-6.89.112 3.568V21h-1.125v-8.531h1.453zm11.484 8.648c-.86 0-1.558-.282-2.097-.846-.54-.565-.81-1.32-.81-2.265v-.2c0-.628.121-1.19.361-1.684s.576-.88 1.008-1.16c.432-.28.9-.419 1.403-.419.825 0 1.465.271 1.922.814.457.543.686 1.32.686 2.332v.452h-4.295c.016.625.198 1.13.548 1.514.35.385.794.577 1.333.577.383 0 .707-.078.972-.234.266-.156.498-.363.698-.621l.662.516c-.531.816-1.328 1.224-2.39 1.224zm-.135-5.683c-.437 0-.804.159-1.101.477-.297.318-.48.765-.551 1.339h3.176v-.082c-.031-.55-.18-.978-.445-1.28-.266-.303-.625-.454-1.079-.454zm7.553 3.884c0-.293-.11-.52-.33-.682-.222-.162-.606-.302-1.155-.42-.55-.116-.985-.257-1.307-.421-.322-.164-.56-.36-.715-.586a1.402 1.402 0 0 1-.231-.809c0-.52.22-.959.659-1.318.44-.36 1.001-.539 1.685-.539.718 0 1.301.186 1.749.557.447.37.67.845.67 1.423h-1.09c0-.296-.125-.552-.377-.767-.252-.215-.57-.322-.952-.322-.395 0-.704.086-.926.257a.812.812 0 0 0-.334.674c0 .262.103.46.31.592.207.133.581.26 1.122.38.541.122.98.267 1.316.434.336.168.585.37.747.607.162.236.243.524.243.864a1.62 1.62 0 0 1-.68 1.362c-.453.342-1.04.513-1.763.513-.508 0-.957-.09-1.348-.27a2.193 2.193 0 0 1-.917-.752 1.815 1.815 0 0 1-.331-1.046h1.084c.02.363.165.651.437.864.271.213.63.32 1.075.32.41 0 .739-.084.987-.25.248-.166.372-.387.372-.665zm6.188 0c0-.293-.11-.52-.331-.682-.221-.162-.606-.302-1.155-.42-.549-.116-.984-.257-1.306-.421-.323-.164-.56-.36-.715-.586a1.402 1.402 0 0 1-.232-.809c0-.52.22-.959.66-1.318.439-.36 1-.539 1.684-.539.719 0 1.302.186 1.75.557.446.37.67.845.67 1.423h-1.09c0-.296-.126-.552-.378-.767-.252-.215-.57-.322-.952-.322-.394 0-.703.086-.926.257a.812.812 0 0 0-.334.674c0 .262.104.46.31.592.208.133.582.26 1.123.38.541.122.98.267 1.315.434.336.168.585.37.747.607.163.236.244.524.244.864 0 .567-.227 1.02-.68 1.362-.453.342-1.041.513-1.764.513-.508 0-.957-.09-1.347-.27a2.18 2.18 0 0 1-.917-.752 1.815 1.815 0 0 1-.331-1.046h1.084c.02.363.165.651.436.864.272.213.63.32 1.075.32.41 0 .74-.084.988-.25.248-.166.372-.387.372-.665zM56.676 21c-.063-.125-.113-.348-.153-.668-.503.523-1.105.785-1.804.785-.625 0-1.138-.177-1.538-.53-.4-.354-.6-.802-.6-1.345 0-.66.25-1.173.752-1.538s1.208-.548 2.118-.548h1.055v-.498c0-.379-.113-.68-.34-.905-.227-.225-.56-.337-1.002-.337-.387 0-.71.098-.973.293-.261.195-.392.432-.392.709h-1.09c0-.316.112-.622.337-.917a2.3 2.3 0 0 1 .914-.7 3.075 3.075 0 0 1 1.269-.258c.73 0 1.302.183 1.716.548.414.365.63.868.645 1.509v2.918c0 .582.074 1.044.222 1.388V21h-1.136zm-1.799-.826c.34 0 .662-.088.967-.264.304-.176.525-.404.662-.685v-1.301h-.85c-1.328 0-1.992.388-1.992 1.166 0 .34.113.605.34.797.226.191.517.287.873.287zm4.154-2.397c0-.988.229-1.774.686-2.358.457-.584 1.062-.876 1.816-.876.774 0 1.377.273 1.81.82l.053-.703h.99v6.188c0 .82-.242 1.466-.729 1.94-.486.472-1.14.708-1.96.708a3.26 3.26 0 0 1-1.342-.293c-.437-.195-.771-.463-1.001-.803l.562-.65c.465.574 1.033.861 1.705.861.527 0 .939-.148 1.233-.445.295-.297.443-.715.443-1.254v-.545c-.434.5-1.026.75-1.776.75-.742 0-1.342-.299-1.801-.896-.46-.598-.689-1.412-.689-2.444zm1.09.123c0 .715.147 1.277.44 1.685.293.408.703.612 1.23.612.684 0 1.186-.31 1.506-.931V16.37c-.332-.605-.83-.908-1.494-.908-.528 0-.94.205-1.237.615-.296.41-.445 1.018-.445 1.822zm8.531 3.217c-.859 0-1.558-.282-2.097-.846-.54-.565-.809-1.32-.809-2.265v-.2c0-.628.12-1.19.36-1.684s.577-.88 1.008-1.16c.432-.28.9-.419 1.404-.419.824 0 1.464.271 1.921.814.457.543.686 1.32.686 2.332v.452H66.83c.016.625.198 1.13.548 1.514.35.385.794.577 1.333.577.383 0 .707-.078.973-.234.265-.156.498-.363.697-.621l.662.516c-.531.816-1.328 1.224-2.39 1.224zm-.134-5.683c-.438 0-.805.159-1.102.477-.297.318-.48.765-.55 1.339h3.175v-.082c-.031-.55-.18-.978-.445-1.28-.266-.303-.625-.454-1.078-.454zm8.296.773h.815c.512-.008.914-.143 1.207-.404.293-.262.44-.615.44-1.06 0-1-.499-1.5-1.495-1.5-.469 0-.843.133-1.122.4-.28.268-.419.623-.419 1.064h-1.084c0-.676.247-1.237.741-1.685.495-.447 1.123-.67 1.884-.67.805 0 1.436.212 1.893.638.457.426.685 1.018.685 1.776 0 .37-.12.73-.36 1.078-.24.347-.567.607-.981.779.468.148.83.395 1.086.738.256.344.384.764.384 1.26 0 .766-.25 1.373-.75 1.822-.5.45-1.15.674-1.95.674-.802 0-1.453-.217-1.955-.65-.502-.434-.753-1.006-.753-1.717h1.09c0 .45.146.809.44 1.078.292.27.685.404 1.177.404.524 0 .924-.136 1.201-.41.278-.273.416-.666.416-1.177 0-.497-.152-.877-.457-1.143-.304-.266-.744-.402-1.318-.41h-.815v-.885z" fill="#212121"/></g></g><path d="M627.044 177.223c-.086.91-.422 1.62-1.008 2.13-.586.51-1.365.764-2.338.764-.68 0-1.278-.16-1.796-.483a3.172 3.172 0 0 1-1.198-1.374c-.281-.594-.428-1.283-.44-2.069v-.796c0-.805.143-1.514.428-2.127.286-.614.695-1.086 1.228-1.418.533-.332 1.15-.498 1.849-.498.941 0 1.699.255 2.273.767.574.512.908 1.235 1.002 2.168h-1.477c-.07-.613-.249-1.056-.536-1.327-.287-.272-.708-.407-1.262-.407-.645 0-1.14.235-1.486.706-.346.47-.522 1.16-.53 2.071v.756c0 .922.165 1.625.495 2.11.33.484.814.726 1.45.726.582 0 1.02-.131 1.313-.393.293-.261.478-.697.556-1.306h1.477zm2.701 2.777h-1.424v-9h1.424v9zm1.283-3.229c0-.62.123-1.18.37-1.678a2.695 2.695 0 0 1 1.037-1.149c.445-.267.957-.401 1.535-.401.855 0 1.55.275 2.083.826.533.55.821 1.281.864 2.192l.006.334c0 .625-.12 1.183-.36 1.675-.24.493-.584.873-1.032 1.143-.447.27-.964.404-1.55.404-.894 0-1.61-.298-2.147-.893-.537-.596-.806-1.39-.806-2.382v-.07zm1.424.124c0 .652.135 1.163.404 1.532.27.369.645.553 1.125.553s.855-.187 1.123-.562c.267-.375.4-.924.4-1.647 0-.64-.137-1.148-.412-1.523a1.319 1.319 0 0 0-1.122-.562c-.465 0-.834.184-1.108.553-.273.37-.41.921-.41 1.656zm9.516 2.484c-.418.492-1.012.738-1.781.738-.688 0-1.208-.201-1.562-.603-.354-.403-.53-.985-.53-1.746v-4.108h1.424v4.09c0 .805.334 1.207 1.002 1.207.69 0 1.158-.248 1.4-.744v-4.553h1.424V180h-1.342l-.035-.621zm2.56-2.596c0-.976.227-1.76.68-2.352.453-.592 1.06-.888 1.822-.888.672 0 1.215.234 1.63.703V171h1.423v9h-1.29l-.07-.656c-.425.515-.994.773-1.704.773-.743 0-1.343-.299-1.802-.896-.46-.598-.689-1.41-.689-2.438zm1.424.123c0 .645.124 1.148.372 1.509s.6.542 1.058.542c.582 0 1.008-.26 1.277-.78v-2.706c-.262-.508-.683-.762-1.265-.762-.461 0-.817.183-1.067.548-.25.365-.375.915-.375 1.65zm10.225-.076V180h-1.483v-8.531h3.264c.953 0 1.71.248 2.27.744.561.496.841 1.152.841 1.969 0 .836-.274 1.486-.823 1.95-.549.466-1.317.698-2.306.698h-1.763zm0-1.19h1.781c.527 0 .93-.123 1.207-.371s.416-.607.416-1.076c0-.46-.14-.829-.422-1.104-.281-.276-.668-.417-1.16-.425h-1.822v2.977zm9.89 3.739c-.418.492-1.011.738-1.78.738-.688 0-1.209-.201-1.562-.603-.354-.403-.53-.985-.53-1.746v-4.108h1.423v4.09c0 .805.334 1.207 1.002 1.207.692 0 1.158-.248 1.4-.744v-4.553h1.424V180h-1.341l-.036-.621zm8.391-2.484c0 .984-.22 1.767-.66 2.35-.439.581-1.043.872-1.813.872-.742 0-1.32-.267-1.734-.803l-.07.686h-1.29v-9h1.424v3.27c.41-.485.963-.727 1.659-.727.773 0 1.38.287 1.822.861.441.575.662 1.377.662 2.409v.082zm-1.424-.124c0-.687-.12-1.203-.363-1.546-.242-.344-.594-.516-1.055-.516-.617 0-1.05.27-1.3.809v2.613c.253.55.69.826 1.312.826.445 0 .789-.166 1.031-.498.242-.332.367-.834.375-1.506v-.182zm3.018 3.961h-1.12l3.358-9.263h1.12l-3.358 9.263zm8.941-2.93c0-.374-.132-.663-.395-.866-.264-.204-.74-.409-1.427-.616-.688-.207-1.234-.437-1.64-.691-.778-.488-1.167-1.125-1.167-1.91 0-.688.28-1.254.841-1.7.56-.445 1.288-.667 2.183-.667.593 0 1.123.109 1.588.328.464.218.83.53 1.095.934.266.405.399.853.399 1.345h-1.477c0-.445-.14-.794-.419-1.046-.28-.252-.678-.378-1.198-.378-.484 0-.86.104-1.128.31-.268.208-.401.497-.401.868 0 .312.144.573.433.782.29.21.766.412 1.43.61.664.197 1.197.421 1.6.673.402.252.697.541.884.868.188.326.282.708.282 1.145 0 .711-.273 1.276-.818 1.696-.545.42-1.284.63-2.218.63a4.168 4.168 0 0 1-1.702-.343c-.517-.228-.92-.544-1.207-.946a2.358 2.358 0 0 1-.43-1.406h1.482c0 .484.16.86.48 1.125.32.266.78.398 1.377.398.516 0 .904-.104 1.164-.313.26-.21.39-.486.39-.83zm6.486 1.577c-.417.492-1.011.738-1.78.738-.688 0-1.209-.201-1.562-.603-.354-.403-.53-.985-.53-1.746v-4.108h1.423v4.09c0 .805.334 1.207 1.002 1.207.692 0 1.158-.248 1.4-.744v-4.553h1.424V180h-1.341l-.036-.621zm8.391-2.484c0 .984-.22 1.767-.66 2.35-.439.581-1.043.872-1.813.872-.742 0-1.32-.267-1.734-.803l-.07.686h-1.29v-9h1.425v3.27c.41-.485.962-.727 1.658-.727.773 0 1.38.287 1.822.861.441.575.662 1.377.662 2.409v.082zm-1.424-.124c0-.687-.12-1.203-.363-1.546-.242-.344-.594-.516-1.055-.516-.617 0-1.05.27-1.3.809v2.613c.253.55.69.826 1.312.826.445 0 .79-.166 1.031-.498.242-.332.367-.834.375-1.506v-.182z" fill="#000"/><path d="M156.333 378.667c-3.107 0-9.333 1.56-9.333 4.667v3.333h9.333v-3c0-1.133.44-3.12 3.16-4.627-1.16-.24-2.28-.373-3.16-.373m10 1.333c-2.44 0-7.333 1.227-7.333 3.667v3h14.666v-3c0-2.44-4.893-3.667-7.333-3.667m-10-4a3.983 3.983 0 0 0 3.987-4c0-2.213-1.774-4-3.987-4s-4 1.787-4 4c0 2.214 1.787 4 4 4m10 1.334c1.84 0 3.32-1.494 3.32-3.334s-1.48-3.333-3.32-3.333a3.334 3.334 0 0 0 0 6.667m247-.667c-3.107 0-9.333 1.56-9.333 4.667v3.333h9.333v-3c0-1.133.44-3.12 3.16-4.627-1.16-.24-2.28-.373-3.16-.373m10 1.333c-2.44 0-7.333 1.227-7.333 3.667v3h14.666v-3c0-2.44-4.893-3.667-7.333-3.667m-10-4a3.983 3.983 0 0 0 3.987-4c0-2.213-1.774-4-3.987-4s-4 1.787-4 4c0 2.214 1.787 4 4 4m10 1.334c1.84 0 3.32-1.494 3.32-3.334s-1.48-3.333-3.32-3.333a3.334 3.334 0 0 0 0 6.667" fill="#616161"/></g></svg>